<svg width="18" height="18" viewBox="0 0 18 18" fill="none" xmlns="http://www.w3.org/2000/svg">
<path d="M8.52229 1.5459C8.66748 1.07607 9.33252 1.07607 9.47771 1.54591L11.0157 6.52301C11.0805 6.73251 11.2742 6.87539 11.4934 6.87539H16.5219C17.0001 6.87539 17.2054 7.48238 16.8254 7.77272L12.7148 10.9129C12.5483 11.0401 12.4788 11.2576 12.5407 11.4578L14.1005 16.5054C14.2442 16.9705 13.7061 17.3459 13.3192 17.0504L9.30353 13.9827C9.12433 13.8458 8.87567 13.8458 8.69647 13.9827L4.68079 17.0504C4.29395 17.3459 3.75582 16.9705 3.89955 16.5054L5.45933 11.4578C5.5212 11.2576 5.45167 11.0401 5.28515 10.9129L1.17462 7.77272C0.79456 7.48238 0.99988 6.87539 1.47815 6.87539H6.50657C6.72585 6.87539 6.91954 6.73251 6.98428 6.52301L8.52229 1.5459Z" fill="#EE4E34"/>
</svg>
