<svg width="424" height="458" viewBox="0 0 424 458" fill="none" xmlns="http://www.w3.org/2000/svg">
<path d="M99.0131 283.337V363.563C99.002 365.608 99.5345 367.619 100.556 369.39C101.577 371.162 103.05 372.629 104.825 373.642L241.283 452.585C247.41 456.132 254.362 458 261.439 458C268.517 458 275.469 456.132 281.595 452.585L417.611 373.871C419.407 372.84 420.88 371.326 421.861 369.501C422.841 367.675 423.292 365.611 423.161 363.542H424V283.337H99.0131Z" fill="url(#paint0_linear_2222_7918)"/>
<path d="M241.638 371.525L104.929 292.549C103.157 291.529 101.685 290.061 100.662 288.291C99.6387 286.522 99.0999 284.514 99.0999 282.47C99.0999 280.426 99.6387 278.418 100.662 276.649C101.685 274.879 103.157 273.41 104.929 272.39L242.377 192.984C247.958 189.759 254.29 188.061 260.737 188.061C267.183 188.061 273.515 189.759 279.096 192.984L418.252 273.385C419.953 274.37 421.366 275.784 422.348 277.486C423.33 279.189 423.847 281.12 423.847 283.085C423.847 285.05 423.33 286.98 422.348 288.683C421.366 290.385 419.953 291.8 418.252 292.784L282 371.499C275.867 375.046 268.908 376.916 261.823 376.921C254.737 376.926 247.775 375.065 241.638 371.525Z" fill="#E0E8F6"/>
<path d="M318.986 276.906L318.631 276.603C317.534 277.033 316.451 277.559 315.317 277.907L318.986 276.906Z" fill="#DABDC4"/>
<path d="M299.198 25.4376C274.472 2.29119 249.027 -4.61542 228.177 2.91427L179.795 16.2472C188.684 14.6605 197.826 15.2733 206.424 18.0321C220.327 22.7082 232.986 30.4814 243.444 40.7642C268.015 66.3401 286.221 97.3357 296.591 131.246C306.961 165.156 309.204 201.029 303.139 235.965C300.094 251.199 293.269 265.423 283.29 277.332C276.959 284.759 268.689 290.283 259.402 293.288L314.262 278.235C314.614 278.15 314.967 278.065 315.305 277.959C316.439 277.611 317.522 277.085 318.619 276.654C329.408 271.337 338.725 263.452 345.749 253.691C352.774 243.93 357.29 232.593 358.903 220.678C364.976 185.734 362.736 149.852 352.364 115.935C341.992 82.0168 323.779 51.0153 299.198 25.4376Z" fill="url(#paint1_linear_2222_7918)"/>
<path d="M283.29 277.332C293.269 265.423 300.094 251.199 303.139 235.965C309.204 201.029 306.961 165.156 296.591 131.246C286.221 97.3357 268.015 66.3401 243.444 40.7642C232.986 30.4814 220.327 22.7082 206.424 18.0321C197.826 15.2733 188.684 14.6605 179.795 16.2472C157.086 20.5398 138.695 40.5528 130.799 74.7387C124.308 107.763 126.019 141.874 135.781 174.084L147.381 170.516C140.017 145.979 138.756 120.016 143.706 94.8805C146.278 79.9365 154.138 66.4141 165.851 56.7778C170.419 53.4049 175.688 51.1037 181.268 50.045C188.079 48.8251 195.085 49.2937 201.672 51.4097C212.329 54.9903 222.033 60.9442 230.051 68.8221C248.874 88.4359 262.818 112.2 270.755 138.196C278.692 164.191 280.4 191.688 275.742 218.465C273.404 230.139 268.173 241.039 260.527 250.167C256.212 255.19 250.751 259.101 244.605 261.569C243.811 261.884 243.025 262.165 242.213 262.402C240.792 262.829 239.349 263.174 237.889 263.437C234.199 264.089 230.435 264.222 226.708 263.831C212.502 261.611 199.406 254.828 189.4 244.506C170.513 225.61 156.672 202.279 149.143 176.65L137.522 180.231C147.312 214.117 165.514 244.978 190.437 269.945C214.314 292.286 238.889 299.602 259.341 293.236C268.644 290.256 276.935 284.75 283.29 277.332Z" fill="url(#paint2_linear_2222_7918)"/>
<path d="M164.499 128.648C165.782 121.19 169.71 114.443 175.561 109.641C177.835 107.961 180.457 106.811 183.233 106.275C186.636 105.673 190.134 105.909 193.424 106.964C198.741 108.747 203.58 111.721 207.57 115.66C216.971 125.438 223.939 137.29 227.908 150.258C231.877 163.226 232.737 176.945 230.418 190.307C229.253 196.132 226.643 201.571 222.828 206.125C220.67 208.632 217.943 210.588 214.876 211.828C214.489 211.979 214.09 212.109 213.69 212.238C212.978 212.443 212.254 212.609 211.524 212.736C209.679 213.071 207.796 213.14 205.932 212.942C198.843 211.83 192.308 208.448 187.308 203.305C178.269 194.256 171.555 183.154 167.741 170.947L149.199 176.645C156.728 202.274 170.569 225.605 189.456 244.501C199.462 254.822 212.558 261.606 226.764 263.826C230.492 264.217 234.255 264.084 237.945 263.432C239.405 263.169 240.849 262.824 242.269 262.397C243.082 262.16 243.867 261.879 244.661 261.564C250.807 259.096 256.268 255.185 260.583 250.162C268.208 241.029 273.42 230.131 275.742 218.465C280.39 191.682 278.669 164.182 270.719 138.187C262.769 112.192 248.812 88.4305 229.976 68.8237C221.958 60.9459 212.254 54.9919 201.597 51.4114C195.01 49.2954 188.004 48.8268 181.193 50.0467C175.613 51.1054 170.344 53.4066 165.776 56.7795C154.063 66.4157 146.204 79.9381 143.631 94.8822C138.681 120.017 139.942 145.98 147.306 170.518L165.852 164.802C162.556 153.026 162.092 140.638 164.499 128.648Z" fill="#F0F0FC"/>
<path d="M187.326 203.308C192.326 208.452 198.861 211.834 205.949 212.945C207.814 213.144 209.697 213.074 211.542 212.739C212.272 212.613 212.995 212.447 213.708 212.242C214.108 212.112 214.507 211.983 214.893 211.832C217.961 210.591 220.687 208.636 222.846 206.129C226.661 201.574 229.271 196.135 230.436 190.311C232.755 176.949 231.895 163.229 227.926 150.261C223.956 137.293 216.989 125.441 207.587 115.664C203.597 111.725 198.759 108.751 193.442 106.968C190.152 105.913 186.653 105.676 183.25 106.279C180.474 106.814 177.853 107.964 175.579 109.645C169.727 114.446 165.8 121.194 164.517 128.652C162.134 140.647 162.623 153.035 165.944 164.805L190.868 157.162C192.541 156.643 193.553 157.782 193.083 159.816C192.836 160.822 192.357 161.757 191.684 162.544C191.011 163.332 190.163 163.952 189.207 164.354L167.777 170.955C171.586 183.158 178.293 194.259 187.326 203.308Z" fill="url(#paint3_linear_2222_7918)"/>
<path d="M167.759 170.952L189.19 164.351C190.145 163.949 190.993 163.33 191.666 162.542C192.339 161.754 192.818 160.82 193.066 159.814C193.524 157.832 192.523 156.64 190.851 157.16L165.926 164.802L75.0762 192.759C75.145 192.941 9.02733 213.285 9.02733 213.285C7.33502 213.622 5.66524 214.063 4.02742 214.606C3.05425 215.015 2.19162 215.649 1.51064 216.455C0.829664 217.261 0.349592 218.217 0.109581 219.245C-0.344154 221.209 0.652056 222.418 2.34212 221.903L7.17735 220.414C7.20166 220.309 73.2665 199.953 73.2665 199.953L137.575 180.319L149.197 176.738L167.759 170.952Z" fill="#232F6D"/>
<path d="M75.1455 192.939C73.1967 188.092 46.1897 192.428 29.7332 197.498C13.2766 202.568 12.947 206.557 9.18575 213.079C9.0278 213.283 75.1455 192.939 75.1455 192.939Z" fill="#FF4050"/>
<path d="M7.15207 220.204C8.35297 225.247 6.63939 229.785 23.1742 224.695C41.242 219.654 58.2143 211.298 73.2251 200.053C73.2872 199.864 7.15207 220.204 7.15207 220.204Z" fill="#FF4050"/>
<defs>
<linearGradient id="paint0_linear_2222_7918" x1="54.4897" y1="370.668" x2="390.526" y2="370.668" gradientUnits="userSpaceOnUse">
<stop offset="0.292" stop-color="#D0D9ED"/>
<stop offset="0.388" stop-color="#BFCCE5"/>
<stop offset="0.525" stop-color="#AEBEDF"/>
<stop offset="0.627" stop-color="#A9BCE3"/>
</linearGradient>
<linearGradient id="paint1_linear_2222_7918" x1="181.12" y1="0" x2="181.12" y2="295.441" gradientUnits="userSpaceOnUse">
<stop stop-color="#EAEFF9"/>
<stop offset="0.231992" stop-color="#E7EDF8"/>
<stop offset="0.403877" stop-color="#E0E7F6"/>
<stop offset="0.54451" stop-color="#D4DEF3"/>
<stop offset="0.695" stop-color="#AEBCE1"/>
<stop offset="1" stop-color="#AEBDE3"/>
</linearGradient>
<linearGradient id="paint2_linear_2222_7918" x1="128.565" y1="54.381" x2="132.464" y2="266.424" gradientUnits="userSpaceOnUse">
<stop stop-color="#FFAE10"/>
<stop offset="1" stop-color="#FE8900"/>
</linearGradient>
<linearGradient id="paint3_linear_2222_7918" x1="128.565" y1="54.381" x2="132.464" y2="266.424" gradientUnits="userSpaceOnUse">
<stop stop-color="#FFAE10"/>
<stop offset="1" stop-color="#FE8900"/>
</linearGradient>
</defs>
</svg>
