<svg fill="none" height="24" viewBox="0 0 140 24" width="140" xmlns="http://www.w3.org/2000/svg"><g fill="#ea5959"><path d="m138.001 9.6699c-.063-.18291-.178-.34357-.33-.4625-.153-.11892-.337-.191-.53-.2075l-5.69-.83-2.55-5.17c-.081-.16907-.209-.31166-.368-.41143-.16-.09976-.344-.15268-.532-.15268-.187 0-.371.05292-.531.15268-.159.09977-.287.24236-.369.41143l-2.55 5.16-5.69.84c-.185.02631-.359.10396-.502.22416-.143.12019-.25.27812-.308.45584-.053.17368-.057.3585-.013.5347s.135.337.263.4653l4.13 4-1 5.68c-.035.1875-.017.3813.054.5585.071.1771.191.3304.346.4415.152.1081.33.1719.515.1843.186.0124.371-.0272.535-.1143l5.12-2.67 5.1 2.68c.141.0792.299.1205.46.12.212.0008.419-.0658.59-.19.156-.1111.276-.2644.347-.4415.07-.1772.089-.371.053-.5585l-1-5.68 4.13-4c.145-.1223.252-.2831.308-.4637.057-.1805.061-.37342.012-.5563zm-6.15 4c-.117.1134-.205.2538-.255.409-.051.1551-.062.3203-.035.481l.72 4.19-3.76-2c-.144-.077-.306-.1173-.47-.1173-.163 0-.325.0403-.47.1173l-3.76 2 .72-4.19c.028-.1607.017-.3259-.034-.481-.051-.1552-.138-.2956-.256-.409l-3-3 4.21-.61c.162-.0225.316-.08446.449-.18035.132-.09589.239-.22281.311-.36965l1.78-3.81 1.88 3.82c.072.14684.179.27376.312.36965.132.09589.286.15785.448.18035l4.21.61z"/><path d="m22 10.0999c.1-.49996-.3-1.09996-.8-1.09996l-5.7-.8-2.6-5.2c-.1-.2-.2-.3-.4-.4-.5-.3-1.1-.1-1.4.4l-2.5 5.2-5.7.8c-.3 0-.5.1-.6.3-.4.4-.4.99996 0 1.39996l4.1 4-1 5.7c0 .2 0 .4.1.6.3.5.9.7 1.4.4l5.1-2.7 5.1 2.7c.1.1.3.1.5.1h.2c.5-.1.9-.6.8-1.2l-1-5.7 4.1-4c.2-.1.3-.3.3-.5z"/><path d="m80 10.0999c.1-.49996-.3-1.09996-.8-1.09996l-5.7-.8-2.6-5.2c-.1-.2-.2-.3-.4-.4-.5-.3-1.1-.1-1.4.4l-2.5 5.2-5.7.8c-.3 0-.5.1-.6.3-.4.4-.4.99996 0 1.39996l4.1 4-1 5.7c0 .2 0 .4.1.6.3.5.9.7 1.4.4l5.1-2.7 5.1 2.7c.1.1.3.1.5.1h.2c.5-.1.9-.6.8-1.2l-1-5.7 4.1-4c.2-.1.3-.3.3-.5z"/><path d="m51 10.0999c.1-.49996-.3-1.09996-.8-1.09996l-5.7-.8-2.6-5.2c-.1-.2-.2-.3-.4-.4-.5-.3-1.1-.1-1.4.4l-2.5 5.2-5.7.8c-.3 0-.5.1-.6.3-.4.4-.4.99996 0 1.39996l4.1 4-1 5.7c0 .2 0 .4.1.6.3.5.9.7 1.4.4l5.1-2.7 5.1 2.7c.1.1.3.1.5.1h.2c.5-.1.9-.6.8-1.2l-1-5.7 4.1-4c.2-.1.3-.3.3-.5z"/><path d="m109 10.0999c.1-.49996-.3-1.09996-.8-1.09996l-5.7-.8-2.6-5.2c-.1-.2-.2-.3-.4-.4-.5-.3-1.1-.1-1.4.4l-2.5 5.2-5.7.8c-.3 0-.5.1-.6.3-.4.4-.4.99996 0 1.39996l4.1 4-1 5.7c0 .2 0 .4.1.6.3.5.9.7 1.4.4l5.1-2.7 5.1 2.7c.1.1.3.1.5.1h.2c.5-.1.9-.6.8-1.2l-1-5.7 4.1-4c.2-.1.3-.3.3-.5z"/></g></svg>