<svg width="385" height="368" viewBox="0 0 385 368" fill="none" xmlns="http://www.w3.org/2000/svg">
<rect width="385" height="368" fill="white"/>
<path d="M72.5559 283.998L49.6566 306.803H335.343V197.006L330.175 210.758C321.834 232.951 295.227 241.901 275.17 229.26C257.874 218.36 235.032 223.351 223.858 240.472L215.999 252.515C202.7 272.892 177.058 281.336 154.254 272.847L143.116 268.701C118.627 259.585 91.0713 265.559 72.5559 283.998Z" fill="url(#paint0_linear_2305_25693)"/>
<path d="M49.6566 306.803L72.4181 283.897C90.6528 265.547 117.957 259.602 142.17 268.71L152.957 272.768C175.606 281.287 201.13 272.863 214.259 252.536L222.038 240.49C233.072 223.406 255.827 218.433 272.982 229.357V229.357C292.748 241.945 319.088 233.214 327.423 211.313L332.868 197.006" stroke="#46A6FF" stroke-width="5" stroke-linecap="round"/>
<path d="M51.0891 80.1968H54.1179V66.1375H51.0891V80.1968ZM62.9609 69.3709C61.5898 69.3709 60.4028 69.9849 59.7684 70.9467V69.6165H56.7805V80.1968H59.7684V73.8732L59.7889 73.9346C59.7889 72.7885 60.7507 71.8881 61.9991 71.8881C63.186 71.8881 64.0046 72.7885 64.0046 74.0983V80.1968H66.8901V73.4639C66.8901 71.0695 65.253 69.3709 62.9609 69.3709ZM72.953 80.1968H75.7157L80.2384 69.6165H77.1278L74.3446 76.7587L71.5 69.6165H68.3689L72.953 80.1968ZM86.1572 77.8024C84.9089 77.8024 83.988 77.0247 83.6401 75.8787H91.2734C91.2734 71.8881 89.3293 69.3709 86.014 69.3709C82.9238 69.3709 80.5704 71.6834 80.5704 74.8759C80.5704 78.1298 83.0261 80.4424 86.1777 80.4424C87.733 80.4424 89.5544 79.7875 90.4958 78.8052L88.5925 76.861C88.0195 77.4136 86.9963 77.8024 86.1572 77.8024ZM86.1368 72.0109C87.3442 72.0109 88.1219 72.6862 88.4084 73.7299H83.681C84.0698 72.6657 85.0112 72.0109 86.1368 72.0109ZM97.265 80.4424C99.864 80.4424 101.563 79.1121 101.563 77.0247C101.563 74.7122 99.5366 74.0983 97.7152 73.6276C96.2827 73.2388 95.8529 73.075 95.8529 72.502C95.8529 72.1337 96.3645 71.8676 97.1013 71.8676C98.0017 71.8676 99.1068 72.2155 100.069 72.809L101.276 70.6807C100.11 69.903 98.6157 69.3709 97.1013 69.3709C94.6046 69.3709 92.9469 70.8034 92.9674 72.809C92.9878 74.8964 94.666 75.4899 96.8352 76.022C97.9199 76.3085 98.6975 76.5131 98.6975 77.168C98.6975 77.6387 98.1245 77.9661 97.3264 77.9661C95.9143 77.9661 94.7273 77.4545 93.786 76.7792L92.4967 78.8461C93.7655 79.8693 95.5664 80.4424 97.265 80.4424ZM109.134 77.5773C108.929 77.7819 108.52 77.9252 108.11 77.9252C107.558 77.9252 107.108 77.434 107.108 76.7382V72.0313H109.4V69.6165H107.108V66.7105H104.243V69.6165H102.79V72.0313H104.243V77.2089C104.243 79.1121 105.552 80.4424 107.415 80.4424C108.274 80.4424 109.236 80.074 109.85 79.5214L109.134 77.5773ZM124.307 69.3709C122.731 69.3709 121.421 70.1281 120.869 71.2946C120.214 70.1076 118.966 69.3709 117.513 69.3709C116.203 69.3709 115.159 70.0053 114.648 71.0081V69.6165H111.66V80.1968H114.648V73.8118C114.648 72.6862 115.487 71.8881 116.694 71.8881C117.779 71.8881 118.556 72.7476 118.556 73.9755V80.2172H121.421V73.8118C121.421 72.6862 122.281 71.8881 123.468 71.8881C124.573 71.8881 125.351 72.7476 125.351 73.9755V80.2172H128.216V73.4639C128.216 71.0695 126.517 69.3709 124.307 69.3709ZM135.72 77.8024C134.472 77.8024 133.551 77.0247 133.203 75.8787H140.837C140.837 71.8881 138.892 69.3709 135.577 69.3709C132.487 69.3709 130.133 71.6834 130.133 74.8759C130.133 78.1298 132.589 80.4424 135.741 80.4424C137.296 80.4424 139.118 79.7875 140.059 78.8052L138.156 76.861C137.583 77.4136 136.559 77.8024 135.72 77.8024ZM135.7 72.0109C136.907 72.0109 137.685 72.6862 137.971 73.7299H133.244C133.633 72.6657 134.574 72.0109 135.7 72.0109ZM148.977 69.3709C147.606 69.3709 146.419 69.9849 145.784 70.9467V69.6165H142.797V80.1968H145.784V73.8732L145.805 73.9346C145.805 72.7885 146.767 71.8881 148.015 71.8881C149.202 71.8881 150.021 72.7885 150.021 74.0983V80.1968H152.906V73.4639C152.906 71.0695 151.269 69.3709 148.977 69.3709ZM160.995 77.5773C160.79 77.7819 160.381 77.9252 159.972 77.9252C159.419 77.9252 158.969 77.434 158.969 76.7382V72.0313H161.261V69.6165H158.969V66.7105H156.104V69.6165H154.651V72.0313H156.104V77.2089C156.104 79.1121 157.414 80.4424 159.276 80.4424C160.135 80.4424 161.097 80.074 161.711 79.5214L160.995 77.5773ZM174.026 69.3709C172.552 69.3709 171.099 69.7802 169.605 70.5374L170.608 72.5225C171.447 72.0927 172.368 71.7653 173.35 71.7653C175.09 71.7653 175.786 72.7476 175.786 73.8732V74.0778C174.885 73.7299 173.944 73.5457 173.084 73.5457C170.628 73.5457 168.684 74.9783 168.684 77.0657C168.684 79.0917 170.424 80.4424 172.675 80.4424C173.821 80.4424 175.028 79.9921 175.786 79.1326V80.1968H178.671V73.8732C178.671 71.1104 176.788 69.3709 174.026 69.3709ZM173.35 78.3754C172.327 78.3754 171.57 77.8433 171.57 76.9838C171.57 76.1243 172.429 75.4899 173.514 75.4899C174.333 75.4899 175.11 75.6331 175.786 75.8787V76.861C175.581 77.8433 174.496 78.3754 173.35 78.3754ZM186.367 80.4424C188.127 80.4424 189.56 79.7261 190.603 78.5801L188.618 76.9019C188.066 77.5159 187.206 77.9252 186.387 77.9252C184.812 77.9252 183.502 76.5336 183.502 74.8759C183.502 73.2592 184.812 71.8881 186.367 71.8881C187.186 71.8881 188.025 72.2769 188.557 72.8704L190.542 71.1718C189.519 70.0667 188.107 69.3709 186.387 69.3709C183.256 69.3709 180.596 71.8881 180.596 74.8964C180.596 77.9047 183.236 80.4424 186.367 80.4424ZM197.579 80.4424C199.339 80.4424 200.771 79.7261 201.815 78.5801L199.83 76.9019C199.277 77.5159 198.418 77.9252 197.599 77.9252C196.023 77.9252 194.714 76.5336 194.714 74.8759C194.714 73.2592 196.023 71.8881 197.579 71.8881C198.397 71.8881 199.236 72.2769 199.768 72.8704L201.753 71.1718C200.73 70.0667 199.318 69.3709 197.599 69.3709C194.468 69.3709 191.808 71.8881 191.808 74.8964C191.808 77.9047 194.448 80.4424 197.579 80.4424ZM208.591 80.4424C211.722 80.4424 214.342 77.9047 214.342 74.8964C214.342 71.8881 211.722 69.3709 208.591 69.3709C205.439 69.3709 202.799 71.8881 202.799 74.8964C202.799 77.9047 205.439 80.4424 208.591 80.4424ZM208.591 77.9252C206.995 77.9252 205.664 76.5336 205.664 74.8964C205.664 73.2592 206.995 71.8881 208.591 71.8881C210.167 71.8881 211.497 73.2592 211.497 74.8964C211.497 76.5336 210.167 77.9252 208.591 77.9252ZM223.383 69.6165V75.9401L223.362 75.8787C223.362 77.0247 222.4 77.9252 221.152 77.9252C219.965 77.9252 219.146 77.0247 219.146 75.715V69.6165H216.261V76.3494C216.261 78.7438 217.898 80.4424 220.19 80.4424C221.561 80.4424 222.748 79.8284 223.383 78.8666V80.1968H226.371V69.6165H223.383ZM235.053 69.3709C233.682 69.3709 232.495 69.9849 231.86 70.9467V69.6165H228.873V80.1968H231.86V73.8732L231.881 73.9346C231.881 72.7885 232.843 71.8881 234.091 71.8881C235.278 71.8881 236.097 72.7885 236.097 74.0983V80.1968H238.982V73.4639C238.982 71.0695 237.345 69.3709 235.053 69.3709ZM247.071 77.5773C246.866 77.7819 246.457 77.9252 246.048 77.9252C245.495 77.9252 245.045 77.434 245.045 76.7382V72.0313H247.337V69.6165H245.045V66.7105H242.18V69.6165H240.727V72.0313H242.18V77.2089C242.18 79.1121 243.49 80.4424 245.352 80.4424C246.211 80.4424 247.173 80.074 247.787 79.5214L247.071 77.5773Z" fill="#1D263A"/>
<path d="M53.5567 183.326H56.1429V168.997H54.0573L50.032 171.729L51.0957 173.565L53.5567 172.001V183.326ZM58.8033 183.326H69.3358V180.948H62.8494L65.8528 178.529C68.3138 176.631 69.1898 175.108 69.1898 173.21C69.1898 170.562 67.0207 168.747 64.1842 168.747C61.8692 168.747 60.1381 169.769 58.7824 171.542L60.4718 173.106C61.5146 171.855 62.5991 171.083 64.1008 171.083C65.3939 171.083 66.541 171.917 66.541 173.273C66.541 174.441 65.8945 175.525 64.08 176.985L58.8033 181.198V183.326ZM73.3723 183.576C74.2483 183.576 74.9783 182.825 74.9783 181.907C74.9783 181.052 74.2483 180.301 73.3723 180.301C72.4129 180.301 71.7038 181.052 71.7038 181.907C71.7038 182.825 72.4129 183.576 73.3723 183.576ZM83.62 174.17C82.1601 174.17 80.7836 174.775 79.9076 175.796C80.0744 172.981 81.5135 171.041 83.5366 171.041C84.8089 171.041 85.6848 171.563 86.5608 172.334L87.8331 170.353C86.6859 169.373 85.3303 168.747 83.5575 168.747C79.8242 168.747 77.2171 171.98 77.2171 176.401C77.2171 180.531 79.0316 183.576 83.0986 183.576C86.1854 183.576 88.4379 181.532 88.4379 178.696C88.4379 175.838 86.248 174.17 83.62 174.17ZM82.9735 181.365C81.2424 181.365 80.3456 180.176 80.0327 178.278C80.4499 177.069 81.5552 176.297 82.9318 176.297C84.496 176.297 85.7891 177.236 85.7891 178.8C85.7891 180.114 84.7254 181.365 82.9735 181.365ZM93.8135 176.13C95.8783 176.13 97.3174 174.566 97.3174 172.501C97.3174 170.499 95.92 168.872 93.8135 168.872C91.7487 168.872 90.3305 170.478 90.3305 172.522C90.3305 174.524 91.7278 176.13 93.8135 176.13ZM92.1658 183.326H94.0846L103.991 168.997H102.073L92.1658 183.326ZM93.8135 174.566C92.8541 174.566 92.1241 173.711 92.1241 172.522C92.1241 171.271 92.8332 170.436 93.8135 170.436C94.7729 170.436 95.5029 171.291 95.5029 172.522C95.5029 173.732 94.7937 174.566 93.8135 174.566ZM102.281 183.534C104.346 183.534 105.785 181.949 105.785 179.884C105.785 177.903 104.409 176.255 102.302 176.255C100.216 176.255 98.7982 177.882 98.7982 179.905C98.7982 181.949 100.237 183.534 102.281 183.534ZM102.302 181.97C101.322 181.97 100.613 181.115 100.613 179.884C100.613 178.696 101.301 177.84 102.281 177.84C103.261 177.84 103.991 178.696 103.991 179.905C103.991 181.136 103.282 181.97 102.302 181.97ZM121.249 172.543V179.363C121.082 180.51 119.977 181.407 118.642 181.407C117.307 181.407 116.369 180.364 116.369 178.904V172.543H113.908V179.405C113.908 181.845 115.555 183.576 117.912 183.576C119.33 183.576 120.582 182.888 121.249 181.887V183.326H123.794V172.543H121.249ZM132.959 172.293C131.353 172.293 130.06 173.023 129.205 174.253V172.543H126.66V186.913H129.205V181.615C130.06 182.846 131.353 183.576 132.959 183.576C135.816 183.576 137.902 181.24 137.902 177.924C137.902 174.629 135.816 172.293 132.959 172.293ZM132.271 181.407C130.477 181.407 129.226 179.947 129.226 177.924C129.226 175.901 130.477 174.462 132.271 174.462C134.085 174.462 135.378 175.901 135.378 177.924C135.378 179.947 134.085 181.407 132.271 181.407ZM149.363 171.646C149.363 170.916 149.822 170.395 150.427 170.395C150.865 170.395 151.261 170.562 151.491 170.791L152.221 169.164C151.616 168.643 150.74 168.309 149.927 168.309C148.133 168.309 146.882 169.602 146.882 171.417V172.543H145.317V174.649H146.882V183.326H149.363V174.649H151.804V172.543H149.363V171.646ZM156.436 174.629V172.543H153.892V183.326H156.436V177.882C156.436 175.838 157.98 174.462 160.295 174.462V172.293C158.522 172.293 157.124 173.189 156.436 174.629ZM167.129 183.576C170.258 183.576 172.907 180.99 172.907 177.924C172.907 174.858 170.258 172.293 167.129 172.293C164.001 172.293 161.352 174.858 161.352 177.924C161.352 180.99 164.001 183.576 167.129 183.576ZM167.129 181.407C165.336 181.407 163.834 179.822 163.834 177.924C163.834 176.047 165.336 174.462 167.129 174.462C168.902 174.462 170.404 176.047 170.404 177.924C170.404 179.822 168.902 181.407 167.129 181.407ZM187.565 172.293C185.959 172.293 184.603 173.085 184.082 174.337C183.414 173.064 182.163 172.293 180.64 172.293C179.285 172.293 178.179 172.96 177.637 174.003V172.543H175.093V183.326H177.637V176.714C177.637 175.4 178.617 174.462 179.994 174.462C181.245 174.462 182.1 175.463 182.1 176.881V183.326H184.582V176.714C184.582 175.4 185.542 174.462 186.939 174.462C188.17 174.462 189.025 175.463 189.025 176.881V183.326H191.507V176.464C191.507 174.024 189.817 172.293 187.565 172.293ZM200.166 183.326H202.71V168.747H200.166V183.326ZM210.215 172.293C208.859 172.293 207.441 172.668 205.919 173.419L206.795 175.192C207.712 174.733 208.692 174.378 209.714 174.378C211.675 174.378 212.363 175.588 212.363 176.839V177.131C211.383 176.756 210.319 176.547 209.339 176.547C206.92 176.547 204.938 178.007 204.938 180.135C204.938 182.22 206.669 183.576 208.964 183.576C210.215 183.576 211.571 183.034 212.363 182.033V183.326H214.845V176.839C214.845 174.107 213.072 172.293 210.215 172.293ZM209.527 181.72C208.317 181.72 207.42 181.073 207.42 180.051C207.42 179.029 208.442 178.32 209.714 178.32C210.674 178.32 211.571 178.466 212.363 178.737V179.947C212.071 181.094 210.757 181.72 209.527 181.72ZM221.584 183.576C224.108 183.576 225.818 182.241 225.818 180.176C225.818 177.924 223.857 177.298 222.043 176.798C220.395 176.318 219.832 176.109 219.832 175.421C219.832 174.816 220.52 174.462 221.417 174.462C222.356 174.462 223.461 174.795 224.483 175.442L225.547 173.586C224.379 172.814 222.898 172.293 221.417 172.293C219.019 172.293 217.35 173.669 217.35 175.692C217.371 177.611 218.852 178.278 221.188 178.883C222.418 179.217 223.357 179.488 223.357 180.322C223.357 180.99 222.648 181.428 221.626 181.428C220.27 181.428 219.06 180.927 218.017 180.176L216.87 181.949C218.163 182.992 219.936 183.576 221.584 183.576ZM233.41 181.011C233.18 181.24 232.784 181.407 232.346 181.407C231.741 181.407 231.282 180.885 231.282 180.155V174.649H233.722V172.543H231.282V169.581H228.8V172.543H227.236V174.649H228.8V180.468C228.8 182.283 230.052 183.576 231.845 183.576C232.659 183.576 233.535 183.242 234.14 182.721L233.41 181.011ZM254.472 172.293C252.867 172.293 251.511 173.085 250.989 174.337C250.322 173.064 249.071 172.293 247.548 172.293C246.192 172.293 245.087 172.96 244.545 174.003V172.543H242V183.326H244.545V176.714C244.545 175.4 245.525 174.462 246.902 174.462C248.153 174.462 249.008 175.463 249.008 176.881V183.326H251.49V176.714C251.49 175.4 252.449 174.462 253.847 174.462C255.077 174.462 255.932 175.463 255.932 176.881V183.326H258.414V176.464C258.414 174.024 256.725 172.293 254.472 172.293ZM266.381 183.576C269.509 183.576 272.158 180.99 272.158 177.924C272.158 174.858 269.509 172.293 266.381 172.293C263.252 172.293 260.604 174.858 260.604 177.924C260.604 180.99 263.252 183.576 266.381 183.576ZM266.381 181.407C264.587 181.407 263.086 179.822 263.086 177.924C263.086 176.047 264.587 174.462 266.381 174.462C268.154 174.462 269.655 176.047 269.655 177.924C269.655 179.822 268.154 181.407 266.381 181.407ZM280.247 172.293C278.828 172.293 277.577 172.981 276.909 173.982V172.543H274.365V183.326H276.909V176.506C277.076 175.359 278.182 174.462 279.517 174.462C280.851 174.462 281.79 175.505 281.79 176.964V183.326H284.251V176.464C284.251 174.024 282.603 172.293 280.247 172.293ZM292.394 181.011C292.165 181.24 291.769 181.407 291.331 181.407C290.726 181.407 290.267 180.885 290.267 180.155V174.649H292.707V172.543H290.267V169.581H287.785V172.543H286.221V174.649H287.785V180.468C287.785 182.283 289.036 183.576 290.83 183.576C291.643 183.576 292.519 183.242 293.124 182.721L292.394 181.011ZM300.981 172.293C299.542 172.293 298.269 172.981 297.623 174.024V168.747H295.078V183.326H297.623V176.798C297.623 175.505 298.812 174.462 300.251 174.462C301.586 174.462 302.524 175.505 302.524 176.964V183.326H304.985V176.464C304.985 174.024 303.338 172.293 300.981 172.293Z" fill="#A1A6B0"/>
<path d="M72.3067 136.164C72.3067 131.424 68.7713 129.598 63.4487 128.393V121.089C65.3912 121.517 67.2561 122.527 68.9655 124.003L71.6074 120.429C69.354 118.486 66.751 117.166 63.4487 116.816V114.407H59.9132V116.777C55.1346 117.36 51.9099 120.584 51.9099 124.78C51.9099 129.365 55.1346 131.074 59.9132 132.317V139.893C57.5433 139.388 55.4842 138.223 53.6582 136.552L50.8609 140.01C53.3086 142.263 56.3389 143.74 59.9132 144.167V146.77H63.4487V144.284C69.0821 143.895 72.3067 140.632 72.3067 136.164ZM56.8051 124.353C56.8051 122.838 58.0095 121.478 59.9132 121.012V127.461C57.8153 126.723 56.8051 125.907 56.8051 124.353ZM63.4487 140.126V133.211C66.2071 134.027 67.4503 134.843 67.4503 136.63C67.4503 138.339 66.0905 139.816 63.4487 140.126ZM85.6317 144.361C91.7313 144.361 95.8884 140.787 95.8884 135.27C95.8884 129.909 91.809 126.878 87.0692 126.878C84.777 126.878 83.0287 127.578 81.6689 128.51L81.902 121.633H94.4509V117.204H77.3564L76.9679 131.385L80.2703 132.784C81.7854 131.618 83.6114 130.919 85.7094 130.919C88.8952 130.919 91.032 132.745 91.032 135.464C91.032 138.067 88.9729 140.165 85.7094 140.165C83.0287 140.165 80.5811 138.806 78.522 136.785L75.647 140.243C78.0169 142.729 81.2804 144.361 85.6317 144.361ZM111.519 126.839C108.8 126.839 106.235 127.966 104.604 129.87C104.915 124.625 107.595 121.012 111.364 121.012C113.734 121.012 115.365 121.983 116.997 123.421L119.367 119.73C117.23 117.904 114.705 116.738 111.403 116.738C104.448 116.738 99.592 122.76 99.592 130.996C99.592 138.689 102.972 144.361 110.548 144.361C116.298 144.361 120.494 140.554 120.494 135.27C120.494 129.947 116.414 126.839 111.519 126.839ZM110.315 140.243C107.09 140.243 105.42 138.029 104.837 134.493C105.614 132.24 107.673 130.802 110.237 130.802C113.151 130.802 115.56 132.551 115.56 135.464C115.56 137.912 113.578 140.243 110.315 140.243ZM127.438 149.412C130.041 146.615 131.168 144.594 131.168 142.496C131.168 140.049 129.886 138.262 127.904 138.262C126.234 138.262 124.874 139.66 124.874 141.292C124.874 142.963 126.195 144.361 127.827 144.361C127.516 145.604 126.739 146.848 125.573 148.013L127.438 149.412ZM145.434 144.361C151.184 144.361 155.846 141.564 155.846 136.785C155.846 133.638 153.554 131.307 150.407 130.103C153.088 129.015 155.147 127.034 155.147 123.926C155.147 119.419 150.601 116.738 145.434 116.738C140.422 116.738 135.76 119.341 135.76 123.926C135.76 126.956 137.742 128.937 140.5 130.103C137.392 131.23 135.061 133.561 135.061 136.785C135.061 141.525 139.645 144.361 145.434 144.361ZM145.434 128.355C143.22 128.238 140.539 126.917 140.539 124.547C140.539 122.449 142.637 120.856 145.434 120.856C148.231 120.856 150.368 122.449 150.368 124.547C150.368 126.878 147.726 128.238 145.434 128.355ZM145.434 140.204C142.287 140.204 139.917 138.65 139.917 136.319C139.917 133.833 142.986 132.356 145.434 132.24C147.921 132.356 150.951 133.833 150.951 136.319C150.951 138.65 148.542 140.204 145.434 140.204ZM169.334 116.738C163.584 116.738 159.388 120.546 159.388 125.829C159.388 131.152 163.467 134.26 168.363 134.26C171.082 134.26 173.646 133.133 175.278 131.23C174.967 136.474 172.286 140.088 168.518 140.088C166.148 140.088 164.516 139.116 162.885 137.679L160.515 141.37C162.651 143.196 165.177 144.361 168.479 144.361C175.433 144.361 180.29 138.339 180.29 130.103C180.29 122.41 176.91 116.738 169.334 116.738ZM169.645 130.297C166.731 130.297 164.322 128.549 164.322 125.635C164.322 123.187 166.303 120.856 169.567 120.856C172.792 120.856 174.462 123.071 175.045 126.606C174.268 128.86 172.209 130.297 169.645 130.297ZM195.781 144.361C202.619 144.361 207.437 138.65 207.437 130.53C207.437 122.449 202.619 116.738 195.781 116.738C188.905 116.738 184.048 122.449 184.048 130.53C184.048 138.65 188.905 144.361 195.781 144.361ZM195.781 139.932C191.819 139.932 189.021 136.047 189.021 130.53C189.021 125.013 191.819 121.167 195.781 121.167C199.705 121.167 202.503 125.013 202.503 130.53C202.503 136.047 199.705 139.932 195.781 139.932ZM214.864 144.361C216.496 144.361 217.855 142.963 217.855 141.253C217.855 139.66 216.496 138.262 214.864 138.262C213.077 138.262 211.756 139.66 211.756 141.253C211.756 142.963 213.077 144.361 214.864 144.361ZM227.426 143.895H232.244V117.204H228.359L220.86 122.294L222.842 125.713L227.426 122.799V143.895ZM242.716 143.895H247.534V117.204H243.649L236.15 122.294L238.132 125.713L242.716 122.799V143.895Z" fill="#1D263A"/>
<rect opacity="0.1" x="262.657" y="117.395" width="73" height="31" rx="3.39506" fill="#05C168"/>
<path d="M286.499 138.444H288.887V127.362H286.983L283.66 129.588L284.612 131.266L286.499 130.088V138.444ZM290.839 138.444H299.211V136.299H294.517L296.533 134.734C298.469 133.331 299.114 132.185 299.114 130.701C299.114 128.621 297.404 127.169 295.049 127.169C293.259 127.169 291.855 127.943 290.759 129.33L292.275 130.798C293.081 129.879 293.904 129.33 294.985 129.33C295.888 129.33 296.662 129.879 296.662 130.798C296.662 131.573 296.243 132.298 294.92 133.347L290.839 136.509V138.444ZM302.362 138.638C303.152 138.638 303.798 137.96 303.798 137.138C303.798 136.38 303.152 135.702 302.362 135.702C301.523 135.702 300.862 136.38 300.862 137.138C300.862 137.96 301.523 138.638 302.362 138.638ZM310.573 131.282C309.525 131.282 308.525 131.669 307.831 132.331C308.041 130.459 309.025 129.266 310.46 129.266C311.38 129.266 312.041 129.605 312.719 130.169L313.848 128.362C312.945 127.637 311.832 127.169 310.444 127.169C307.379 127.169 305.363 129.637 305.363 133.089C305.363 136.315 306.831 138.638 310.073 138.638C312.493 138.638 314.316 137.073 314.316 134.799C314.316 132.605 312.622 131.282 310.573 131.282ZM309.944 136.622C308.702 136.622 308.105 135.863 307.896 134.508C308.218 133.718 308.96 133.218 309.88 133.218C310.96 133.218 311.864 133.847 311.864 134.912C311.864 135.799 311.122 136.622 309.944 136.622ZM318.39 132.928C320.035 132.928 321.165 131.685 321.165 130.088C321.165 128.524 320.084 127.249 318.406 127.249C316.745 127.249 315.632 128.508 315.632 130.105C315.632 131.685 316.745 132.928 318.39 132.928ZM317.083 138.444H318.793L326.504 127.362H324.794L317.083 138.444ZM318.406 131.54C317.745 131.54 317.229 130.96 317.229 130.088C317.229 129.217 317.713 128.653 318.39 128.653C319.084 128.653 319.584 129.234 319.584 130.088C319.584 130.976 319.084 131.54 318.406 131.54ZM325.165 138.622C326.778 138.622 327.924 137.38 327.924 135.783C327.924 134.218 326.827 132.944 325.165 132.944C323.52 132.944 322.391 134.202 322.391 135.783C322.391 137.364 323.504 138.622 325.165 138.622ZM325.165 137.218C324.471 137.218 323.971 136.638 323.971 135.783C323.971 134.896 324.455 134.331 325.165 134.331C325.827 134.331 326.343 134.912 326.343 135.783C326.343 136.654 325.859 137.218 325.165 137.218Z" fill="#05C168"/>
<path d="M275.222 132.777C275.448 132.505 275.865 132.505 276.091 132.777L279.883 137.327C280.19 137.696 279.928 138.255 279.448 138.255H271.865C271.385 138.255 271.123 137.696 271.43 137.327L275.222 132.777Z" fill="#05C168"/>
<defs>
<linearGradient id="paint0_linear_2305_25693" x1="192.748" y1="197.006" x2="192.748" y2="306.803" gradientUnits="userSpaceOnUse">
<stop stop-color="#46A6FF" stop-opacity="0.65"/>
<stop offset="1" stop-color="#46A6FF" stop-opacity="0"/>
</linearGradient>
</defs>
</svg>
