<?xml version="1.0" encoding="utf-8"?>
<!-- Generator: Adobe Illustrator 22.0.1, SVG Export Plug-In . SVG Version: 6.00 Build 0)  -->
<svg version="1.1" id="Layer_4" xmlns="http://www.w3.org/2000/svg" xmlns:xlink="http://www.w3.org/1999/xlink" x="0px" y="0px"
	 viewBox="0 0 702.6 97.1" style="enable-background:new 0 0 702.6 97.1;" xml:space="preserve">
<style type="text/css">
	.st0{fill:#63A9DD;}
	.st1{fill:#FFFFFF;}
</style>
<g>
	<g>
		<path class="st0" d="M128,22.5h8v42.4h-8V22.5z"/>
		<path class="st0" d="M167.3,28.2l-6,5.3c-2.1-2.9-4.2-4.4-6.4-4.4c-1.1,0-1.9,0.3-2.6,0.9c-0.7,0.6-1,1.2-1,1.9s0.2,1.4,0.7,2
			c0.7,0.8,2.6,2.7,5.9,5.4c3.1,2.6,4.9,4.2,5.6,4.9c1.6,1.7,2.8,3.2,3.5,4.7c0.7,1.5,1,3.2,1,4.9c0,3.5-1.2,6.3-3.6,8.6
			s-5.5,3.4-9.4,3.4c-3,0-5.7-0.7-7.9-2.2c-2.2-1.5-4.2-3.8-5.8-7l6.8-4.1c2,3.7,4.4,5.6,7,5.6c1.4,0,2.6-0.4,3.5-1.2
			c0.9-0.8,1.4-1.7,1.4-2.8c0-1-0.4-1.9-1.1-2.9c-0.7-1-2.3-2.4-4.7-4.4c-4.6-3.8-7.6-6.7-8.9-8.7c-1.3-2-2-4.1-2-6.1
			c0-2.9,1.1-5.5,3.4-7.6c2.2-2.1,5-3.2,8.3-3.2c2.1,0,4.1,0.5,6,1.5C163,23.9,165.1,25.6,167.3,28.2z"/>
		<path class="st0" d="M195.8,21.4c6,0,11.2,2.2,15.5,6.5c4.3,4.3,6.5,9.6,6.5,15.9c0,6.2-2.1,11.4-6.4,15.7
			c-4.3,4.3-9.4,6.4-15.5,6.4c-6.4,0-11.7-2.2-15.9-6.6c-4.2-4.4-6.3-9.6-6.3-15.7c0-4.1,1-7.8,2.9-11.2c2-3.4,4.7-6.1,8.1-8.1
			C188.1,22.4,191.8,21.4,195.8,21.4z M195.7,29.3c-3.9,0-7.2,1.4-9.9,4.1s-4,6.2-4,10.4c0,4.7,1.7,8.4,5,11.1
			c2.6,2.1,5.6,3.2,9,3.2c3.8,0,7.1-1.4,9.8-4.1c2.7-2.8,4-6.2,4-10.2c0-4-1.4-7.4-4.1-10.2C202.9,30.7,199.6,29.3,195.7,29.3z"/>
		<path class="st1" d="M237.6,57l3.6-2.2c2.5,4.7,5.5,7,8.8,7c1.4,0,2.8-0.3,4-1c1.2-0.7,2.2-1.6,2.9-2.7c0.7-1.1,1-2.3,1-3.5
			c0-1.4-0.5-2.8-1.4-4.2c-1.3-1.9-3.7-4.1-7.3-6.8c-3.5-2.7-5.7-4.6-6.6-5.8c-1.5-2-2.2-4.2-2.2-6.5c0-1.8,0.4-3.5,1.3-5
			c0.9-1.5,2.1-2.7,3.7-3.6s3.3-1.3,5.2-1.3c2,0,3.9,0.5,5.6,1.5c1.7,1,3.6,2.8,5.5,5.5l-3.5,2.6c-1.6-2.1-3-3.5-4.1-4.2
			s-2.3-1-3.7-1c-1.7,0-3.1,0.5-4.2,1.6s-1.6,2.3-1.6,3.8c0,0.9,0.2,1.8,0.6,2.7s1.1,1.8,2.1,2.8c0.6,0.5,2.4,2,5.5,4.2
			c3.7,2.7,6.2,5.1,7.6,7.2c1.4,2.1,2,4.2,2,6.4c0,3.1-1.2,5.7-3.5,8c-2.3,2.3-5.2,3.4-8.5,3.4c-2.6,0-4.9-0.7-7-2.1
			C241.3,62.5,239.4,60.2,237.6,57z"/>
		<path class="st1" d="M274.2,21.9h4v11.6h6.4V37h-6.4v27.9h-4V37h-5.5v-3.5h5.5V21.9z"/>
		<path class="st1" d="M317.1,54.5l3.4,1.8c-1.1,2.2-2.4,4-3.9,5.3c-1.5,1.3-3.1,2.4-4.9,3.1s-3.9,1.1-6.2,1.1c-5.1,0-9.1-1.7-12-5
			c-2.9-3.4-4.3-7.1-4.3-11.4c0-4,1.2-7.5,3.7-10.6c3.1-4,7.2-5.9,12.4-5.9c5.3,0,9.6,2,12.8,6.1c2.3,2.9,3.4,6.4,3.5,10.7h-28.2
			c0.1,3.6,1.2,6.6,3.5,9c2.3,2.3,5,3.5,8.3,3.5c1.6,0,3.1-0.3,4.7-0.8c1.5-0.6,2.8-1.3,3.9-2.2C314.7,58,315.9,56.5,317.1,54.5z
			 M317.1,46c-0.5-2.2-1.3-3.9-2.4-5.2c-1-1.3-2.4-2.3-4.1-3.1c-1.7-0.8-3.5-1.2-5.3-1.2c-3.1,0-5.7,1-7.9,3
			c-1.6,1.4-2.8,3.6-3.7,6.5H317.1z"/>
		<path class="st1" d="M329.1,33.5h4v5.8c1.6-2.2,3.4-3.8,5.5-4.9c2.1-1.1,4.4-1.6,6.9-1.6c4.5,0,8.3,1.6,11.4,4.8s4.8,7.1,4.8,11.6
			c0,4.6-1.6,8.5-4.7,11.7s-6.9,4.8-11.4,4.8c-2.5,0-4.8-0.5-6.9-1.6s-4-2.6-5.7-4.6v16.9h-4V33.5z M345.3,36.6
			c-3.5,0-6.4,1.2-8.8,3.7c-2.4,2.4-3.6,5.5-3.6,9.1c0,2.4,0.5,4.5,1.6,6.4s2.6,3.4,4.6,4.5c2,1.1,4.1,1.7,6.3,1.7
			c2.2,0,4.2-0.6,6.1-1.7c1.9-1.1,3.4-2.7,4.6-4.7c1.1-2,1.7-4.1,1.7-6.3c0-2.2-0.6-4.3-1.7-6.3c-1.1-2-2.6-3.5-4.5-4.6
			C349.6,37.1,347.5,36.6,345.3,36.6z"/>
		<path class="st1" d="M385.1,36.9l-2.6,2.7c-2.2-2.1-4.3-3.1-6.3-3.1c-1.3,0-2.4,0.4-3.4,1.3c-0.9,0.9-1.4,1.9-1.4,3
			c0,1,0.4,2,1.2,2.9c0.8,0.9,2.4,2,4.9,3.3c3,1.6,5,3.1,6.1,4.5c1.1,1.5,1.6,3.1,1.6,4.9c0,2.6-0.9,4.8-2.7,6.5
			c-1.8,1.8-4.1,2.7-6.8,2.7c-1.8,0-3.5-0.4-5.2-1.2c-1.6-0.8-3-1.9-4.1-3.3l2.5-2.9c2.1,2.3,4.2,3.5,6.6,3.5c1.6,0,3-0.5,4.1-1.6
			c1.1-1,1.7-2.3,1.7-3.7c0-1.2-0.4-2.2-1.1-3.1c-0.8-0.9-2.4-2-5.1-3.3c-2.8-1.5-4.8-2.9-5.8-4.3c-1-1.4-1.5-3-1.5-4.9
			c0-2.4,0.8-4.4,2.4-5.9s3.7-2.4,6.2-2.4C379.3,32.7,382.2,34.1,385.1,36.9z"/>
		<path class="st1" d="M412.1,21.9h4v11.6h6.4V37h-6.4v27.9h-4V37h-5.5v-3.5h5.5V21.9z"/>
		<path class="st1" d="M443.4,32.7c4.8,0,8.8,1.7,12,5.2c2.9,3.2,4.3,7,4.3,11.3c0,4.4-1.5,8.2-4.6,11.5c-3,3.3-7,4.9-11.8,4.9
			c-4.8,0-8.7-1.6-11.8-4.9c-3.1-3.3-4.6-7.1-4.6-11.5c0-4.3,1.4-8.1,4.3-11.3C434.6,34.5,438.6,32.7,443.4,32.7z M443.4,36.6
			c-3.4,0-6.2,1.2-8.6,3.7c-2.4,2.5-3.6,5.5-3.6,9c0,2.3,0.5,4.4,1.6,6.3c1.1,2,2.6,3.5,4.5,4.5c1.9,1.1,3.9,1.6,6.2,1.6
			c2.2,0,4.3-0.5,6.2-1.6c1.9-1.1,3.4-2.6,4.5-4.5c1.1-2,1.6-4.1,1.6-6.3c0-3.5-1.2-6.5-3.6-9C449.6,37.9,446.7,36.6,443.4,36.6z"/>
		<path class="st1" d="M479.8,57l3.6-2.2c2.5,4.7,5.5,7,8.8,7c1.4,0,2.8-0.3,4-1c1.2-0.7,2.2-1.6,2.9-2.7c0.7-1.1,1-2.3,1-3.5
			c0-1.4-0.5-2.8-1.4-4.2c-1.3-1.9-3.7-4.1-7.3-6.8c-3.5-2.7-5.7-4.6-6.6-5.8c-1.5-2-2.2-4.2-2.2-6.5c0-1.8,0.4-3.5,1.3-5
			c0.9-1.5,2.1-2.7,3.7-3.6c1.6-0.9,3.3-1.3,5.2-1.3c2,0,3.9,0.5,5.6,1.5c1.7,1,3.6,2.8,5.5,5.5l-3.5,2.6c-1.6-2.1-3-3.5-4.1-4.2
			s-2.3-1-3.7-1c-1.7,0-3.1,0.5-4.2,1.6s-1.6,2.3-1.6,3.8c0,0.9,0.2,1.8,0.6,2.7c0.4,0.9,1.1,1.8,2.1,2.8c0.6,0.5,2.4,2,5.5,4.2
			c3.7,2.7,6.2,5.1,7.6,7.2c1.4,2.1,2,4.2,2,6.4c0,3.1-1.2,5.7-3.5,8c-2.3,2.3-5.2,3.4-8.5,3.4c-2.6,0-4.9-0.7-7-2.1
			C483.5,62.5,481.6,60.2,479.8,57z"/>
		<path class="st1" d="M512.4,33.5h4v14.6c0,3.6,0.2,6,0.6,7.4c0.6,1.9,1.7,3.4,3.3,4.6c1.6,1.1,3.6,1.7,5.8,1.7s4.2-0.5,5.7-1.6
			c1.6-1.1,2.7-2.5,3.2-4.3c0.4-1.2,0.6-3.8,0.6-7.7V33.5h4.1v15.4c0,4.3-0.5,7.6-1.5,9.8c-1,2.2-2.5,3.9-4.6,5.1
			c-2,1.2-4.6,1.9-7.6,1.9c-3.1,0-5.6-0.6-7.7-1.9c-2-1.2-3.6-3-4.6-5.2c-1-2.2-1.5-5.6-1.5-10V33.5z"/>
		<path class="st1" d="M579.3,40l-3.2,2c-2.8-3.7-6.5-5.5-11.3-5.5c-3.8,0-7,1.2-9.5,3.7c-2.5,2.5-3.8,5.4-3.8,9
			c0,2.3,0.6,4.4,1.7,6.4s2.8,3.6,4.8,4.7c2,1.1,4.3,1.7,6.8,1.7c4.6,0,8.4-1.8,11.3-5.5l3.2,2.1c-1.5,2.3-3.5,4-6,5.3
			c-2.5,1.2-5.4,1.9-8.6,1.9c-5,0-9.1-1.6-12.3-4.7s-4.9-7-4.9-11.5c0-3,0.8-5.9,2.3-8.5c1.5-2.6,3.6-4.6,6.3-6.1s5.7-2.2,9-2.2
			c2.1,0,4.1,0.3,6,1c1.9,0.6,3.6,1.5,4.9,2.5C577.2,37.1,578.3,38.4,579.3,40z"/>
		<path class="st1" d="M617.5,40l-3.2,2c-2.8-3.7-6.5-5.5-11.3-5.5c-3.8,0-7,1.2-9.5,3.7c-2.5,2.5-3.8,5.4-3.8,9
			c0,2.3,0.6,4.4,1.7,6.4c1.2,2,2.8,3.6,4.8,4.7c2,1.1,4.3,1.7,6.8,1.7c4.6,0,8.4-1.8,11.3-5.5l3.2,2.1c-1.5,2.3-3.5,4-6,5.3
			c-2.5,1.2-5.4,1.9-8.6,1.9c-5,0-9.1-1.6-12.3-4.7s-4.9-7-4.9-11.5c0-3,0.8-5.9,2.3-8.5c1.5-2.6,3.6-4.6,6.3-6.1s5.7-2.2,9-2.2
			c2.1,0,4.1,0.3,6,1c1.9,0.6,3.6,1.5,4.9,2.5C615.4,37.1,616.5,38.4,617.5,40z"/>
		<path class="st1" d="M651.6,54.5l3.4,1.8c-1.1,2.2-2.4,4-3.9,5.3c-1.5,1.3-3.1,2.4-4.9,3.1c-1.8,0.7-3.9,1.1-6.2,1.1
			c-5.1,0-9.1-1.7-12-5c-2.9-3.4-4.3-7.1-4.3-11.4c0-4,1.2-7.5,3.7-10.6c3.1-4,7.2-5.9,12.4-5.9c5.3,0,9.6,2,12.8,6.1
			c2.3,2.9,3.4,6.4,3.5,10.7h-28.2c0.1,3.6,1.2,6.6,3.5,9c2.3,2.3,5,3.5,8.3,3.5c1.6,0,3.1-0.3,4.7-0.8s2.8-1.3,3.9-2.2
			C649.2,58,650.4,56.5,651.6,54.5z M651.6,46c-0.5-2.2-1.3-3.9-2.4-5.2c-1-1.3-2.4-2.3-4.1-3.1c-1.7-0.8-3.5-1.2-5.3-1.2
			c-3.1,0-5.7,1-7.9,3c-1.6,1.4-2.8,3.6-3.7,6.5H651.6z"/>
		<path class="st1" d="M679.3,36.9l-2.6,2.7c-2.2-2.1-4.3-3.1-6.3-3.1c-1.3,0-2.4,0.4-3.4,1.3c-0.9,0.9-1.4,1.9-1.4,3
			c0,1,0.4,2,1.2,2.9c0.8,0.9,2.4,2,4.9,3.3c3,1.6,5,3.1,6.1,4.5c1.1,1.5,1.6,3.1,1.6,4.9c0,2.6-0.9,4.8-2.7,6.5
			c-1.8,1.8-4.1,2.7-6.8,2.7c-1.8,0-3.5-0.4-5.2-1.2c-1.6-0.8-3-1.9-4.1-3.3l2.5-2.9c2.1,2.3,4.2,3.5,6.6,3.5c1.6,0,3-0.5,4.1-1.6
			c1.1-1,1.7-2.3,1.7-3.7c0-1.2-0.4-2.2-1.1-3.1c-0.8-0.9-2.4-2-5.1-3.3c-2.8-1.5-4.8-2.9-5.8-4.3c-1-1.4-1.5-3-1.5-4.9
			c0-2.4,0.8-4.4,2.4-5.9c1.6-1.6,3.7-2.4,6.2-2.4C673.5,32.7,676.4,34.1,679.3,36.9z"/>
		<path class="st1" d="M702.2,36.9l-2.6,2.7c-2.2-2.1-4.3-3.1-6.3-3.1c-1.3,0-2.4,0.4-3.4,1.3c-0.9,0.9-1.4,1.9-1.4,3
			c0,1,0.4,2,1.2,2.9c0.8,0.9,2.4,2,4.9,3.3c3,1.6,5,3.1,6.1,4.5c1.1,1.5,1.6,3.1,1.6,4.9c0,2.6-0.9,4.8-2.7,6.5
			c-1.8,1.8-4.1,2.7-6.8,2.7c-1.8,0-3.5-0.4-5.2-1.2c-1.6-0.8-3-1.9-4.1-3.3l2.5-2.9c2.1,2.3,4.2,3.5,6.6,3.5c1.6,0,3-0.5,4.1-1.6
			c1.1-1,1.7-2.3,1.7-3.7c0-1.2-0.4-2.2-1.1-3.1c-0.8-0.9-2.4-2-5.1-3.3c-2.8-1.5-4.8-2.9-5.8-4.3c-1-1.4-1.5-3-1.5-4.9
			c0-2.4,0.8-4.4,2.4-5.9c1.6-1.6,3.7-2.4,6.2-2.4C696.4,32.7,699.3,34.1,702.2,36.9z"/>
	</g>
	<g>
		<polygon class="st0" points="38.2,65 36.8,58 28.8,72 37.2,69.7 39.4,78.1 47,65 44.3,60.9 		"/>
		<path class="st0" d="M48.5,0.4C21.9,0.4,0.4,22,0.4,48.6c0,26.6,21.6,48.2,48.2,48.2c26.6,0,48.2-21.6,48.2-48.2
			C96.7,22,75.1,0.4,48.5,0.4z M73,50.6L65.8,52l1.4,7.2l-4.4-0.9l9.8,16.9l-11.2-3l-3,11.2l-9.7-16.8L48.4,67l-0.1-0.2l-9.6,16.6
			l-3-11.2l-11.2,3l9.8-17l-4.8,1L31,52l-7.2-1.4l4.1-6.1l-6.1-4.1l6.1-4.1l-4.1-6.1l7.2-1.4l-1.4-7.2l7.2,1.4l1.4-7.2l6.1,4.1
			l4.1-6.1l4.1,6.1l6.1-4.1L60,23l7.2-1.4l-1.4,7.2l7.2,1.4l-4.1,6.1l6.1,4.1l-6.1,4.1L73,50.6z"/>
		<path class="st0" d="M62.7,40.4c0-7.9-6.4-14.4-14.4-14.4C40.5,26,34,32.4,34,40.4s6.4,14.4,14.4,14.4
			C56.3,54.7,62.7,48.3,62.7,40.4z M48.4,50.6c-5.7,0-10.3-4.6-10.3-10.3s4.6-10.3,10.3-10.3s10.3,4.6,10.3,10.3S54,50.6,48.4,50.6z
			"/>
		<polygon class="st0" points="60,57.8 58.6,65 52.5,60.9 49.9,64.7 57.6,78.1 59.9,69.7 68.3,72 60.1,57.8 		"/>
	</g>
</g>
</svg>
