<svg width="88" height="100" viewBox="0 0 88 100" fill="none" xmlns="http://www.w3.org/2000/svg">
<path d="M85.0972 92.3486C85.1282 92.3486 72.6456 99.5389 72.6456 99.5389C73.3039 98.9922 73.8169 98.2913 74.1391 97.4985C74.4613 96.7058 74.5825 95.8456 74.4922 94.9947V57.062H74.6314L87.2224 49.2372V49.0928V87.6289C87.3421 88.5354 87.2067 89.4573 86.8313 90.2911C86.4559 91.1249 85.8553 91.8374 85.0972 92.3486Z" fill="url(#paint0_linear_2226_15251)"/>
<path d="M33.2338 55.5353L38.5621 55.7313L74.4727 57.0621V87.8662V94.9947C74.5655 95.8451 74.4452 96.7052 74.1229 97.4976C73.8005 98.2899 73.2862 98.9897 72.6261 99.5339C72.0319 99.8711 71.3534 100.03 70.6712 99.993C69.9889 99.9555 69.3318 99.7227 68.7782 99.3224L6.43747 63.1538C4.70567 61.8986 3.29091 60.2564 2.30586 58.358C1.32081 56.4595 0.792717 54.3573 0.763611 52.2186V15.0391L5.96814 21.528L33.2338 55.5353Z" fill="url(#paint1_linear_2226_15251)"/>
<path d="M74.6377 57.0681H74.4985V55.1235C74.4818 53.7274 74.2415 52.3429 73.7867 51.0228L86.5117 43.6055C86.9785 44.9427 87.2258 46.3466 87.2441 47.7629V49.2484L74.6377 57.0681Z" fill="#0070F2"/>
<path d="M68.7862 44.1826L13.4966 12.1044L6.44548 8.014C5.89627 7.61842 5.24621 7.38671 4.57062 7.34563C3.89502 7.30454 3.22163 7.45578 2.62854 7.7819L14.7758 0.885575C15.3791 0.357223 16.1425 0.0470295 16.9433 0.00493058C17.7441 -0.0371683 18.5358 0.191282 19.1912 0.65347L81.5319 36.822C83.9106 38.449 85.6616 40.8406 86.494 43.5997L73.7689 51.0171C72.9416 48.2346 71.1822 45.8214 68.7862 44.1826V44.1826Z" fill="url(#paint2_linear_2226_15251)"/>
<path d="M6.44421 8.01398L13.4953 12.1043L68.7849 44.1826C71.1809 45.8214 72.9403 48.2346 73.7677 51.017C74.2224 52.3371 74.4628 53.7216 74.4795 55.1177V57.0623L38.5689 55.7315L33.2406 55.5356L5.96969 21.5282L0.765159 15.0393V12.3416C0.672506 11.4853 0.795782 10.6194 1.12374 9.82288C1.45171 9.0264 1.97391 8.3247 2.6427 7.78187C3.23398 7.4589 3.90442 7.30934 4.5769 7.35041C5.24939 7.39147 5.89662 7.62147 6.44421 8.01398V8.01398Z" fill="url(#paint3_linear_2226_15251)"/>
<defs>
<linearGradient id="paint0_linear_2226_15251" x1="80.6077" y1="49.2899" x2="59.1155" y2="61.153" gradientUnits="userSpaceOnUse">
<stop stop-color="#73C4FF"/>
<stop offset="0.473958" stop-color="#63BBFF"/>
<stop offset="1" stop-color="#4199FE"/>
</linearGradient>
<linearGradient id="paint1_linear_2226_15251" x1="33.7333" y1="24.1385" x2="11.9676" y2="74.9615" gradientUnits="userSpaceOnUse">
<stop stop-color="#8FD0FF"/>
<stop offset="0.473958" stop-color="#68C0FF"/>
<stop offset="1" stop-color="#3E97FE"/>
</linearGradient>
<linearGradient id="paint2_linear_2226_15251" x1="32.3798" y1="-2.46075e-07" x2="47.7455" y2="27.7621" gradientUnits="userSpaceOnUse">
<stop stop-color="#0094FF"/>
<stop offset="0.473958" stop-color="#008BEF"/>
<stop offset="1" stop-color="#0070F2"/>
</linearGradient>
<linearGradient id="paint3_linear_2226_15251" x1="48.2028" y1="20.2529" x2="22.98" y2="51.8403" gradientUnits="userSpaceOnUse">
<stop stop-color="#0094FF"/>
<stop offset="0.473958" stop-color="#0082F2"/>
<stop offset="0.994792" stop-color="#0070F2"/>
<stop offset="1" stop-color="#0070F2"/>
<stop offset="1" stop-color="#0070F2"/>
</linearGradient>
</defs>
</svg>
