<svg width="292" height="226" viewBox="0 0 292 226" fill="none" xmlns="http://www.w3.org/2000/svg">
<rect width="292" height="226" fill="white"/>
<path d="M31.3916 45H34.3999V40.4364H37.7152C40.7645 40.4364 43.0156 38.4717 43.0156 35.6885C43.0156 32.9053 40.7645 30.9407 37.7152 30.9407H31.3916V45ZM34.3999 37.6736V33.7034H37.3878C38.8817 33.7034 39.905 34.4811 39.905 35.6885C39.905 36.8959 38.8817 37.6736 37.3878 37.6736H34.3999ZM50.0177 45.2456C53.1489 45.2456 55.7683 42.7079 55.7683 39.6996C55.7683 36.6913 53.1489 34.1741 50.0177 34.1741C46.8662 34.1741 44.2262 36.6913 44.2262 39.6996C44.2262 42.7079 46.8662 45.2456 50.0177 45.2456ZM50.0177 42.7284C48.4215 42.7284 47.0913 41.3368 47.0913 39.6996C47.0913 38.0624 48.4215 36.6913 50.0177 36.6913C51.5935 36.6913 52.9237 38.0624 52.9237 39.6996C52.9237 41.3368 51.5935 42.7284 50.0177 42.7284ZM60.7779 36.3843V34.4197H57.79V45H60.7779V39.9452C60.7779 37.9601 62.19 36.6913 64.4002 36.6913V34.1741C62.7835 34.1741 61.4737 35.0132 60.7779 36.3843ZM71.6903 42.3805C71.4856 42.5852 71.0763 42.7284 70.667 42.7284C70.1145 42.7284 69.6643 42.2373 69.6643 41.5415V36.8346H71.9563V34.4197H69.6643V31.5137H66.7992V34.4197H65.3462V36.8346H66.7992V42.0121C66.7992 43.9154 68.1089 45.2456 69.9712 45.2456C70.8307 45.2456 71.7926 44.8772 72.4065 44.3247L71.6903 42.3805ZM77.8182 33.8467C77.8182 33.1509 78.2684 32.6597 78.821 32.6597C79.2303 32.6597 79.6395 32.803 79.8442 33.0076L80.5605 31.1863C79.9465 30.6337 78.9847 30.2654 78.1252 30.2654C76.2629 30.2654 74.9531 31.5956 74.9531 33.4988V34.4197H73.5001V36.8346H74.9531V45H77.8182V36.8346H80.1102V34.4197H77.8182V33.8467ZM87.2301 45.2456C90.3612 45.2456 92.9807 42.7079 92.9807 39.6996C92.9807 36.6913 90.3612 34.1741 87.2301 34.1741C84.0785 34.1741 81.4385 36.6913 81.4385 39.6996C81.4385 42.7079 84.0785 45.2456 87.2301 45.2456ZM87.2301 42.7284C85.6338 42.7284 84.3036 41.3368 84.3036 39.6996C84.3036 38.0624 85.6338 36.6913 87.2301 36.6913C88.8058 36.6913 90.1361 38.0624 90.1361 39.6996C90.1361 41.3368 88.8058 42.7284 87.2301 42.7284ZM95.0024 45H97.9902V30.6951H95.0024V45ZM102.092 32.9667C102.972 32.9667 103.688 32.23 103.688 31.3295C103.688 30.4905 102.972 29.7333 102.092 29.7333C101.171 29.7333 100.455 30.4905 100.455 31.3295C100.455 32.23 101.171 32.9667 102.092 32.9667ZM100.578 45H103.566V34.4197H100.578V45ZM111.372 45.2456C114.503 45.2456 117.123 42.7079 117.123 39.6996C117.123 36.6913 114.503 34.1741 111.372 34.1741C108.221 34.1741 105.581 36.6913 105.581 39.6996C105.581 42.7079 108.221 45.2456 111.372 45.2456ZM111.372 42.7284C109.776 42.7284 108.446 41.3368 108.446 39.6996C108.446 38.0624 109.776 36.6913 111.372 36.6913C112.948 36.6913 114.278 38.0624 114.278 39.6996C114.278 41.3368 112.948 42.7284 111.372 42.7284ZM130.058 45.2456C133.189 45.2456 135.809 42.7079 135.809 39.6996C135.809 36.6913 133.189 34.1741 130.058 34.1741C126.907 34.1741 124.267 36.6913 124.267 39.6996C124.267 42.7079 126.907 45.2456 130.058 45.2456ZM130.058 42.7284C128.462 42.7284 127.132 41.3368 127.132 39.6996C127.132 38.0624 128.462 36.6913 130.058 36.6913C131.634 36.6913 132.964 38.0624 132.964 39.6996C132.964 41.3368 131.634 42.7284 130.058 42.7284ZM140.871 45H143.634L148.157 34.4197H145.046L142.263 41.5619L139.418 34.4197H136.287L140.871 45ZM154.076 42.6056C152.827 42.6056 151.906 41.828 151.558 40.6819H159.192C159.192 36.6913 157.248 34.1741 153.932 34.1741C150.842 34.1741 148.489 36.4867 148.489 39.6792C148.489 42.9331 150.944 45.2456 154.096 45.2456C155.651 45.2456 157.473 44.5907 158.414 43.6084L156.511 41.6642C155.938 42.2168 154.915 42.6056 154.076 42.6056ZM154.055 36.8141C155.262 36.8141 156.04 37.4894 156.327 38.5331H151.599C151.988 37.469 152.93 36.8141 154.055 36.8141ZM164.201 36.3843V34.4197H161.213V45H164.201V39.9452C164.201 37.9601 165.613 36.6913 167.823 36.6913V34.1741C166.207 34.1741 164.897 35.0132 164.201 36.3843ZM173.087 45H175.85L180.373 34.4197H177.262L174.479 41.5619L171.634 34.4197H168.503L173.087 45ZM183.452 32.9667C184.332 32.9667 185.048 32.23 185.048 31.3295C185.048 30.4905 184.332 29.7333 183.452 29.7333C182.531 29.7333 181.814 30.4905 181.814 31.3295C181.814 32.23 182.531 32.9667 183.452 32.9667ZM181.937 45H184.925V34.4197H181.937V45ZM192.527 42.6056C191.279 42.6056 190.358 41.828 190.01 40.6819H197.643C197.643 36.6913 195.699 34.1741 192.384 34.1741C189.293 34.1741 186.94 36.4867 186.94 39.6792C186.94 42.9331 189.396 45.2456 192.547 45.2456C194.103 45.2456 195.924 44.5907 196.865 43.6084L194.962 41.6642C194.389 42.2168 193.366 42.6056 192.527 42.6056ZM192.506 36.8141C193.714 36.8141 194.492 37.4894 194.778 38.5331H190.051C190.44 37.469 191.381 36.8141 192.506 36.8141ZM201.825 45H204.506L206.491 38.3489L208.456 45H211.137L214.739 34.4197H211.812L209.807 41.0094L207.719 34.4197H205.243L203.155 41.0094L201.15 34.4197H198.223L201.825 45Z" fill="#1D263A"/>
<path d="M156.201 137.57C156.201 172.419 127.95 200.67 93.1003 200.67C58.251 200.67 30 172.419 30 137.57C30 102.721 58.251 74.4697 93.1003 74.4697C127.95 74.4697 156.201 102.721 156.201 137.57ZM42.6201 137.57C42.6201 165.449 65.2208 188.05 93.1003 188.05C120.98 188.05 143.581 165.449 143.581 137.57C143.581 109.691 120.98 87.0898 93.1003 87.0898C65.2208 87.0898 42.6201 109.691 42.6201 137.57Z" fill="#D5D8DE"/>
<path d="M156.201 137.57C156.201 145.856 154.568 154.062 151.397 161.717C148.226 169.373 143.578 176.329 137.719 182.189C131.86 188.048 124.903 192.696 117.248 195.867C109.592 199.038 101.387 200.67 93.1003 200.67C84.8138 200.67 76.6085 199.038 68.9528 195.867C61.2972 192.696 54.341 188.048 48.4816 182.189C42.6222 176.329 37.9743 169.373 34.8032 161.717C31.6321 154.062 30 145.856 30 137.57L42.6201 137.57C42.6201 144.199 43.9258 150.763 46.4626 156.888C48.9995 163.012 52.7178 168.577 57.4054 173.265C62.0929 177.952 67.6578 181.671 73.7823 184.208C79.9069 186.745 86.4711 188.05 93.1003 188.05C99.7294 188.05 106.294 186.745 112.418 184.208C118.543 181.671 124.108 177.952 128.795 173.265C133.483 168.577 137.201 163.012 139.738 156.888C142.275 150.763 143.581 144.199 143.581 137.57H156.201Z" fill="#46A6FF"/>
<path d="M37.3534 148.406C33.9325 149.071 30.5869 146.836 30.2668 143.366C29.5491 135.587 30.2809 127.722 32.4443 120.177C35.1891 110.605 40.1602 101.819 46.9514 94.536C53.7426 87.2533 62.161 81.6812 71.5182 78.2753C78.8939 75.5907 86.6879 74.3121 94.4985 74.4852C97.9826 74.5624 100.445 77.744 100.021 81.203V81.203C99.596 84.6619 96.4418 87.0801 92.9569 87.09C87.1322 87.1065 81.3379 88.1312 75.8346 90.1343C68.3488 92.8589 61.6141 97.3166 56.1812 103.143C50.7482 108.969 46.7713 115.998 44.5755 123.656C42.9613 129.285 42.3434 135.137 42.7333 140.949C42.9665 144.426 40.7743 147.741 37.3534 148.406V148.406Z" fill="#FDCA49"/>
<path d="M31.1593 149.61C29.2593 139.835 29.6996 129.749 32.4443 120.177C35.1891 110.605 40.1602 101.819 46.9514 94.536C53.7426 87.2533 62.161 81.6812 71.5182 78.2753C80.8755 74.8695 90.906 73.7265 100.79 74.94L99.2517 87.466C91.3448 86.4952 83.3204 87.4096 75.8346 90.1343C68.3488 92.8589 61.6141 97.3166 56.1812 103.143C50.7482 108.969 46.7713 115.998 44.5755 123.656C42.3798 131.314 42.0275 139.382 43.5475 147.202L31.1593 149.61Z" fill="#FDCA49"/>
<path d="M136.933 92.1795C144.096 99.0968 149.521 107.611 152.763 117.026C156.005 126.442 156.972 136.491 155.587 146.352L143.089 144.595C144.198 136.707 143.424 128.667 140.83 121.135C138.237 113.603 133.897 106.791 128.167 101.258L136.933 92.1795Z" fill="#1D263A"/>
<path d="M91.999 74.4793C101.955 74.3056 111.811 76.4906 120.761 80.8558C129.712 85.221 137.501 91.6424 143.494 99.595L133.415 107.19C128.621 100.828 122.389 95.6908 115.229 92.1986C108.069 88.7065 100.184 86.9584 92.2193 87.0975L91.999 74.4793Z" fill="#A1A6B0"/>
<circle cx="191.161" cy="87.7086" r="6.21396" fill="#FDCA49"/>
<path d="M210.899 92.4313C212.408 92.4313 213.783 91.7887 214.77 90.7575L213.455 89.5321C212.812 90.2643 211.9 90.7276 210.899 90.7276C209.001 90.7276 207.402 89.0837 207.402 87.111C207.402 85.1533 209.001 83.5094 210.899 83.5094C211.885 83.5094 212.812 83.9727 213.44 84.705L214.77 83.4646C213.783 82.4484 212.408 81.8057 210.899 81.8057C207.97 81.8057 205.504 84.2267 205.504 87.111C205.504 89.9953 207.97 92.4313 210.899 92.4313ZM218.019 86.0201V84.5256H216.196V92.252H218.019V88.3514C218.019 86.8869 219.125 85.9005 220.784 85.9005V84.3463C219.514 84.3463 218.512 84.9889 218.019 86.0201ZM223.704 94.942C224.87 94.927 225.766 94.2545 226.349 92.79L229.622 84.5256H227.739L225.617 90.2942L223.36 84.5256H221.432L224.705 92.3117L224.376 92.9992C224.152 93.3728 223.823 93.5073 223.39 93.5073C223.106 93.5073 222.732 93.4027 222.404 93.2233L222.015 94.5385C222.478 94.7925 223.121 94.942 223.704 94.942ZM235.639 84.3463C234.488 84.3463 233.562 84.8694 232.949 85.7511V84.5256H231.126V94.8224H232.949V91.0265C233.562 91.9082 234.488 92.4313 235.639 92.4313C237.686 92.4313 239.181 90.7575 239.181 88.3813C239.181 86.0201 237.686 84.3463 235.639 84.3463ZM235.146 90.8771C233.861 90.8771 232.964 89.8309 232.964 88.3813C232.964 86.9317 233.861 85.9005 235.146 85.9005C236.446 85.9005 237.373 86.9317 237.373 88.3813C237.373 89.8309 236.446 90.8771 235.146 90.8771ZM244.686 90.5931C244.521 90.7575 244.237 90.8771 243.923 90.8771C243.49 90.8771 243.161 90.5034 243.161 89.9804V86.035H244.91V84.5256H243.161V82.4035H241.383V84.5256H240.262V86.035H241.383V90.2046C241.383 91.5047 242.28 92.4313 243.565 92.4313C244.148 92.4313 244.775 92.1922 245.209 91.8186L244.686 90.5931ZM250.36 92.4313C252.602 92.4313 254.5 90.5782 254.5 88.3813C254.5 86.1845 252.602 84.3463 250.36 84.3463C248.118 84.3463 246.22 86.1845 246.22 88.3813C246.22 90.5782 248.118 92.4313 250.36 92.4313ZM250.36 90.8771C249.075 90.8771 247.999 89.7413 247.999 88.3813C247.999 87.0363 249.075 85.9005 250.36 85.9005C251.63 85.9005 252.706 87.0363 252.706 88.3813C252.706 89.7413 251.63 90.8771 250.36 90.8771Z" fill="#1D263A"/>
<circle cx="191.161" cy="119.88" r="6.21396" fill="#46A6FF"/>
<path d="M209.689 125.831C212.139 125.831 213.544 124.531 213.544 122.693C213.544 120.824 212.11 120.137 209.973 119.659C208.344 119.285 207.581 118.986 207.581 118.149C207.581 117.432 208.284 116.804 209.315 116.804C210.331 116.804 211.362 117.238 212.259 118.015L213.275 116.64C212.244 115.758 211.019 115.205 209.39 115.205C207.223 115.205 205.698 116.52 205.698 118.314C205.698 120.242 207.178 120.854 209.3 121.348C210.944 121.736 211.676 122.02 211.676 122.872C211.676 123.604 211.019 124.232 209.748 124.232C208.403 124.232 207.312 123.694 206.371 122.842L205.295 124.172C206.431 125.233 207.925 125.831 209.689 125.831ZM219.043 124.008C218.879 124.172 218.595 124.292 218.281 124.292C217.848 124.292 217.519 123.918 217.519 123.395V119.45H219.268V117.94H217.519V115.818H215.741V117.94H214.62V119.45H215.741V123.619C215.741 124.919 216.637 125.846 217.923 125.846C218.505 125.846 219.133 125.607 219.567 125.233L219.043 124.008ZM224.718 125.846C226.96 125.846 228.857 123.993 228.857 121.796C228.857 119.599 226.96 117.761 224.718 117.761C222.476 117.761 220.578 119.599 220.578 121.796C220.578 123.993 222.476 125.846 224.718 125.846ZM224.718 124.292C223.433 124.292 222.357 123.156 222.357 121.796C222.357 120.451 223.433 119.315 224.718 119.315C225.988 119.315 227.064 120.451 227.064 121.796C227.064 123.156 225.988 124.292 224.718 124.292ZM234.16 125.846C235.385 125.846 236.417 125.338 237.164 124.546L235.938 123.485C235.505 123.978 234.847 124.292 234.175 124.292C232.905 124.292 231.844 123.156 231.844 121.796C231.844 120.451 232.905 119.315 234.175 119.315C234.832 119.315 235.475 119.629 235.894 120.092L237.119 119.016C236.387 118.254 235.356 117.761 234.19 117.761C231.933 117.761 230.035 119.599 230.035 121.796C230.035 123.993 231.933 125.846 234.16 125.846ZM245.89 117.94H243.738L240.39 121.602V115.22H238.567V125.667H240.39V123.739L241.481 122.588L243.663 125.667H245.785L242.707 121.392L245.89 117.94ZM249.843 125.846C251.651 125.846 252.877 124.889 252.877 123.41C252.877 121.796 251.472 121.348 250.172 120.989C248.991 120.645 248.588 120.496 248.588 120.003C248.588 119.569 249.081 119.315 249.724 119.315C250.396 119.315 251.188 119.554 251.92 120.017L252.683 118.687C251.846 118.134 250.785 117.761 249.724 117.761C248.005 117.761 246.809 118.747 246.809 120.197C246.824 121.572 247.885 122.05 249.559 122.483C250.441 122.722 251.113 122.917 251.113 123.514C251.113 123.993 250.605 124.307 249.873 124.307C248.902 124.307 248.035 123.948 247.288 123.41L246.466 124.68C247.392 125.427 248.662 125.846 249.843 125.846Z" fill="#1D263A"/>
<circle cx="191.161" cy="154.538" r="6.21396" fill="#1D263A"/>
<path d="M206.027 159.081H211.258C213.171 159.081 214.531 157.93 214.531 156.286C214.531 155.166 213.828 154.224 212.648 153.656C213.559 153.163 214.097 152.431 214.097 151.385C214.097 149.89 212.842 148.814 211.063 148.814H206.027V159.081ZM207.88 153.014V150.428H210.615C211.527 150.428 212.184 150.966 212.184 151.728C212.184 152.476 211.527 153.014 210.615 153.014H207.88ZM207.88 157.467V154.538H210.884C211.9 154.538 212.618 155.151 212.618 156.002C212.618 156.854 211.9 157.467 210.884 157.467H207.88ZM219.945 159.26C222.187 159.26 224.085 157.407 224.085 155.21C224.085 153.014 222.187 151.175 219.945 151.175C217.704 151.175 215.806 153.014 215.806 155.21C215.806 157.407 217.704 159.26 219.945 159.26ZM219.945 157.706C218.66 157.706 217.584 156.57 217.584 155.21C217.584 153.865 218.66 152.73 219.945 152.73C221.216 152.73 222.292 153.865 222.292 155.21C222.292 156.57 221.216 157.706 219.945 157.706ZM229.881 151.175C228.865 151.175 227.968 151.669 227.49 152.386V151.355H225.666V159.081H227.49V154.194C227.609 153.372 228.401 152.73 229.358 152.73C230.314 152.73 230.987 153.477 230.987 154.523V159.081H232.75V154.164C232.75 152.416 231.57 151.175 229.881 151.175ZM240.603 148.635V152.55C239.99 151.684 239.063 151.175 237.928 151.175C235.88 151.175 234.386 152.849 234.386 155.21C234.386 157.587 235.88 159.26 237.928 159.26C239.063 159.26 239.99 158.752 240.603 157.885V159.081H242.426V148.635H240.603ZM238.421 157.706C237.121 157.706 236.194 156.66 236.194 155.21C236.194 153.761 237.121 152.73 238.421 152.73C239.706 152.73 240.603 153.761 240.603 155.21C240.603 156.66 239.706 157.706 238.421 157.706ZM247.333 159.26C249.141 159.26 250.367 158.304 250.367 156.824C250.367 155.21 248.962 154.762 247.662 154.403C246.481 154.06 246.077 153.91 246.077 153.417C246.077 152.984 246.571 152.73 247.213 152.73C247.886 152.73 248.678 152.969 249.41 153.432L250.172 152.102C249.335 151.549 248.274 151.175 247.213 151.175C245.495 151.175 244.299 152.162 244.299 153.611C244.314 154.986 245.375 155.464 247.049 155.898C247.931 156.137 248.603 156.331 248.603 156.929C248.603 157.407 248.095 157.721 247.363 157.721C246.391 157.721 245.525 157.362 244.777 156.824L243.955 158.095C244.882 158.842 246.152 159.26 247.333 159.26Z" fill="#1D263A"/>
<circle cx="191.161" cy="186.71" r="6.21396" fill="#A1A6B0"/>
<path d="M213.619 183.932V182.229H205.893V192.496H213.619V190.792H207.761V188.117H213.066V186.413H207.761V183.932H213.619ZM218.173 192.496H220.026V183.932H223.314V182.229H214.885V183.932H218.173V192.496ZM232.635 183.932V182.229H224.909V192.496H226.777V188.236H232.082V186.533H226.777V183.932H232.635ZM237.058 192.675C238.867 192.675 240.092 191.718 240.092 190.239C240.092 188.625 238.687 188.177 237.387 187.818C236.207 187.474 235.803 187.325 235.803 186.832C235.803 186.398 236.296 186.144 236.939 186.144C237.611 186.144 238.403 186.383 239.136 186.847L239.898 185.517C239.061 184.964 238 184.59 236.939 184.59C235.22 184.59 234.025 185.576 234.025 187.026C234.04 188.401 235.101 188.879 236.775 189.312C237.656 189.552 238.329 189.746 238.329 190.344C238.329 190.822 237.821 191.136 237.088 191.136C236.117 191.136 235.25 190.777 234.503 190.239L233.681 191.509C234.608 192.256 235.878 192.675 237.058 192.675Z" fill="#1D263A"/>
</svg>
