<svg width="151" height="197" viewBox="0 0 151 197" fill="none" xmlns="http://www.w3.org/2000/svg">
<g clip-path="url(#clip0_262_546)">
<path d="M44.5714 128.272C44.5453 128.508 44.5682 128.746 44.6387 128.972C44.7092 129.199 44.8257 129.408 44.9809 129.587C47.8554 132.323 50.7851 134.998 53.7394 137.655C55.2938 139.054 56.8481 140.453 58.4134 141.84C59.1328 142.484 59.8522 143.127 60.5799 143.751C60.9948 144.102 61.4118 144.449 61.835 144.781C62.2724 145.126 62.7549 145.409 63.2691 145.622C63.5079 145.708 63.7652 145.728 64.0144 145.681C64.2636 145.633 64.4957 145.521 64.6869 145.354C64.9314 145.147 65.1007 144.864 65.1685 144.551C65.2364 144.237 65.199 143.91 65.0622 143.62C64.4907 142.693 63.779 141.859 62.9525 141.15C62.1029 140.336 61.2245 139.55 60.3528 138.761C58.7489 137.306 57.1319 135.868 55.5238 134.422C52.9047 132.065 50.3035 129.692 47.7463 127.271C47.4267 126.908 46.9812 126.682 46.5004 126.636C46.1289 126.608 45.7579 126.697 45.4394 126.89C45.1209 127.083 44.8708 127.371 44.724 127.714C44.6431 127.901 44.5945 128.101 44.5801 128.304" fill="white"/>
<path d="M21.9683 140.872C24.0182 142.959 26.1479 144.967 28.2567 147.023C30.5637 149.21 32.9327 151.334 35.3526 153.406C40.0478 157.373 45.1096 160.995 50.6913 163.593C50.9205 163.677 51.1643 163.712 51.4077 163.698C51.6511 163.684 51.8892 163.621 52.1073 163.512C52.5573 163.286 52.904 162.896 53.0762 162.423C53.2989 161.913 53.5216 161.402 53.7825 160.908C56.8701 154.869 61.2509 149.564 64.8576 143.82C65.1236 143.431 65.2242 142.953 65.1374 142.49C65.0505 142.027 64.7833 141.617 64.3945 141.351C64.0057 141.085 63.5272 140.985 63.0643 141.072C62.6013 141.158 62.1918 141.426 61.9259 141.814C59.916 145.017 57.6882 148.068 55.5401 151.17C53.699 153.781 52.0118 156.498 50.4871 159.306C44.7095 156.219 39.5433 152.12 34.666 147.749C33.0355 146.277 31.4217 144.767 29.8592 143.256C29.0613 142.48 28.2641 141.703 27.4676 140.924C28.3715 140.676 29.2606 140.377 30.1304 140.028C32.088 139.199 33.9605 138.181 35.7216 136.99C37.4765 135.858 39.1438 134.613 40.8363 133.403C41.6737 132.785 42.5493 132.184 43.4091 131.593C44.2689 131.002 45.1531 130.434 46.015 129.838C46.2583 129.633 46.4265 129.352 46.4933 129.041C46.5601 128.73 46.5217 128.406 46.3842 128.118C46.215 127.768 45.9142 127.498 45.5471 127.367C45.1833 127.259 44.7924 127.292 44.4512 127.457C42.6025 128.245 40.842 129.225 39.1991 130.382C37.5972 131.451 35.9786 132.557 34.3766 133.625L34.5798 133.498L34.3429 133.65L34.1919 133.749L34.3292 133.656C32.2475 135.033 30.0076 136.154 27.6578 136.996C26.4136 137.379 25.132 137.627 23.8349 137.738C23.7419 137.743 23.6489 137.748 23.5579 137.748C23.2354 137.722 22.9115 137.776 22.6147 137.904C22.3072 138.049 22.0444 138.274 21.8537 138.555C21.7906 138.648 21.7364 138.746 21.6918 138.848C21.5378 139.174 21.4802 139.537 21.5258 139.894C21.5714 140.251 21.7184 140.588 21.9493 140.864L21.9683 140.872ZM34.3399 133.592L34.3545 133.559L34.3071 133.589" fill="white"/>
<path d="M47.5262 153.182C47.5112 153.379 47.5355 153.578 47.5978 153.767C47.66 153.955 47.759 154.13 47.8889 154.28C48.0188 154.43 48.1771 154.553 48.3548 154.642C48.5324 154.73 48.7259 154.783 48.9239 154.796C49.3162 154.825 49.704 154.698 50.0038 154.444C51.6534 152.728 53.2522 150.963 54.8002 149.15C56.3858 147.316 57.8638 145.392 59.227 143.388C59.4193 143.1 59.4912 142.748 59.4271 142.408C59.363 142.068 59.1681 141.767 58.8842 141.568C58.5956 141.375 58.2431 141.3 57.9009 141.361C57.5722 141.446 57.2843 141.644 57.0884 141.922C55.0688 144.273 53.1146 146.671 51.0439 148.983L51.2071 148.805L50.9537 149.086C50.0114 150.118 49.0536 151.138 48.0804 152.145C47.9069 152.313 47.765 152.511 47.661 152.729C47.598 152.874 47.5611 153.029 47.5521 153.187L47.5262 153.182ZM50.9579 149.076L51.0481 148.974L50.9537 149.086L50.9579 149.076Z" fill="white"/>
<path d="M40.4767 151.278C40.6397 151.614 40.9283 151.873 41.2803 151.999C41.6323 152.125 42.0196 152.108 42.359 151.951C42.919 151.698 43.4623 151.409 43.9856 151.087C44.7564 150.622 45.509 150.121 46.2494 149.608C47.7905 148.536 49.2739 147.388 50.7419 146.21C52.0153 145.192 53.2801 144.141 54.4959 143.047C55.1338 142.503 55.7434 141.927 56.3222 141.321C56.5555 141.107 56.7027 140.816 56.7362 140.501C56.754 140.269 56.7025 140.037 56.5883 139.834C56.474 139.631 56.3022 139.467 56.0944 139.361C55.8866 139.256 55.6523 139.215 55.4211 139.243C55.1899 139.271 54.9723 139.367 54.7957 139.519C54.3536 139.894 53.9229 140.218 53.4653 140.563L50.6161 142.838C48.3346 144.643 46.0367 146.448 43.5973 148.043L43.7325 147.954C43.6772 147.987 43.6238 148.022 43.5725 148.061L43.4256 148.15L43.5567 148.071C42.7932 148.579 41.987 149.02 41.147 149.389C40.8398 149.521 40.5959 149.767 40.4671 150.075C40.384 150.265 40.342 150.47 40.3436 150.678C40.3452 150.885 40.3906 151.09 40.4767 151.278ZM43.5737 148.084L43.5571 148.122L43.5737 148.084Z" fill="white"/>
<path d="M36.7219 145.596C36.5877 145.977 36.6097 146.395 36.7829 146.759C36.9625 147.127 37.2798 147.411 37.6662 147.547C37.854 147.617 38.054 147.648 38.254 147.637C38.4539 147.627 38.6496 147.575 38.829 147.486C41.4336 145.838 43.9848 144.105 46.5144 142.316L50.1304 139.768C50.7197 139.355 51.3042 138.94 51.8792 138.52L52.8301 137.798L53.1881 137.511C53.3849 137.338 53.5676 137.15 53.7346 136.949C53.9132 136.684 53.9797 136.359 53.9195 136.045C53.8594 135.732 53.6774 135.455 53.4135 135.275C53.2839 135.182 53.1365 135.117 52.9807 135.085C52.8248 135.052 52.6639 135.052 52.508 135.084C52.3408 135.142 52.1688 135.198 51.9989 135.249L51.59 135.457C51.3198 135.595 51.0507 135.756 50.7865 135.919C50.2078 136.269 49.6414 136.63 49.0709 137C47.9092 137.749 46.7584 138.525 45.617 139.306C43.298 140.885 40.9864 142.473 38.6363 143.994L38.9631 143.778C38.4941 144.085 38.0157 144.388 37.5393 144.686L37.2076 144.899C37.0297 145.049 36.8888 145.239 36.7959 145.452L36.746 145.567" fill="white"/>
<path d="M29.6915 143.235C29.7601 143.584 29.962 143.892 30.2543 144.094C30.3991 144.194 30.5626 144.265 30.7352 144.301C30.9077 144.337 31.0858 144.338 31.2588 144.305C34.4045 143.377 37.4373 142.103 40.301 140.504C41.7221 139.721 43.0983 138.883 44.4688 137.981C45.8726 137.111 47.2188 136.152 48.4993 135.109C48.7232 134.915 48.8697 134.647 48.9119 134.354C48.954 134.061 48.8889 133.762 48.7286 133.514C48.5683 133.265 48.3235 133.082 48.0393 132.999C47.755 132.916 47.4504 132.939 47.1815 133.063C45.6565 133.954 44.2155 134.979 42.736 135.936L43.0291 135.746C39.5277 138.083 35.7486 139.976 31.7791 141.379C31.4489 141.484 31.1207 141.586 30.785 141.678C30.4381 141.753 30.1308 141.952 29.9213 142.239C29.7255 142.534 29.6502 142.894 29.7106 143.243L29.6915 143.235ZM31.5338 141.459L31.6598 141.417L31.5338 141.459Z" fill="white"/>
<path d="M47.1861 128.883C47.0727 129.244 47.1045 129.634 47.2748 129.971C47.4451 130.308 47.7404 130.565 48.0977 130.688C48.4549 130.81 48.8459 130.788 49.1871 130.626C49.5283 130.464 49.7928 130.176 49.9242 129.822C52.0248 123.059 54.6701 116.478 57.834 110.144C63.2042 99.6058 69.9275 89.8144 77.8335 81.0178C81.2622 77.2107 84.8655 73.5894 88.6433 70.1541C92.1548 66.9474 95.8795 63.9813 99.4955 60.8997C105.967 55.3873 112.302 49.6909 119.249 44.7553C120.361 43.9622 121.499 43.1912 122.647 42.4477C126.979 39.6153 131.64 37.3211 136.527 35.6157C137.637 35.2589 138.758 34.9411 139.886 34.6487C141.169 34.3108 142.462 34.068 143.726 33.6588C144.028 33.5998 144.302 33.4426 144.505 33.2118C144.709 32.9809 144.83 32.6894 144.851 32.3824C144.872 32.0143 144.749 31.6524 144.508 31.374C144.266 31.0955 143.925 30.9227 143.557 30.8925C141.439 30.8202 139.321 31.0564 137.27 31.5936C135.185 32.0885 133.139 32.7322 131.147 33.5196C127.163 35.1142 123.354 37.1164 119.782 39.4942C112.596 44.1439 106.152 49.8157 99.7533 55.4618C98.2152 56.8135 96.6702 58.168 95.1103 59.5046C93.3065 61.0358 91.5089 62.5528 89.6988 64.0984C85.7892 67.5406 82.051 71.1674 78.4841 74.9787C71.4658 82.4512 65.2902 90.6727 60.0685 99.4948C57.3362 104.147 54.8882 108.961 52.738 113.909C50.61 118.8 48.7491 123.803 47.1635 128.896" fill="white"/>
<path d="M60.8764 144.113C60.8027 144.323 60.7713 144.545 60.7838 144.768C60.7963 144.99 60.8526 145.208 60.9493 145.408C61.0461 145.609 61.1814 145.788 61.3476 145.936C61.5138 146.084 61.7076 146.198 61.9179 146.271C62.1231 146.343 62.3406 146.374 62.5577 146.361C62.7748 146.348 62.9872 146.293 63.1827 146.198C77.4081 137.679 90.5436 127.46 102.299 115.767C108.492 109.629 114.236 103.055 119.489 96.096C124.682 89.2097 129.244 81.8691 133.119 74.1633C136.358 67.7557 138.947 61.0402 140.849 54.117C141.788 50.6388 142.516 47.107 143.029 43.541C143.29 41.7611 143.475 39.9651 143.583 38.1528C143.718 36.3847 143.702 34.6084 143.535 32.843L143.544 32.7049C143.558 32.4078 143.457 32.1167 143.261 31.8926C143.066 31.6685 142.791 31.5289 142.495 31.5031C142.197 31.4825 141.903 31.5807 141.677 31.776C141.452 31.9714 141.312 32.2482 141.29 32.5458C141.273 33.1064 141.129 33.697 141.052 34.2654L140.827 35.9796C140.684 37.1274 140.539 38.2684 140.382 39.41C140.084 41.579 139.723 43.7395 139.3 45.8916C137.323 55.2998 134.128 64.4101 129.795 72.9923C123.7 85.0426 115.756 96.0706 106.755 106.121L106.843 106.023L106.57 106.324L106.547 106.377L106.562 106.343C95.3346 118.701 82.6104 129.611 68.6835 138.819C68.0285 139.253 67.3716 139.683 66.713 140.108C65.0672 141.155 63.4078 142.181 61.7349 143.186C61.3731 143.373 61.0826 143.673 60.9076 144.041L60.8556 144.161L60.8764 144.113ZM66.8902 139.975L67.0708 139.86L66.8902 139.975ZM106.578 106.305L106.764 106.102L106.565 106.322" fill="white"/>
<path d="M65.6003 90.0626C65.3212 90.8986 65.1073 91.755 64.9606 92.6241C64.6956 94.164 64.6813 95.7366 64.9183 97.2811C65.4272 100.307 66.7655 103.132 68.7844 105.443C70.8619 107.85 73.3909 109.827 76.2284 111.262C79.265 112.849 82.5534 113.899 85.948 114.364C89.1713 114.859 92.4608 114.71 95.6262 113.926C98.8222 113.138 101.751 111.512 104.11 109.217C106.697 106.558 108.484 103.224 109.265 99.5972C109.767 97.3716 110.021 95.0972 110.023 92.8155C110.041 91.4713 109.946 90.1121 109.838 88.7582C109.721 87.3764 109.472 86.0089 109.096 84.6741C108.406 82.1713 107.161 79.856 105.455 77.8996C103.817 76.1097 101.812 74.6948 99.5771 73.7518C97.3917 72.8337 95.0638 72.3011 92.6966 72.1776C90.2228 72.0347 87.7412 72.2396 85.3243 72.7864C80.3779 73.8305 75.8142 76.2155 72.1327 79.6801C70.2968 81.4307 68.7886 83.4954 67.6792 85.7767C67.3435 86.3121 67.0317 86.8578 66.7417 87.4188C66.546 87.8675 66.3075 88.2974 66.1118 88.7461C65.9162 89.1948 65.7476 89.5814 65.619 90.0196L65.6003 90.0626ZM69.9198 87.7648C70.7037 86.4969 71.595 85.2985 72.5837 84.1829C74.0643 82.5823 75.6774 81.1097 77.406 79.7809C77.5951 79.6339 77.7397 79.4374 77.8239 79.2132C79.5604 78.1775 81.4045 77.3339 83.3236 76.6973C85.3675 76.043 87.4809 75.6299 89.6208 75.4664C91.47 75.3621 93.3252 75.4823 95.1455 75.8245C96.5342 76.1247 97.8833 76.5852 99.1657 77.1968C100.205 77.7455 101.179 78.4102 102.068 79.1782C102.879 79.9397 103.6 80.7915 104.216 81.7169C104.849 82.743 105.365 83.8369 105.754 84.9779C106.287 86.7887 106.604 88.6563 106.697 90.5416C106.862 93.1353 106.709 95.7395 106.242 98.2962C105.9 99.9522 105.358 101.561 104.63 103.087C104.005 104.294 103.239 105.423 102.346 106.448C101.505 107.342 100.567 108.139 99.5489 108.825C98.3702 109.559 97.1102 110.153 95.7941 110.596C94.2086 111.076 92.5733 111.374 90.9201 111.482C88.826 111.581 86.7276 111.429 84.6697 111.029C82.315 110.537 80.0319 109.75 77.8747 108.685C76.0478 107.755 74.3424 106.603 72.7973 105.256C71.6537 104.215 70.6399 103.041 69.7779 101.757C69.2556 100.916 68.8116 100.028 68.4516 99.1057C68.6827 98.9751 68.8669 98.7751 68.9781 98.5341C69.0893 98.293 69.122 98.0231 69.0713 97.7625C68.8566 96.8248 68.7175 95.8713 68.6557 94.9113C68.5894 93.5528 68.6799 92.1912 68.9253 90.8534C69.1536 89.797 69.4836 88.7651 69.9108 87.7723L69.9198 87.7648ZM72.6492 84.0978L72.7442 83.9972L72.6492 84.0978ZM89.6289 75.4869C89.7219 75.4821 89.817 75.4724 89.9148 75.4696C89.8197 75.4793 89.7267 75.4841 89.6289 75.4869ZM98.9208 77.1071C98.959 77.1238 98.9972 77.1404 99.0306 77.155C99.064 77.1695 98.959 77.1238 98.9208 77.1071Z" fill="white"/>
<path d="M76.8931 90.9361C76.4551 93.3442 76.7216 95.8275 77.6606 98.0878C78.5702 100.31 80.0317 102.263 81.9067 103.762C83.7156 105.243 85.9133 106.17 88.2361 106.431C89.3972 106.554 90.5709 106.47 91.7024 106.182C92.3273 106.023 92.9379 105.812 93.5279 105.552C94.1867 105.246 94.8169 104.882 95.4111 104.464C96.6076 103.617 97.6652 102.589 98.5462 101.417C99.5211 100.175 100.264 98.7665 100.739 97.2604C101.196 95.7641 101.363 94.1946 101.233 92.6357C101.113 91.2309 100.765 89.855 100.203 88.5621C99.6394 87.263 98.8851 86.0552 97.965 84.9787C97.0415 83.8959 95.9661 82.9524 94.7722 82.1778C92.767 80.8465 90.4333 80.0944 88.0281 80.0041C86.8236 79.966 85.621 80.1269 84.4688 80.4801C83.8058 80.6753 83.1612 80.9284 82.5426 81.2366C81.9153 81.5698 81.3155 81.9522 80.7487 82.3803C80.5063 82.5872 80.3386 82.8681 80.2716 83.1796C80.2045 83.4912 80.2417 83.8161 80.3775 84.1045C80.3937 84.1434 80.4136 84.1806 80.437 84.2156C79.6293 85.0694 78.9236 86.0142 78.3345 87.0312C78.1142 87.4221 77.9142 87.8242 77.7354 88.2357C77.3568 89.1078 77.0723 90.0179 76.8869 90.9504L76.8931 90.9361ZM80.7605 88.998C81.2314 88.1131 81.8022 87.285 82.4615 86.53C82.6536 86.324 82.8462 86.1296 83.0547 85.9251C83.2928 85.723 83.4637 85.4531 83.5446 85.1513C83.6254 84.8496 83.6123 84.5304 83.507 84.2363C83.7168 84.146 83.9273 84.0673 84.1404 83.9955C84.875 83.7765 85.6302 83.6336 86.394 83.5693C87.1984 83.5422 88.0035 83.6 88.7958 83.7416C89.6695 83.9457 90.5186 84.2435 91.3284 84.63C92.1938 85.0826 93.0076 85.6279 93.7552 86.2563C94.4929 86.9481 95.1534 87.718 95.725 88.5525C96.209 89.3329 96.609 90.1624 96.9184 91.027C97.1308 91.7583 97.2717 92.5085 97.3392 93.267C97.3616 93.9883 97.3096 94.71 97.1842 95.4206C97.0073 96.1752 96.752 96.9092 96.4223 97.6107C95.9315 98.5127 95.3468 99.3602 94.6779 100.139C94.1003 100.76 93.4562 101.316 92.757 101.796C92.2244 102.119 91.6614 102.389 91.076 102.602C90.5244 102.764 89.9583 102.871 89.3858 102.922C88.7602 102.943 88.134 102.899 87.5178 102.789C86.8116 102.627 86.1251 102.388 85.4702 102.078C84.6994 101.667 83.9759 101.172 83.3126 100.603C82.6068 99.9411 81.9761 99.2031 81.4317 98.4028C80.9584 97.6404 80.5716 96.8277 80.2783 95.9797C80.0379 95.1898 79.8841 94.3761 79.8197 93.5529C79.7944 92.7815 79.8492 92.0096 79.9832 91.2495C80.1662 90.4658 80.4302 89.7032 80.7709 88.9741" fill="white"/>
<path d="M30.5065 104.289C32.025 106.161 33.3678 108.15 34.7943 110.09C36.2207 112.03 37.7331 114.007 39.2204 115.951C42.1971 119.834 45.2138 123.677 48.1121 127.622C48.3026 127.853 48.5581 128.021 48.8454 128.105C49.1327 128.189 49.4386 128.185 49.7235 128.093C50.0084 128.001 50.2592 127.826 50.4433 127.59C50.6274 127.354 50.7364 127.068 50.7562 126.769C50.7773 126.381 50.6524 125.998 50.406 125.696C47.7245 122.062 44.9578 118.492 42.2158 114.905C39.541 111.398 36.8376 107.879 34.3972 104.173C34.785 104.053 35.1734 103.943 35.568 103.82C36.7394 103.479 37.9299 103.146 39.1029 102.879C41.5019 102.289 43.9296 101.802 46.3586 101.339C48.7875 100.875 51.2783 100.479 53.7135 100.001C54.9429 99.7872 56.1425 99.5376 57.3423 99.2484C58.5634 98.9702 59.7623 98.6025 60.9294 98.1482C61.1984 98.034 61.4206 97.8317 61.5592 97.5744C61.6979 97.3171 61.7448 97.0203 61.6922 96.7328C61.6396 96.4454 61.4907 96.1844 61.27 95.9928C61.0493 95.8012 60.7699 95.6905 60.4779 95.679C59.2254 95.6899 57.9746 95.7743 56.732 95.9317C55.5031 96.0662 54.2738 96.2404 53.0548 96.4303C50.6106 96.8245 48.158 97.2379 45.6888 97.6894C43.2196 98.1409 40.8354 98.6579 38.4418 99.2617C37.2571 99.5556 36.0809 99.8816 34.9135 100.24C33.6096 100.616 32.326 101.06 31.0678 101.568C30.6957 101.727 30.3995 102.023 30.2414 102.395C30.1114 102.699 30.0661 103.032 30.1104 103.36C30.1547 103.687 30.2869 103.996 30.493 104.255" fill="white"/>
<path d="M61.8397 142.215L61.978 142.628C62.1064 142.902 62.3065 143.136 62.557 143.306C68.8674 148.898 75.0037 154.863 82.2888 159.21C82.6648 159.457 83.1208 159.552 83.5644 159.476C84.0084 159.389 84.4012 159.132 84.6602 158.761C88.2303 154.182 90.3786 148.643 91.7943 143.051C92.5388 140.079 93.114 137.068 93.5173 134.031C93.9102 131.146 94.1337 128.241 94.1867 125.33C94.2032 125.087 94.1478 124.844 94.0273 124.632C93.9068 124.419 93.7265 124.247 93.509 124.137C93.2914 124.026 93.0462 123.982 92.8037 124.009C92.5613 124.037 92.3323 124.136 92.1453 124.292C91.8949 124.515 91.7378 124.824 91.7057 125.157C90.9745 129.44 90.4168 133.742 89.5723 137.998C88.6902 142.698 87.2133 147.268 85.177 151.596C84.4789 152.957 83.6901 154.27 82.8158 155.526C76.1553 151.258 70.3848 145.731 64.4777 140.491C64.2951 140.361 64.0874 140.27 63.8678 140.224C63.6482 140.178 63.4216 140.178 63.2021 140.225C62.7587 140.309 62.3662 140.564 62.1083 140.935C62.059 141.029 62.0165 141.126 61.9814 141.226C61.8439 141.54 61.8028 141.888 61.8636 142.226L61.8397 142.215ZM85.2348 151.541L85.3201 151.346L85.2348 151.541Z" fill="white"/>
<path d="M8.60261 162.222C8.68461 162.391 8.79923 162.542 8.93985 162.667C9.08046 162.792 9.24431 162.887 9.42201 162.948C9.77037 163.063 10.1491 163.041 10.4823 162.888C12.7786 161.986 14.9989 160.881 17.2331 159.861C18.7815 159.15 20.338 158.46 21.929 157.847C21.7071 158.108 21.4826 158.362 21.2533 158.614L21.5398 158.296C19.9023 160.11 18.2106 161.867 16.6167 163.711C15.0704 165.429 13.7386 167.328 12.6508 169.367C12.4945 169.595 12.4015 169.86 12.3811 170.136C12.3608 170.411 12.4139 170.687 12.535 170.935C12.6551 171.189 12.8413 171.406 13.074 171.562C13.2427 171.684 13.435 171.769 13.6385 171.812C13.8419 171.854 14.0521 171.854 14.2554 171.811C15.3168 171.49 16.3521 171.089 17.3523 170.61C18.3209 170.126 19.2513 169.569 20.1354 168.943C21.7819 167.773 23.2918 166.421 24.6368 164.913C25.0072 164.506 25.3508 164.122 25.7218 163.727C24.7758 165.206 23.8154 166.679 22.8959 168.176C21.8524 169.868 20.901 171.615 20.0459 173.409C19.1512 175.286 18.4479 177.248 17.9468 179.266C17.9232 179.342 17.9246 179.424 17.9509 179.5C17.9772 179.575 18.027 179.64 18.0929 179.685C18.1588 179.731 18.2375 179.754 18.3174 179.751C18.3973 179.748 18.4742 179.72 18.537 179.671C19.4545 178.935 20.3388 178.144 21.1953 177.313C22.0519 176.483 22.9607 175.493 23.8091 174.55C25.4885 172.692 27.0848 170.764 28.7616 168.898C29.4095 168.181 30.0718 167.47 30.7516 166.784L30.5976 167.137C30.2232 168.178 29.8561 169.224 29.4962 170.275C28.76 172.42 28.0551 174.584 27.3394 176.72C27.2643 176.941 27.2477 177.177 27.2912 177.406C27.3347 177.635 27.4368 177.849 27.5876 178.027C27.7779 178.254 28.0385 178.411 28.3281 178.474C28.6177 178.536 28.9198 178.501 29.1868 178.372C29.6433 178.094 30.0896 177.8 30.5312 177.504C30.9756 177.202 31.3991 176.87 31.799 176.512C32.6661 175.744 33.4837 174.922 34.2467 174.051C35.7161 172.368 37.0517 170.572 38.2415 168.68C39.4741 166.752 40.5863 164.749 41.6676 162.738C42.749 160.727 43.7678 158.768 44.789 156.765L44.9388 156.421C45.017 156.192 45.0361 155.946 44.9946 155.707C44.9418 155.436 44.8104 155.187 44.6168 154.99C44.4232 154.793 44.1759 154.658 43.9058 154.6C43.6357 154.543 43.3547 154.567 43.0979 154.668C42.8411 154.77 42.6199 154.945 42.4618 155.171C40.6233 158.085 39.0737 161.17 37.3557 164.159C35.6957 167.166 33.7373 169.998 31.5103 172.614L31.0222 173.134C31.2027 172.485 31.388 171.839 31.578 171.195C31.8904 170.126 32.2102 169.067 32.5321 168.003C32.7031 167.442 32.881 166.877 33.0473 166.313C33.2343 165.769 33.3789 165.211 33.4797 164.644L33.6426 163.971C33.701 163.804 33.7027 163.621 33.6472 163.453C33.5918 163.284 33.4823 163.139 33.3358 163.039C33.1893 162.939 33.014 162.89 32.8368 162.899C32.6596 162.909 32.4906 162.977 32.3558 163.092C30.5512 164.964 28.8492 166.926 27.184 168.921C25.4637 170.977 23.7896 173.07 22.0033 175.07L22.0262 175.017C21.0237 176.131 19.9877 177.23 18.9063 178.264C19.4463 176.337 20.1787 174.47 21.0924 172.69C22.6479 169.786 24.3597 166.969 26.2205 164.251C27.1511 162.834 28.0742 161.407 28.9688 159.968L29.9832 158.28C30.6782 157.35 31.3638 156.416 32.0276 155.467C32.1533 155.316 32.2643 155.153 32.3588 154.981C32.5004 154.768 32.57 154.516 32.5575 154.261C32.5449 154.006 32.4508 153.762 32.2891 153.564C32.0893 153.33 31.8057 153.184 31.4991 153.156C31.1924 153.129 30.8873 153.222 30.649 153.417C29.3227 154.755 28.0802 156.173 26.9285 157.663C25.7393 159.088 24.5958 160.538 23.3694 161.917C21.9507 163.504 20.3726 164.94 18.6599 166.204C19.2146 165.531 19.8054 164.88 20.375 164.225L20.0837 164.541C21.3927 163.089 22.7336 161.669 24.0331 160.213C25.3266 158.822 26.5015 157.326 27.5457 155.74C27.6955 155.512 27.7842 155.249 27.8034 154.977C27.8226 154.705 27.7716 154.432 27.6553 154.186C27.5075 153.873 27.2603 153.619 26.9525 153.462C26.6447 153.305 26.2936 153.255 25.9541 153.319C24.8166 153.626 23.6962 153.976 22.5929 154.37C25.254 152.644 27.9274 150.93 30.5527 149.143C30.6927 149.03 30.8072 148.889 30.8889 148.729C30.9705 148.569 31.0173 148.393 31.0263 148.213C31.0464 147.865 30.9342 147.522 30.7123 147.253C30.5963 147.116 30.454 147.004 30.2939 146.924C30.1339 146.843 29.9593 146.796 29.7805 146.784C29.4329 146.769 29.0918 146.881 28.8199 147.098C25.5723 149.335 22.1941 151.441 18.8772 153.602C17.1882 154.7 15.5094 155.815 13.8509 156.96C12.1924 158.106 10.5616 159.293 8.95804 160.508C8.79389 160.632 8.66508 160.797 8.5844 160.987C8.50328 161.177 8.46242 161.381 8.46442 161.587C8.46642 161.793 8.51126 161.997 8.59604 162.185L8.60261 162.222ZM28.7093 168.836L28.7281 168.793L28.7093 168.836Z" fill="#DE9A16"/>
<path d="M71.1332 98.4961C71.2393 98.7189 71.3884 98.9184 71.572 99.0833C71.7556 99.2481 71.9699 99.3751 72.2028 99.4567C72.6614 99.6104 73.1616 99.5824 73.6003 99.3786C74.0462 99.156 74.3905 98.7718 74.5629 98.3042C74.6438 98.0779 74.6785 97.8376 74.6651 97.5976C74.6517 97.3577 74.5904 97.1228 74.4849 96.9069C74.2718 96.4673 73.8944 96.1293 73.4342 95.9658C72.974 95.8023 72.4679 95.8266 72.0253 96.0333C71.5788 96.2549 71.2342 96.6394 71.0627 97.1076C70.9829 97.3339 70.9493 97.574 70.9639 97.8135C70.9785 98.0531 71.041 98.2873 71.1476 98.5023" fill="white"/>
<path d="M72.6274 88.348C72.7591 88.6258 72.9443 88.8749 73.1723 89.081C73.4003 89.2871 73.6667 89.4462 73.9563 89.5493C74.2459 89.6523 74.553 89.6973 74.86 89.6815C75.167 89.6658 75.4679 89.5897 75.7454 89.4575C76.3057 89.1764 76.738 88.6927 76.9546 88.1044C77.0552 87.821 77.098 87.5203 77.0806 87.22C77.0633 86.9198 76.986 86.626 76.8534 86.3561C76.5873 85.7958 76.1099 85.3638 75.5258 85.1549C74.9417 84.9461 74.2987 84.9773 73.7376 85.2417C73.1763 85.5244 72.7433 86.0098 72.5263 86.5997C72.4263 86.8832 72.3837 87.1838 72.4011 87.484C72.4184 87.7842 72.4954 88.0779 72.6274 88.348Z" fill="white"/>
<path d="M86.4175 77.4606C86.5386 77.7171 86.7091 77.9472 86.9193 78.1377C87.1295 78.3282 87.3752 78.4754 87.6423 78.5708C87.9095 78.6661 88.1928 78.7078 88.4761 78.6935C88.7594 78.6791 89.0371 78.6091 89.2932 78.4872C89.8108 78.2271 90.2094 77.779 90.4074 77.2347C90.5019 76.9714 90.5425 76.6919 90.5266 76.4127C90.5107 76.1335 90.4388 75.8603 90.3151 75.6095C90.194 75.3529 90.0235 75.1228 89.8134 74.9323C89.6032 74.7418 89.3575 74.5947 89.0903 74.4993C88.8232 74.4039 88.5399 74.3622 88.2566 74.3765C87.9733 74.3909 87.6955 74.461 87.4394 74.5828C86.9218 74.8429 86.5232 75.291 86.3252 75.8353C86.2307 76.0985 86.1901 76.3781 86.206 76.6573C86.2219 76.9366 86.2938 77.2098 86.4175 77.4606Z" fill="white"/>
<path d="M97.3892 81.7045C97.8377 81.8529 98.326 81.824 98.7538 81.6236C99.1886 81.4053 99.5234 81.0289 99.6897 80.5716C99.8045 80.2345 99.8175 79.8711 99.7269 79.5267C99.6364 79.1823 99.4465 78.8722 99.1807 78.6352C98.915 78.3981 98.5853 78.2446 98.2329 78.1938C97.8804 78.143 97.5209 78.1971 97.199 78.3494C96.7649 78.5686 96.4303 78.9447 96.2631 79.4014C96.1082 79.8562 96.1398 80.3538 96.3508 80.7854C96.5618 81.217 96.9352 81.5474 97.3892 81.7045Z" fill="white"/>
<path d="M100.552 94.036C100.697 94.35 100.904 94.6318 101.159 94.8651C101.415 95.0984 101.714 95.2784 102.04 95.3946C102.366 95.5108 102.712 95.5609 103.058 95.5419C103.403 95.5229 103.741 95.4352 104.053 95.284C104.68 94.9683 105.164 94.4261 105.407 93.767C105.522 93.4466 105.572 93.1065 105.553 92.7666C105.534 92.4267 105.448 92.094 105.298 91.7881C104.998 91.1597 104.462 90.6757 103.806 90.4419C103.15 90.208 102.428 90.2433 101.798 90.5401C101.169 90.8569 100.684 91.4009 100.441 92.0619C100.326 92.3815 100.277 92.721 100.296 93.0602C100.315 93.3993 100.402 93.7312 100.552 94.036Z" fill="white"/>
<path d="M98.4272 103.313C98.5545 103.575 98.7329 103.81 98.9521 104.003C99.1713 104.197 99.4267 104.344 99.7035 104.437C100.246 104.621 100.838 104.588 101.357 104.346C101.881 104.076 102.283 103.619 102.484 103.065C102.579 102.796 102.619 102.511 102.603 102.227C102.586 101.943 102.513 101.665 102.387 101.409C102.266 101.144 102.092 100.906 101.877 100.708C101.662 100.511 101.409 100.359 101.135 100.261C100.86 100.163 100.568 100.121 100.277 100.137C99.9852 100.153 99.7 100.228 99.4379 100.356C98.9137 100.625 98.5111 101.083 98.3112 101.637C98.2164 101.905 98.1763 102.189 98.1932 102.473C98.2101 102.756 98.2837 103.033 98.4095 103.288" fill="white"/>
<path d="M88.402 112.178C88.5446 112.476 88.7449 112.743 88.9915 112.962C89.2381 113.182 89.5259 113.35 89.8381 113.458C90.4493 113.663 91.1158 113.626 91.7007 113.355C92.2949 113.057 92.7526 112.544 92.9802 111.919C93.0875 111.617 93.1333 111.296 93.1149 110.976C93.0965 110.656 93.0142 110.342 92.8729 110.054C92.591 109.462 92.0853 109.006 91.4672 108.787C90.8492 108.567 90.1692 108.602 89.577 108.884C88.9845 109.181 88.5276 109.693 88.2995 110.316C88.1921 110.617 88.1457 110.937 88.1633 111.257C88.1809 111.577 88.2621 111.89 88.402 112.178Z" fill="white"/>
<path d="M74.4187 107.076C74.5517 107.36 74.7396 107.614 74.9715 107.825C75.2034 108.036 75.4748 108.199 75.77 108.304C76.0652 108.41 76.3783 108.456 76.6913 108.44C77.0044 108.424 77.3111 108.346 77.5939 108.21C78.1669 107.925 78.6084 107.43 78.8272 106.828C78.9309 106.538 78.9755 106.229 78.9585 105.922C78.9415 105.614 78.8633 105.312 78.7284 105.035C78.4568 104.464 77.9695 104.024 77.3737 103.812C76.7779 103.601 76.1223 103.634 75.5511 103.905C74.9771 104.19 74.534 104.684 74.313 105.286C74.21 105.576 74.1662 105.884 74.1843 106.191C74.2025 106.499 74.2822 106.8 74.4187 107.076Z" fill="white"/>
</g>
<defs>
<clipPath id="clip0_262_546">
<rect width="186.633" height="83.1622" fill="white" transform="translate(0 171.815) rotate(-66.4415)"/>
</clipPath>
</defs>
</svg>
