<svg width="123" height="31" viewBox="0 0 123 31" fill="none" xmlns="http://www.w3.org/2000/svg">
<path d="M32.1182 11.6079H44.4807V13.9093H39.6131V26.8829H36.945V13.9093H32.0978L32.1182 11.6079ZM43.9512 15.8238H46.2322V17.9623H46.2729C46.3544 17.6568 46.497 17.3717 46.7006 17.0865C46.9043 16.8014 47.1487 16.5366 47.4542 16.3126C47.7393 16.0682 48.0652 15.8849 48.4318 15.7423C48.778 15.5998 49.1446 15.5183 49.5112 15.5183C49.7964 15.5183 50 15.5387 50.1019 15.5387C50.2037 15.559 50.3259 15.5794 50.4277 15.5794V17.9216C50.2648 17.8808 50.0815 17.8605 49.8982 17.8401C49.7149 17.8197 49.552 17.7994 49.3687 17.7994C48.9613 17.7994 48.5744 17.8808 48.2078 18.0438C47.8412 18.2067 47.5357 18.4511 47.2505 18.7566C46.9858 19.0824 46.7617 19.4694 46.5988 19.9378C46.4359 20.4063 46.3544 20.9562 46.3544 21.5672V26.8218H43.9104L43.9512 15.8238ZM61.6294 26.8829H59.2261V25.335H59.1854C58.8799 25.9053 58.4318 26.333 57.8412 26.6792C57.2505 27.0254 56.6396 27.1884 56.0286 27.1884C54.5825 27.1884 53.5235 26.8421 52.8717 26.1089C52.22 25.3961 51.8941 24.2963 51.8941 22.8503V15.8238H54.3381V22.6059C54.3381 23.5835 54.5214 24.2759 54.9084 24.6629C55.275 25.0702 55.8045 25.2739 56.4766 25.2739C56.9858 25.2739 57.4135 25.1924 57.7597 25.0295C58.1059 24.8666 58.3911 24.6629 58.5947 24.3981C58.8188 24.1334 58.9613 23.8075 59.0632 23.4409C59.165 23.0743 59.2057 22.667 59.2057 22.2393V15.8238H61.6497V26.8829H61.6294ZM65.7842 23.3391C65.8656 24.0519 66.1304 24.5407 66.5988 24.8462C67.0672 25.1313 67.6375 25.2739 68.2892 25.2739C68.5133 25.2739 68.778 25.2535 69.0632 25.2128C69.3483 25.1721 69.6334 25.111 69.8778 25.0091C70.1426 24.9073 70.3463 24.7647 70.5092 24.5611C70.6721 24.3574 70.7536 24.113 70.7332 23.8075C70.7129 23.502 70.611 23.2372 70.387 23.0336C70.163 22.8299 69.8982 22.6873 69.5723 22.5448C69.2465 22.4226 68.8595 22.3207 68.4318 22.2393C68.0041 22.1578 67.5764 22.056 67.1283 21.9541C66.6803 21.8523 66.2322 21.7301 65.8045 21.5875C65.3768 21.445 65.0102 21.2617 64.664 20.9969C64.3381 20.7525 64.053 20.447 63.8697 20.0601C63.666 19.6731 63.5642 19.225 63.5642 18.6547C63.5642 18.0438 63.7068 17.555 64.0123 17.1476C64.2974 16.7403 64.6844 16.4144 65.1324 16.17C65.5805 15.9256 66.0897 15.7423 66.6396 15.6405C67.1895 15.5387 67.719 15.4979 68.2078 15.4979C68.778 15.4979 69.3279 15.559 69.8371 15.6812C70.3463 15.8034 70.8351 15.9867 71.2424 16.2719C71.6701 16.5366 72.0163 16.9032 72.2811 17.3309C72.5662 17.7586 72.7292 18.2882 72.8106 18.8992H70.2648C70.1426 18.3085 69.8778 17.9216 69.4705 17.7179C69.0428 17.5142 68.5744 17.4124 68.0245 17.4124C67.8615 17.4124 67.6375 17.4328 67.4135 17.4531C67.1691 17.4939 66.9654 17.5346 66.7414 17.6161C66.5377 17.6975 66.3544 17.8197 66.2119 17.9623C66.0693 18.1049 65.9878 18.3085 65.9878 18.5529C65.9878 18.8584 66.0897 19.0824 66.2933 19.2657C66.497 19.449 66.7617 19.5916 67.108 19.7342C67.4338 19.8564 67.8208 19.9582 68.2485 20.0397C68.6762 20.1211 69.1243 20.223 69.5723 20.3248C70.0204 20.4266 70.4481 20.5488 70.8758 20.6914C71.3035 20.834 71.6905 21.0173 72.0163 21.282C72.3422 21.5264 72.6273 21.8319 72.831 22.1985C73.0347 22.5651 73.1365 23.0336 73.1365 23.5631C73.1365 24.2148 72.9939 24.7647 72.6884 25.2332C72.3829 25.6812 71.996 26.0682 71.5275 26.3533C71.0591 26.6385 70.5092 26.8421 69.9389 26.9847C69.3483 27.1069 68.778 27.1884 68.2078 27.1884C67.5153 27.1884 66.8636 27.1069 66.273 26.944C65.6823 26.781 65.1528 26.5366 64.7251 26.2311C64.2974 25.9053 63.9512 25.5183 63.7068 25.0295C63.4624 24.5611 63.3198 23.9908 63.2994 23.3187H65.7638V23.3391H65.7842ZM73.829 15.8238H75.6823V12.4837H78.1263V15.8034H80.3259V17.6161H78.1263V23.5224C78.1263 23.7871 78.1467 23.9908 78.167 24.1945C78.1874 24.3778 78.2485 24.5407 78.3096 24.6629C78.3911 24.7851 78.5133 24.8869 78.6558 24.948C78.8188 25.0091 79.0224 25.0499 79.3076 25.0499C79.4705 25.0499 79.6538 25.0499 79.8167 25.0295C79.9797 25.0091 80.163 24.9888 80.3259 24.948V26.8421C80.0611 26.8829 79.7964 26.9032 79.5316 26.9236C79.2668 26.9643 79.0224 26.9643 78.7373 26.9643C78.0856 26.9643 77.5764 26.9032 77.1895 26.781C76.8025 26.6588 76.497 26.4755 76.273 26.2515C76.0489 26.0071 75.9064 25.722 75.8249 25.3757C75.7434 25.0295 75.7027 24.6018 75.6823 24.1537V17.6364H73.829V15.7831V15.8238ZM82.0367 15.8238H84.3381V17.3309H84.3789C84.7251 16.6792 85.1935 16.2311 85.8045 15.946C86.4155 15.6609 87.0673 15.5183 87.8005 15.5183C88.6762 15.5183 89.4298 15.6609 90.0815 15.9867C90.7332 16.2922 91.2628 16.6996 91.6905 17.2495C92.1182 17.779 92.444 18.4104 92.6477 19.1232C92.8514 19.836 92.9736 20.6099 92.9736 21.4042C92.9736 22.1578 92.8717 22.8706 92.6884 23.5631C92.4848 24.2556 92.1996 24.8869 91.8127 25.4165C91.4257 25.946 90.9369 26.3737 90.3259 26.6996C89.7149 27.0254 89.0224 27.1884 88.2078 27.1884C87.8616 27.1884 87.495 27.1476 87.1487 27.0865C86.8025 27.0254 86.4563 26.9236 86.1304 26.781C85.8045 26.6385 85.499 26.4552 85.2343 26.2311C84.9491 26.0071 84.7251 25.7423 84.5418 25.4572H84.5011V30.9765H82.0571V15.8238H82.0367ZM90.5703 21.3635C90.5703 20.8747 90.5092 20.3859 90.3666 19.9175C90.2444 19.449 90.0408 19.0417 89.776 18.6751C89.5112 18.3085 89.1854 18.0234 88.8188 17.7994C88.4318 17.5753 87.9838 17.4735 87.495 17.4735C86.4766 17.4735 85.7027 17.8197 85.1732 18.5326C84.664 19.2454 84.3992 20.2026 84.3992 21.3839C84.3992 21.9541 84.4603 22.4633 84.6029 22.9317C84.7455 23.4002 84.9288 23.8075 85.2139 24.1537C85.4787 24.5 85.8045 24.7647 86.1915 24.9684C86.5785 25.1721 87.0062 25.2739 87.5153 25.2739C88.0856 25.2739 88.5336 25.1517 88.9206 24.9277C89.3076 24.7036 89.6131 24.3981 89.8778 24.0519C90.1222 23.6853 90.3055 23.278 90.4074 22.8095C90.5092 22.3207 90.5703 21.8523 90.5703 21.3635ZM94.8677 11.6079H97.3117V13.9093H94.8677V11.6079ZM94.8677 15.8238H97.3117V26.8829H94.8677V15.8238ZM99.4909 11.6079H101.935V26.8829H99.4909V11.6079ZM109.389 27.1884C108.513 27.1884 107.719 27.0458 107.027 26.7403C106.334 26.4348 105.764 26.0478 105.275 25.5387C104.807 25.0295 104.44 24.3981 104.196 23.6853C103.951 22.9725 103.809 22.1782 103.809 21.3431C103.809 20.5081 103.931 19.7342 104.196 19.0214C104.44 18.3085 104.807 17.6975 105.275 17.168C105.743 16.6588 106.334 16.2515 107.027 15.9664C107.719 15.6812 108.513 15.5183 109.389 15.5183C110.265 15.5183 111.059 15.6609 111.752 15.9664C112.444 16.2515 113.014 16.6588 113.503 17.168C113.972 17.6772 114.338 18.3085 114.583 19.0214C114.827 19.7342 114.969 20.5081 114.969 21.3431C114.969 22.1985 114.847 22.9725 114.583 23.6853C114.318 24.3981 113.972 25.0091 113.503 25.5387C113.035 26.0478 112.444 26.4552 111.752 26.7403C111.059 27.0254 110.285 27.1884 109.389 27.1884ZM109.389 25.2535C109.919 25.2535 110.407 25.1313 110.794 24.9073C111.202 24.6833 111.507 24.3778 111.772 24.0112C112.037 23.6446 112.22 23.2169 112.342 22.7688C112.464 22.3004 112.526 21.8319 112.526 21.3431C112.526 20.8747 112.464 20.4063 112.342 19.9378C112.22 19.4694 112.037 19.0621 111.772 18.6955C111.507 18.3289 111.181 18.0438 110.794 17.8197C110.387 17.5957 109.919 17.4735 109.389 17.4735C108.86 17.4735 108.371 17.5957 107.984 17.8197C107.576 18.0438 107.271 18.3493 107.006 18.6955C106.741 19.0621 106.558 19.4694 106.436 19.9378C106.314 20.4063 106.253 20.8747 106.253 21.3431C106.253 21.8319 106.314 22.3004 106.436 22.7688C106.558 23.2372 106.741 23.6446 107.006 24.0112C107.271 24.3778 107.597 24.6833 107.984 24.9073C108.391 25.1517 108.86 25.2535 109.389 25.2535ZM115.703 15.8238H117.556V12.4837H120V15.8034H122.2V17.6161H120V23.5224C120 23.7871 120.02 23.9908 120.041 24.1945C120.061 24.3778 120.122 24.5407 120.183 24.6629C120.265 24.7851 120.387 24.8869 120.53 24.948C120.693 25.0091 120.896 25.0499 121.181 25.0499C121.344 25.0499 121.528 25.0499 121.69 25.0295C121.853 25.0091 122.037 24.9888 122.2 24.948V26.8421C121.935 26.8829 121.67 26.9032 121.405 26.9236C121.141 26.9643 120.896 26.9643 120.611 26.9643C119.959 26.9643 119.45 26.9032 119.063 26.781C118.676 26.6588 118.371 26.4755 118.147 26.2515C117.923 26.0071 117.78 25.722 117.699 25.3757C117.617 25.0295 117.576 24.6018 117.556 24.1537V17.6364H115.703V15.7831V15.8238Z" fill="black"/>
<path d="M29.2667 11.6079H18.0855L14.6436 0.976562L11.1813 11.6079L1.52588e-05 11.5876L9.04276 18.166L5.58045 28.7973L14.6232 22.2189L23.6659 28.7973L20.224 18.166L29.2667 11.6079Z" fill="#00B67A"/>
<path d="M20.998 20.5693L20.224 18.166L14.6436 22.219L20.998 20.5693Z" fill="#005128"/>
</svg>
