<svg width="270" height="221" viewBox="0 0 270 221" fill="none" xmlns="http://www.w3.org/2000/svg">
<path d="M33.1466 69.9433C19.7914 77.8277 8.2062 88.9302 3.05721 102.929C-1.76996 116.284 -0.482715 131.088 5.14899 144.282C15.2861 168.257 41.1919 186.278 68.385 185.635C80.9356 185.313 93.1645 181.29 105.554 182.738C127.759 185.313 143.85 204.461 164.928 211.38C191.478 220.068 220.924 208 242.807 191.427C256.162 181.29 268.713 167.935 269.839 151.844C270.805 138.006 263.242 124.812 262.116 110.813C261.15 97.9409 265.816 85.3902 267.265 72.5178C268.713 59.6453 266.138 44.842 254.714 37.7621C242.002 29.8777 224.625 35.3485 211.752 43.2329C198.88 51.1173 187.133 61.5762 172.008 63.5071C159.94 65.1161 148.033 60.9326 136.931 55.9445C119.392 48.221 97.8307 35.9922 78.3611 45.4856C72.5685 48.221 68.5459 53.37 62.7533 56.4272C53.2598 61.4153 42.64 64.3116 33.1466 69.9433Z" fill="#FFB100"/>
<path d="M69.0286 185.635C73.6949 185.474 78.2003 184.83 82.8665 184.186L80.7748 75.0923L101.693 182.577C102.98 182.577 104.267 182.738 105.554 182.899C108.29 183.221 110.864 183.704 113.278 184.508L172.974 63.3461C172.652 63.3461 172.33 63.5071 171.847 63.5071C169.112 63.8289 166.377 63.8289 163.802 63.668L108.611 175.819L82.8665 43.7156C81.4184 44.1984 79.8093 44.842 78.3612 45.4856C76.1085 46.6119 74.1776 47.8992 72.2468 49.5082L74.6603 178.877L25.5841 74.7705C23.3314 76.3795 21.2396 78.1495 19.1478 79.9195L69.0286 185.635Z" fill="#CC8F00"/>
<path d="M187.133 214.276C192.282 213.954 197.431 213.149 202.42 211.862L263.886 47.8992C262.437 45.0029 260.507 42.4284 258.093 40.3366L194.696 209.449L181.984 61.0935C179.41 62.0589 176.835 62.8634 174.1 63.3461L187.133 214.276Z" fill="#CC8F00"/>
<path d="M179.41 5.25913C175.387 7.0291 171.204 9.7645 170.238 14.109C169.273 18.2925 171.687 22.637 175.066 25.0506C178.445 27.4641 182.95 28.2687 187.133 28.4296C199.523 29.2341 211.913 25.8551 222.211 18.9361C225.268 16.8444 228.647 13.4653 227.521 9.9254C226.877 7.51181 224.464 6.22457 222.211 5.09823C208.373 -1.33801 193.409 -1.0162 179.41 5.25913Z" fill="#FFB100"/>
<path d="M96.8653 199.151C94.2908 200.116 91.7163 201.886 91.0727 204.461C90.4291 207.035 91.7164 209.77 93.969 211.219C96.0608 212.828 98.7962 213.31 101.371 213.471C108.933 214.115 116.818 212.184 123.254 208.161C125.185 206.874 127.277 204.943 126.633 202.691C126.15 201.242 124.702 200.277 123.415 199.633C114.726 195.611 105.554 195.611 96.8653 199.151Z" fill="#FFB100"/>
<path d="M130.173 29.0732C128.886 29.8777 127.437 30.8432 126.955 32.2913C125.507 35.5094 128.403 39.0494 131.621 40.3366C137.896 43.072 145.137 40.8193 151.573 38.4057C153.665 37.6012 155.596 36.7967 157.366 35.3485C158.975 33.9004 160.262 31.9695 160.262 29.7168C159.779 16.3616 135.483 25.8551 130.173 29.0732Z" fill="#FFB100"/>
<path d="M33.7903 198.668C31.6985 199.472 29.4458 200.438 28.1586 202.208C25.2623 206.231 28.1586 212.184 32.1812 215.08C40.2265 220.873 51.329 220.068 61.1443 218.62C64.2015 218.138 67.4196 217.655 70.3159 216.207C73.0513 214.759 75.6258 212.184 76.1085 209.127C79.6484 189.979 42.3183 195.772 33.7903 198.668Z" fill="#FFB100"/>
<path d="M256.645 141.868C256.967 142.029 257.449 141.868 257.61 141.385C257.61 141.064 257.449 140.581 257.127 140.42C256.806 140.259 256.323 140.42 256.162 140.903C256.001 141.225 256.162 141.707 256.645 141.868Z" fill="#CC8F00"/>
<path d="M40.387 179.52C40.2263 179.52 40.2263 179.52 40.0656 179.681C40.2263 179.842 40.5477 179.842 40.7084 180.002C40.8691 179.681 40.7084 179.681 40.387 179.52Z" fill="#CC8F00"/>
<path d="M6.43624 140.259C5.95353 140.259 5.63171 140.581 5.63171 141.225C5.79262 141.868 6.27534 142.029 6.59715 142.029C6.91896 142.029 7.40168 141.385 7.40168 141.064C7.40168 140.42 6.75805 140.259 6.43624 140.259Z" fill="#CC8F00"/>
<path d="M30.8939 174.532C31.3766 175.015 32.0203 175.337 32.6639 175.658C32.6639 175.337 32.6639 175.015 32.503 174.693C32.0203 174.21 31.3766 174.21 30.8939 174.532Z" fill="#CC8F00"/>
<path d="M171.525 213.149C171.364 213.149 171.204 213.149 171.043 212.989C171.204 212.989 171.364 213.149 171.525 213.149Z" fill="#CC8F00"/>
<path d="M190.03 213.954C190.673 213.954 191.156 213.793 191.8 213.793C191.156 213.632 190.513 213.632 190.03 213.954Z" fill="#CC8F00"/>
<path d="M9.17163 137.846C9.65434 137.363 9.33253 136.558 8.84982 136.236C8.3671 135.915 7.56257 136.076 7.24076 136.558C6.75804 137.041 6.91894 137.685 7.56257 138.167C8.04529 138.65 8.84981 138.328 9.17163 137.846Z" fill="#CC8F00"/>
<path d="M259.38 112.422C259.863 112.744 260.346 112.583 260.506 112.101C260.828 111.618 260.667 111.135 260.185 110.974C259.702 110.813 259.219 110.813 259.058 111.296C258.736 111.618 258.897 112.262 259.38 112.422Z" fill="#CC8F00"/>
<path d="M259.219 128.674C259.541 128.352 259.541 127.869 259.219 127.548C258.897 127.226 258.415 127.226 258.093 127.548C257.771 127.869 257.771 128.352 258.093 128.674C258.415 128.996 258.897 128.996 259.219 128.674Z" fill="#CC8F00"/>
<path d="M194.696 213.149C194.535 213.149 194.374 213.31 194.374 213.471C194.535 213.471 194.856 213.471 195.017 213.31C195.017 213.31 194.856 213.149 194.696 213.149Z" fill="#CC8F00"/>
<path d="M1.12632 116.606C1.76995 116.284 1.76995 115.319 1.28723 114.675C1.12632 114.353 0.643606 114.192 0.321795 114.192C0.160889 114.997 0.160889 115.962 0.160889 116.767C0.4827 116.928 0.804512 116.767 1.12632 116.606Z" fill="#CC8F00"/>
<path d="M261.793 148.464C262.115 148.625 262.597 148.464 262.597 148.142C262.597 147.66 262.597 147.339 262.275 147.339C261.954 147.178 261.472 147.339 261.472 147.66C261.311 147.982 261.472 148.303 261.793 148.464Z" fill="#CC8F00"/>
<path d="M163.159 208C162.515 208.644 162.354 209.77 162.998 210.414C163.641 211.058 164.768 211.219 165.411 210.575C166.055 209.931 166.216 208.805 165.572 208.161C164.928 207.518 163.802 207.518 163.159 208Z" fill="#CC8F00"/>
<path d="M237.175 195.449C237.497 195.127 237.818 194.967 238.3 194.645C237.818 194.645 237.336 194.967 237.175 195.449Z" fill="#CC8F00"/>
<path d="M246.186 188.531C246.025 188.531 246.025 188.531 245.864 188.692C245.864 188.692 245.703 188.692 245.703 188.853C245.22 189.175 244.738 189.657 244.738 190.14C245.381 189.657 246.025 189.014 246.669 188.531C246.669 188.531 246.669 188.531 246.508 188.531C246.347 188.37 246.186 188.37 246.186 188.531Z" fill="#CC8F00"/>
<path d="M228.969 193.841C228.647 194.323 228.486 194.967 228.969 195.289C229.452 195.611 230.095 195.772 230.417 195.289C230.739 194.806 230.9 194.163 230.417 193.841C229.934 193.519 229.291 193.519 228.969 193.841Z" fill="#CC8F00"/>
<path d="M264.207 146.856C264.529 146.374 264.368 146.052 264.047 145.73C263.564 145.408 263.242 145.408 262.92 145.891C262.598 146.374 262.759 146.695 263.081 147.017C263.564 147.339 263.886 147.178 264.207 146.856Z" fill="#CC8F00"/>
<path d="M228.808 184.669C228.325 184.508 227.682 184.508 227.521 185.152C227.36 185.795 227.521 186.278 228.004 186.439C228.647 186.6 229.13 186.439 229.291 185.956C229.452 185.313 229.291 184.83 228.808 184.669Z" fill="#CC8F00"/>
<path d="M192.443 209.77C192.282 209.61 192.121 209.931 191.961 210.092C191.8 210.253 192.121 210.413 192.282 210.574C192.443 210.735 192.603 210.413 192.764 210.253C192.925 209.931 192.764 209.77 192.443 209.77Z" fill="#CC8F00"/>
<path d="M252.622 172.44C253.266 172.44 253.749 171.958 253.749 171.475C253.588 170.831 253.266 170.188 252.622 170.027C252.139 170.027 251.818 170.188 251.496 170.349C251.174 170.509 250.852 170.67 250.691 170.992C250.37 171.475 250.691 172.279 251.335 172.601C251.818 172.762 252.3 172.762 252.622 172.44Z" fill="#CC8F00"/>
<path d="M225.751 191.588C225.429 192.393 225.912 193.519 226.716 193.68C227.521 194.002 228.486 193.519 228.808 192.714C229.13 191.91 228.647 190.784 227.843 190.623C227.038 190.462 226.073 190.784 225.751 191.588Z" fill="#CC8F00"/>
<path d="M222.05 203.817C221.889 203.334 221.246 203.012 220.924 203.173C220.602 203.334 220.119 203.978 220.28 204.3C220.441 204.621 220.602 204.782 220.924 204.943C221.246 204.782 221.728 204.621 222.05 204.3C222.211 204.139 222.211 203.978 222.05 203.817Z" fill="#CC8F00"/>
<path d="M218.671 202.208C218.832 202.852 219.636 203.334 220.28 203.173C220.441 203.173 220.602 203.012 220.763 202.852C221.246 202.852 221.728 202.369 221.728 201.725C221.728 201.082 221.246 200.76 220.602 200.76C220.28 200.599 219.958 200.438 219.636 200.438C218.993 200.599 218.349 201.564 218.671 202.208Z" fill="#CC8F00"/>
<path d="M222.211 198.829C221.728 199.151 221.728 199.633 222.05 200.277L222.372 200.599C222.211 200.921 222.05 201.242 222.05 201.564C222.05 202.53 222.533 203.495 223.337 203.817C225.59 202.691 227.682 201.564 229.774 200.277C229.613 199.794 229.291 199.472 228.808 199.312C228.004 198.99 227.36 199.151 226.716 199.472C226.555 199.472 226.555 199.312 226.395 199.312C226.073 199.312 225.912 199.472 225.912 199.633C225.751 199.633 225.59 199.633 225.59 199.633C225.268 199.472 224.946 199.312 224.625 199.312C224.464 199.312 224.142 199.312 223.981 199.472C223.981 199.312 223.82 199.151 223.82 198.99C223.337 198.507 222.694 198.507 222.211 198.829Z" fill="#CC8F00"/>
<path d="M224.785 193.841C224.142 194.002 223.82 194.645 223.981 195.128C224.142 195.611 224.785 196.093 225.268 195.933C225.751 195.772 226.234 195.128 226.073 194.645C225.912 193.841 225.429 193.519 224.785 193.841Z" fill="#CC8F00"/>
<path d="M259.38 166.326C258.415 166.487 257.771 167.452 258.093 168.418C258.254 169.383 259.219 170.027 260.185 169.705C261.15 169.544 261.794 168.579 261.472 167.613C261.311 166.648 260.346 166.165 259.38 166.326Z" fill="#CC8F00"/>
<path d="M236.693 185.956C237.658 185.956 238.462 185.313 238.462 184.347C238.462 183.382 237.819 182.577 236.853 182.577C235.888 182.577 235.244 183.221 235.083 184.186C235.083 184.991 235.727 185.795 236.693 185.956Z" fill="#CC8F00"/>
<path d="M238.784 147.822C238.945 147.983 239.106 147.983 239.267 147.983C239.911 148.144 240.232 147.661 240.232 147.178C240.232 147.017 240.232 146.856 240.232 146.695C240.232 146.695 240.232 146.695 240.393 146.856C240.876 147.178 241.198 147.017 241.52 146.534C241.841 146.052 241.681 145.73 241.198 145.408C240.715 145.086 240.232 145.247 240.072 145.73C239.911 145.891 239.911 146.213 239.911 146.374C239.589 146.052 239.267 145.891 238.945 146.213C238.784 146.213 238.462 146.213 238.141 146.374C237.819 146.695 237.658 147.178 237.98 147.661C238.302 147.661 238.462 147.822 238.784 147.822Z" fill="#CC8F00"/>
<path d="M232.992 188.37C232.992 188.531 232.992 188.531 232.831 188.692C232.67 188.692 232.67 188.853 232.67 188.853C232.509 189.014 232.509 189.175 232.509 189.335C232.348 189.335 232.187 189.175 232.026 189.335C231.704 189.335 231.222 189.979 231.222 190.301C231.222 190.623 231.865 191.105 232.187 191.105H232.348C232.348 191.749 232.67 192.393 233.153 192.554C233.957 192.875 235.244 192.714 235.566 191.749C235.888 190.784 235.727 189.657 234.762 189.335C234.601 189.335 234.601 189.335 234.44 189.335C234.601 189.014 234.44 188.531 234.118 188.209C233.796 187.726 232.992 187.726 232.992 188.37Z" fill="#CC8F00"/>
<path d="M238.302 166.809C237.98 167.13 238.141 167.452 238.302 167.774C238.462 168.096 238.945 167.935 239.267 167.774C239.589 167.452 239.428 167.13 239.267 166.809C238.945 166.487 238.462 166.487 238.302 166.809Z" fill="#CC8F00"/>
<path d="M236.371 180.807C236.853 181.612 237.98 182.095 238.623 181.612C239.428 181.129 239.911 180.003 239.428 179.359C239.106 178.555 238.141 178.233 237.175 178.555C236.21 179.037 235.888 180.003 236.371 180.807Z" fill="#CC8F00"/>
<path d="M232.992 173.245C233.474 173.084 233.474 172.762 233.313 172.279C232.992 171.958 232.67 171.958 232.348 171.958C231.865 172.118 231.865 172.44 232.026 172.923C232.187 173.406 232.509 173.406 232.992 173.245Z" fill="#CC8F00"/>
<path d="M236.532 166.97C237.014 166.809 237.014 166.487 236.853 166.004C236.853 165.682 236.371 165.521 235.888 165.682C235.405 165.843 235.405 166.165 235.566 166.648C235.727 167.13 236.049 167.291 236.532 166.97Z" fill="#CC8F00"/>
<path d="M225.429 167.934C225.268 168.095 225.59 168.577 225.911 168.577C226.072 168.738 226.554 168.416 226.554 168.095C226.715 167.934 226.393 167.452 226.072 167.452C225.75 167.452 225.268 167.774 225.429 167.934Z" fill="#CC8F00"/>
<path d="M224.946 153.453C225.429 153.614 226.073 153.453 226.234 152.971C226.395 152.488 226.234 151.844 225.751 151.683C225.268 151.523 224.625 151.683 224.464 152.166C224.303 152.81 224.464 153.293 224.946 153.453Z" fill="#CC8F00"/>
<path d="M229.934 184.669C230.256 184.991 230.578 185.152 230.9 184.83C231.222 184.508 231.222 184.186 231.061 183.865C231.061 183.865 231.061 183.704 230.9 183.704C231.061 183.704 231.061 183.865 231.222 183.865C231.543 183.865 232.026 183.543 232.026 183.221C232.026 182.899 231.704 182.416 231.383 182.416C230.9 182.416 230.417 182.738 230.578 183.06C230.578 183.221 230.578 183.543 230.739 183.704C230.578 183.543 230.256 183.704 230.095 183.865C229.774 184.026 229.774 184.347 229.934 184.669Z" fill="#CC8F00"/>
<path d="M223.337 165.682C223.015 166.004 223.015 166.326 223.337 166.648C223.659 166.97 223.981 166.97 224.303 166.648C224.625 166.326 224.625 166.004 224.303 165.682C223.981 165.682 223.659 165.521 223.337 165.682Z" fill="#CC8F00"/>
<path d="M228.486 178.715C228.486 179.036 228.968 179.197 229.29 179.197C229.611 179.197 229.772 178.715 229.772 178.393C229.772 178.072 229.29 177.75 228.968 177.911C228.647 177.911 228.486 178.232 228.486 178.715Z" fill="#CC8F00"/>
<path d="M226.073 170.188V170.349C226.073 170.349 225.912 170.349 226.073 170.188C225.59 170.027 225.107 170.027 224.785 170.027C224.946 169.705 224.946 169.544 224.785 169.222C224.625 168.579 223.82 168.096 223.176 168.418C222.533 168.579 222.05 169.383 222.372 170.027C222.533 170.67 223.337 171.153 223.981 170.831C223.659 171.314 223.82 172.118 224.464 172.44C224.946 172.923 225.912 172.762 226.234 172.118C226.394 171.958 226.555 171.636 226.555 171.314C226.716 171.475 227.038 171.636 227.36 171.636C228.164 171.636 228.808 171.153 228.808 170.349C228.808 169.544 228.325 168.9 227.521 168.9C226.877 168.9 226.073 169.383 226.073 170.188Z" fill="#CC8F00"/>
<path d="M258.254 151.683C258.737 151.201 258.897 150.396 258.415 149.592C257.932 148.948 257.128 148.948 256.323 149.431C255.84 149.913 255.679 150.718 256.162 151.523C256.645 152.166 257.449 152.166 258.254 151.683Z" fill="#CC8F00"/>
<path d="M249.243 153.775C249.404 154.419 250.209 154.902 250.852 154.741C251.496 154.58 251.979 153.775 251.818 153.132C251.657 152.488 250.852 152.005 250.209 152.166C249.404 152.327 248.921 153.132 249.243 153.775Z" fill="#CC8F00"/>
<path d="M250.048 129.639C250.53 129.478 250.852 128.996 250.691 128.513C250.53 128.03 250.048 127.708 249.565 127.869C249.082 127.869 248.76 128.513 248.921 128.996C249.082 129.478 249.565 129.8 250.048 129.639Z" fill="#CC8F00"/>
<path d="M251.174 157.315C250.691 157.476 250.37 157.959 250.37 158.281C250.37 158.602 251.013 159.085 251.335 159.085C251.657 159.085 252.139 158.441 252.139 158.12C252.139 157.476 251.657 157.154 251.174 157.315Z" fill="#CC8F00"/>
<path d="M252.622 155.867C253.105 156.189 253.749 156.028 253.909 155.545C254.231 155.223 254.07 154.741 253.749 154.419C253.749 154.258 253.749 154.258 253.909 154.097C253.909 153.775 253.749 153.453 253.266 153.453C253.105 153.453 252.783 153.775 252.622 154.097V154.258C252.461 154.258 252.3 154.419 252.3 154.58C251.979 155.062 252.3 155.706 252.622 155.867Z" fill="#CC8F00"/>
<path d="M245.381 173.084C245.06 173.245 244.899 173.406 244.738 173.728L244.577 173.888C244.416 174.21 244.416 174.532 244.577 174.854C244.577 175.176 244.738 175.337 244.899 175.658C245.381 176.463 246.508 176.624 247.473 176.141C248.439 175.658 248.439 174.532 247.956 173.567C247.312 172.762 246.347 172.601 245.381 173.084Z" fill="#CC8F00"/>
<path d="M252.3 178.394C251.978 179.037 252.3 179.681 252.622 180.164C252.461 180.325 252.461 180.325 252.461 180.486C252.3 180.646 251.978 180.968 251.978 181.29C251.818 181.612 251.978 181.934 251.978 182.095C251.978 182.256 251.978 182.577 252.139 182.738C252.3 182.899 252.461 183.06 252.622 183.221C253.427 182.577 254.07 181.773 254.714 181.129C254.553 180.968 254.553 180.807 254.392 180.646C254.553 180.646 254.714 180.486 254.875 180.325C255.036 180.486 255.197 180.486 255.358 180.486C255.679 180.003 256.162 179.681 256.484 179.198C256.323 178.877 256.001 178.394 255.518 178.394C255.518 178.394 255.518 178.394 255.358 178.394C255.197 177.911 254.875 177.428 254.392 177.267C253.588 177.107 252.622 177.589 252.3 178.394Z" fill="#CC8F00"/>
<path d="M244.738 162.464C245.381 162.303 245.864 161.821 245.864 161.177C245.864 160.533 245.221 160.051 244.577 160.051C243.933 160.211 243.451 160.694 243.451 161.338C243.611 161.981 244.094 162.464 244.738 162.464Z" fill="#CC8F00"/>
<path d="M241.359 166.97C241.359 167.291 241.681 167.774 242.163 167.774C242.646 167.774 242.968 167.452 242.968 166.97C242.968 166.487 242.807 166.165 242.163 166.165C241.841 166.326 241.359 166.648 241.359 166.97Z" fill="#CC8F00"/>
<path d="M242.324 169.222C242.163 169.544 242.324 170.027 242.485 170.349C242.324 170.509 242.163 170.831 242.324 171.314C242.485 171.797 242.968 171.958 243.451 171.797C243.933 171.636 244.094 171.153 243.933 170.67C243.933 170.509 243.772 170.509 243.772 170.349C243.933 170.349 243.933 170.188 243.933 170.027C244.094 169.544 243.933 168.9 243.451 168.739C243.129 168.579 242.485 168.739 242.324 169.222Z" fill="#CC8F00"/>
<path d="M240.071 156.35C239.428 156.832 239.267 157.476 239.75 158.281C240.232 158.924 241.037 159.085 241.681 158.602C242.324 158.12 242.485 157.315 242.002 156.672C241.681 155.867 240.876 155.867 240.071 156.35Z" fill="#CC8F00"/>
<path d="M246.83 134.627C247.312 134.788 247.795 134.467 247.956 133.984C248.117 133.501 247.795 133.018 247.312 132.857C246.83 132.697 246.347 133.018 246.186 133.501C246.025 133.823 246.347 134.306 246.83 134.627Z" fill="#CC8F00"/>
<path d="M246.669 141.064C247.151 140.903 247.151 140.42 246.99 140.098C246.83 139.776 246.508 139.616 246.025 139.776C245.542 139.937 245.542 140.42 245.703 140.742C245.864 141.225 246.508 141.225 246.669 141.064Z" fill="#CC8F00"/>
<path d="M38.2956 156.832C38.1347 156.672 37.9738 156.672 37.6519 156.672C37.491 156.511 37.1692 156.35 37.0083 156.35C36.6865 156.35 36.2038 156.672 36.2038 157.315C36.2038 157.637 36.5256 158.12 37.1692 158.12C37.3301 158.12 37.491 157.959 37.6519 157.959C37.8129 157.959 37.9738 157.959 38.1347 157.798C38.6174 157.315 38.6174 156.993 38.2956 156.832Z" fill="#CC8F00"/>
<path d="M198.236 182.256C198.236 181.934 198.075 181.29 197.431 181.29C196.949 181.129 196.466 181.612 196.466 182.095C196.466 182.416 196.627 183.06 197.271 183.06C197.592 183.06 198.236 182.899 198.236 182.256Z" fill="#CC8F00"/>
<path d="M216.74 202.53C217.223 202.691 217.866 202.53 218.188 202.047C218.349 201.564 218.188 200.921 217.706 200.599C217.062 200.277 216.418 200.76 216.257 201.082C216.096 201.564 216.257 202.208 216.74 202.53Z" fill="#CC8F00"/>
<path d="M196.627 205.104C196.627 205.265 196.627 205.265 196.788 205.265C196.948 205.265 196.948 205.265 196.948 205.104C196.948 204.943 196.788 204.943 196.788 204.943C196.627 204.943 196.627 204.943 196.627 205.104Z" fill="#CC8F00"/>
<path d="M196.949 185.473C197.109 185.794 197.27 185.955 197.592 185.794C197.913 185.634 198.074 185.473 197.913 185.151C197.913 184.991 197.592 184.83 197.27 184.83C196.949 184.991 196.788 185.151 196.949 185.473Z" fill="#CC8F00"/>
<path d="M188.42 205.104C188.259 204.943 188.098 204.621 187.937 204.621C187.616 204.461 187.295 204.782 187.455 205.104C187.295 205.425 187.616 205.746 187.937 205.586C188.259 205.746 188.58 205.425 188.42 205.104Z" fill="#CC8F00"/>
<path d="M193.087 208.483C192.765 209.127 192.765 209.61 193.087 210.092C192.765 210.736 192.765 211.54 193.248 212.023C193.891 212.667 195.018 212.828 195.661 212.184C196.305 211.54 196.466 210.414 195.822 209.77C195.661 209.61 195.501 209.61 195.501 209.449C195.661 208.966 195.501 208.483 194.857 208.161C194.213 207.84 193.409 208.001 193.087 208.483Z" fill="#CC8F00"/>
<path d="M200.65 207.035C201.293 206.713 201.454 205.748 200.971 205.104C200.489 204.461 199.684 204.139 199.04 204.782C198.397 205.104 198.236 206.07 198.719 206.713C199.04 207.196 200.006 207.357 200.65 207.035Z" fill="#CC8F00"/>
<path d="M208.212 203.495C208.372 203.334 208.212 203.173 208.051 203.173C207.89 203.173 207.89 203.013 207.729 203.334C207.569 203.495 207.729 203.655 207.89 203.655C208.051 203.655 208.212 203.655 208.212 203.495Z" fill="#CC8F00"/>
<path d="M202.902 208.161C202.741 208.001 202.741 208.161 202.58 208.483C202.42 208.804 202.741 208.804 202.902 208.804C203.063 208.965 203.223 208.643 203.223 208.483C203.384 208.161 203.063 208.001 202.902 208.161Z" fill="#CC8F00"/>
<path d="M209.499 207.196L209.66 207.035C209.982 207.035 210.143 207.035 210.304 206.874C210.787 206.552 210.787 205.909 210.465 205.587C210.304 205.104 209.499 205.104 209.178 205.426C208.856 205.748 208.695 206.391 209.017 206.713C209.017 206.874 208.856 206.874 209.017 207.035C209.017 207.035 209.339 207.357 209.499 207.196Z" fill="#CC8F00"/>
<path d="M184.397 213.149C184.558 212.988 184.397 212.827 184.397 212.667C184.237 212.506 183.915 212.506 183.915 212.667C183.755 212.827 183.915 212.988 183.915 213.149C184.076 213.309 184.237 213.149 184.397 213.149Z" fill="#CC8F00"/>
<path d="M196.627 212.505C196.787 212.666 197.109 212.666 197.109 212.505C197.27 212.344 197.27 212.023 197.109 212.023C196.948 211.862 196.627 211.862 196.627 212.023C196.466 212.184 196.305 212.344 196.627 212.505Z" fill="#CC8F00"/>
<path d="M202.902 210.736C202.741 210.575 202.58 210.575 202.419 210.575C202.419 209.931 201.937 209.288 201.293 209.288C200.489 209.288 199.845 209.61 199.684 210.414V210.575C199.523 210.575 199.523 210.575 199.362 210.736C199.362 210.736 199.362 210.897 199.201 210.897C199.04 211.058 198.88 211.058 198.88 211.219C198.558 211.701 198.88 212.345 199.362 212.506C200.81 212.184 202.098 211.862 203.385 211.54C203.385 211.219 203.224 210.897 202.902 210.736Z" fill="#CC8F00"/>
<path d="M195.983 201.564C196.305 201.242 196.144 200.76 195.983 200.438C195.822 200.116 195.179 200.277 194.857 200.438C194.535 200.599 194.696 201.242 194.857 201.564C195.018 201.886 195.822 201.886 195.983 201.564Z" fill="#CC8F00"/>
<path d="M223.659 142.351C224.142 142.029 224.142 141.385 223.82 141.064C223.498 140.742 222.855 140.581 222.533 140.903C222.05 141.225 222.05 141.868 222.372 142.19C222.533 142.512 223.176 142.673 223.659 142.351Z" fill="#CC8F00"/>
<path d="M10.1371 147.983C9.65436 148.144 9.33255 148.626 9.49346 149.109C9.65436 149.592 10.1371 149.913 10.6198 149.753C11.1025 149.592 11.4243 149.109 11.2634 148.626C11.1025 148.144 10.4589 147.983 10.1371 147.983Z" fill="#CC8F00"/>
<path d="M30.4105 172.279C30.5712 172.279 30.5712 171.796 30.4105 171.796C30.089 171.475 29.9283 171.636 29.9283 171.796C29.7676 171.796 29.7676 172.279 29.9283 172.279C29.9283 172.439 30.4105 172.439 30.4105 172.279Z" fill="#CC8F00"/>
<path d="M27.354 163.751C27.5149 163.108 27.1931 162.464 26.3885 162.142C25.7449 161.981 24.9404 162.464 24.7795 163.108C24.6186 163.751 25.1013 164.556 25.7449 164.717C26.3885 164.878 27.1931 164.395 27.354 163.751Z" fill="#CC8F00"/>
<path d="M182.144 213.632C181.662 213.311 181.501 213.471 181.341 213.632C181.18 213.793 181.341 213.953 181.341 214.114H182.144C182.305 213.953 182.305 213.793 182.144 213.632Z" fill="#CC8F00"/>
<path d="M10.9416 151.362C11.2634 151.04 10.9416 150.557 10.6198 150.396C10.298 150.396 9.97617 150.557 9.65436 150.718C9.33254 150.879 9.65436 151.523 9.97617 151.683C10.298 152.005 10.7807 151.844 10.9416 151.362Z" fill="#CC8F00"/>
<path d="M11.1025 153.936C11.5852 153.775 11.7461 153.293 11.7461 152.971C11.5852 152.488 11.1025 152.166 10.7807 152.327C10.4589 152.488 10.1371 152.971 10.1371 153.292C9.97617 153.775 10.6198 153.936 11.1025 153.936Z" fill="#CC8F00"/>
<path d="M175.869 213.632C176.03 213.632 176.03 213.471 175.709 213.31C175.709 213.15 175.548 213.15 175.387 213.471C175.227 213.471 175.387 213.632 175.548 213.792C175.709 213.792 175.709 213.792 175.869 213.632C175.869 213.792 175.869 213.792 175.869 213.632Z" fill="#CC8F00"/>
<path d="M180.054 210.897C180.536 210.253 180.375 208.966 179.41 208.483C178.445 208 177.318 208.161 176.996 209.127C176.514 209.77 176.836 211.219 177.64 211.54C178.445 211.862 179.41 211.701 180.054 210.897Z" fill="#CC8F00"/>
<path d="M172.974 211.54C173.296 212.023 174.1 212.023 174.583 211.701C175.066 211.38 175.066 210.575 174.744 210.092C174.422 209.449 173.617 209.449 173.135 209.931C172.652 210.253 172.491 211.058 172.974 211.54Z" fill="#CC8F00"/>
<path d="M172.491 192.071C172.008 192.393 172.008 193.036 172.33 193.358C172.652 193.841 173.296 193.841 173.617 193.519C174.1 193.197 174.1 192.554 173.778 192.232C173.617 191.749 172.974 191.749 172.491 192.071Z" fill="#CC8F00"/>
<path d="M59.2125 180.807C58.8911 180.647 58.5697 180.968 58.5697 181.129C58.409 181.45 58.7304 181.772 58.8911 181.772C59.0518 181.772 59.534 181.611 59.534 181.45C59.6947 181.129 59.534 180.968 59.2125 180.807Z" fill="#CC8F00"/>
<path d="M222.694 184.347C222.211 184.669 222.372 185.152 222.694 185.635C223.016 186.117 223.498 185.956 223.981 185.635C224.142 185.474 224.303 185.313 224.303 185.152C224.464 185.313 224.785 185.474 224.946 185.474C225.751 185.474 226.395 185.152 226.555 184.347C226.555 183.543 226.234 182.899 225.429 182.738C224.625 182.577 223.981 183.06 223.82 183.865V184.186C223.498 184.026 223.016 184.026 222.694 184.347Z" fill="#CC8F00"/>
<path d="M4.18351 114.997C4.18351 114.514 3.70079 113.871 3.21808 113.871C2.73536 113.871 2.09174 114.353 2.09174 114.836C2.09174 115.319 2.41355 115.641 2.73536 115.801C2.57445 115.962 2.57445 116.123 2.57445 116.284C2.57445 116.606 2.89627 117.089 3.21808 117.089C3.53989 117.089 4.02261 116.767 4.02261 116.445C4.02261 116.123 3.8617 115.801 3.53989 115.641C3.8617 115.48 4.02261 115.158 4.18351 114.997Z" fill="#CC8F00"/>
<path d="M215.775 191.588C215.131 191.266 214.327 191.266 213.844 191.749C213.361 192.232 213.522 193.197 214.005 193.68C214.487 194.163 215.453 194.002 215.936 193.519C216.579 192.875 216.418 191.91 215.775 191.588Z" fill="#CC8F00"/>
<path d="M5.3099 113.066C4.82719 113.388 4.66628 113.871 4.82719 114.353C5.3099 114.675 5.63171 114.836 6.11443 114.675C6.59715 114.353 6.75806 113.871 6.59715 113.388C6.27534 113.066 5.79262 112.905 5.3099 113.066Z" fill="#CC8F00"/>
<path d="M245.864 182.416H246.186C246.347 182.577 246.669 182.577 246.669 182.416C246.829 182.256 246.829 182.095 246.829 181.934C246.829 181.612 246.669 181.129 246.347 181.129C246.025 181.129 245.703 181.29 245.542 181.612C245.381 181.934 245.542 182.416 245.864 182.416Z" fill="#CC8F00"/>
<path d="M5.79261 141.546C5.63171 141.225 5.4708 140.903 4.98808 141.225C4.66627 141.385 4.50537 141.707 4.66627 142.029C4.82718 142.351 5.14899 142.512 5.4708 142.351C5.3099 142.512 5.3099 142.673 5.3099 142.834C5.3099 143.155 5.4708 143.477 5.95352 143.477C6.27533 143.477 6.59714 143.316 6.59714 142.834C6.59714 142.512 6.43624 142.19 5.95352 142.19C5.79261 142.19 5.79261 142.19 5.63171 142.19C5.79261 142.029 5.79261 141.707 5.79261 141.546Z" fill="#CC8F00"/>
<path d="M6.758 128.674C7.24072 128.674 7.56253 128.352 7.56253 128.03C7.56253 127.548 7.24072 127.226 6.91891 127.226C6.5971 127.226 6.27529 127.387 6.11438 127.869C6.11438 128.352 6.43619 128.513 6.758 128.674Z" fill="#CC8F00"/>
<path d="M245.06 187.244C244.416 187.083 243.933 187.405 243.772 187.887C243.611 188.37 243.933 189.014 244.416 189.175C244.899 189.335 245.542 189.014 245.703 188.531C245.703 188.048 245.542 187.405 245.06 187.244Z" fill="#CC8F00"/>
<path d="M263.725 153.293C263.564 153.936 263.725 154.58 264.368 154.741C264.851 154.902 265.334 154.741 265.656 154.419C265.816 154.741 266.299 154.902 266.621 154.902C266.46 155.062 266.46 155.223 266.46 155.545C266.138 155.384 265.977 155.384 265.656 155.384C265.012 155.706 264.69 156.189 264.851 156.993C265.173 157.637 265.656 157.959 266.46 157.798C266.943 157.637 267.104 157.315 267.265 156.832C267.426 156.993 267.747 156.993 268.069 156.832C268.874 156.672 269.356 156.028 269.195 155.223C269.035 154.741 268.552 154.097 267.747 154.097L267.908 153.936H268.23C268.713 153.936 269.195 153.292 269.195 152.649C269.195 152.166 268.552 151.683 267.908 151.683C267.586 151.683 267.265 151.844 267.104 152.005C266.782 151.844 266.46 151.844 266.138 152.005C265.977 152.166 265.816 152.327 265.656 152.488C265.495 152.327 265.334 152.327 265.173 152.166C264.69 152.327 264.046 152.649 263.725 153.293Z" fill="#CC8F00"/>
<path d="M266.46 157.959C266.138 157.959 265.495 158.12 265.334 158.602C265.173 159.085 265.495 159.568 265.977 159.729C266.46 159.89 266.943 159.568 267.104 159.085C267.264 158.602 266.943 158.12 266.46 157.959Z" fill="#CC8F00"/>
<path d="M265.012 142.995C265.012 143.316 265.173 143.799 265.656 143.96C265.977 143.96 266.621 143.799 266.621 143.316C266.621 142.834 266.46 142.512 265.977 142.351C265.495 142.19 265.173 142.512 265.012 142.995Z" fill="#CC8F00"/>
<path d="M267.747 146.213C267.265 146.534 266.943 147.339 267.425 147.822C267.747 148.304 268.552 148.626 269.034 148.144C269.517 147.661 269.839 147.017 269.356 146.534C269.034 146.052 268.23 145.891 267.747 146.213Z" fill="#CC8F00"/>
<path d="M270 150.396C270 149.913 270 149.431 270 148.948C269.839 149.109 269.839 149.27 269.839 149.431C269.839 149.913 269.839 150.235 270 150.396Z" fill="#CC8F00"/>
<path d="M243.129 184.186C243.129 184.186 243.129 184.026 242.968 184.026C242.646 183.543 242.324 183.543 241.841 183.865C241.681 184.026 241.52 184.347 241.52 184.669C241.359 184.991 241.359 185.635 241.681 185.956C242.002 186.6 242.807 186.6 243.29 186.117C243.933 185.795 243.933 184.991 243.45 184.508C243.45 184.347 243.29 184.347 243.129 184.186Z" fill="#CC8F00"/>
<path d="M3.7008 126.743C3.05718 126.904 2.57446 127.548 2.57446 128.191C2.57446 128.835 3.37899 129.318 4.02262 129.318C4.82714 129.157 5.30986 128.513 5.14896 127.708C4.98805 126.904 4.50533 126.582 3.7008 126.743Z" fill="#CC8F00"/>
<path d="M232.67 195.611C232.992 195.128 232.992 194.645 232.509 194.163C232.026 194.002 231.544 194.002 231.061 194.323C230.739 194.806 230.739 195.289 231.222 195.772C231.704 196.093 232.348 196.093 232.67 195.611Z" fill="#CC8F00"/>
<path d="M236.531 195.933C236.692 195.45 236.531 194.806 236.049 194.484C235.566 194.323 234.762 194.645 234.601 194.967C234.44 195.289 234.601 196.093 235.083 196.415H235.727C235.888 196.254 236.21 196.093 236.531 195.933Z" fill="#CC8F00"/>
<path d="M238.141 187.565L237.98 187.405H237.819H237.658C236.692 187.244 235.727 187.887 235.566 188.853C235.405 189.657 235.888 190.462 236.692 190.784C236.853 191.105 237.336 191.427 237.819 191.427C238.302 191.427 238.623 190.944 238.784 190.462V190.623C238.784 191.105 239.267 191.266 239.75 191.266C240.232 191.266 240.393 190.784 240.393 190.301C240.393 189.818 239.911 189.657 239.428 189.657C239.267 189.657 239.267 189.818 239.106 189.818C239.106 189.657 239.267 189.657 239.267 189.496C239.267 188.692 238.784 187.887 238.141 187.565Z" fill="#CC8F00"/>
<path d="M242.163 181.451C242.968 181.612 243.611 180.968 243.772 180.164C243.772 180.003 243.772 180.003 243.772 179.842C244.094 179.681 244.255 179.52 244.416 179.359C244.577 179.52 244.738 179.842 245.06 180.003C246.025 180.486 246.99 180.325 247.473 179.359C247.956 178.394 247.795 177.428 246.83 176.946C245.864 176.463 244.738 176.785 244.416 177.589C244.416 177.75 244.255 177.75 244.255 177.911C243.933 177.589 243.611 177.267 243.129 177.428C242.485 177.428 241.841 178.072 241.841 178.877C241.359 179.037 240.876 179.52 240.876 180.164C240.715 180.807 241.359 181.29 242.163 181.451Z" fill="#CC8F00"/>
<path d="M221.246 196.415H221.085C220.924 196.415 220.763 196.254 220.602 196.254C219.797 196.093 219.154 196.576 218.993 197.381C218.993 198.185 219.315 198.829 220.119 198.99C220.924 199.151 221.567 198.668 221.728 197.863C221.728 197.703 221.728 197.542 221.728 197.381C221.889 196.898 221.567 196.415 221.246 196.415Z" fill="#CC8F00"/>
<path d="M263.403 169.061H263.242C262.759 168.739 262.277 168.739 261.794 168.9C261.15 169.383 260.667 170.188 261.15 170.992C261.15 171.153 261.311 171.153 261.311 171.314C261.472 171.797 261.633 172.118 261.955 172.279C262.598 171.314 263.242 170.349 263.886 169.222C263.886 169.222 263.725 169.222 263.403 169.061Z" fill="#CC8F00"/>
<path d="M265.656 161.338C265.816 161.821 266.299 161.981 266.621 161.66C267.104 161.499 267.265 161.016 266.943 160.694C266.621 160.372 266.299 160.372 265.977 160.372C265.656 160.694 265.495 161.177 265.656 161.338Z" fill="#CC8F00"/>
<path d="M260.346 172.601C260.828 172.44 260.989 171.797 260.828 171.314C260.667 170.67 260.024 170.509 259.541 170.831C259.058 170.992 258.897 171.636 259.058 172.118C259.38 172.601 259.863 172.762 260.346 172.601Z" fill="#CC8F00"/>
<path d="M258.737 174.854C258.415 174.693 257.932 174.693 257.771 175.176C257.61 175.498 257.771 176.141 258.093 176.141C258.415 176.302 259.058 176.141 259.058 175.819C259.219 175.658 259.058 175.015 258.737 174.854Z" fill="#CC8F00"/>
<path d="M250.69 184.347C250.208 184.347 249.565 184.829 249.726 185.472V185.633C250.208 185.312 250.529 184.829 251.012 184.508C251.012 184.508 250.851 184.347 250.69 184.347Z" fill="#CC8F00"/>
<path d="M246.025 166.004C246.347 165.521 246.347 164.878 245.864 164.556C245.381 164.234 244.738 164.234 244.416 164.717C244.094 165.2 244.094 165.843 244.577 166.165C244.899 166.648 245.703 166.487 246.025 166.004Z" fill="#CC8F00"/>
<path d="M242.002 176.946C242.646 177.267 243.451 177.107 243.772 176.302C244.094 175.658 243.933 174.854 243.129 174.532C242.485 174.21 241.681 174.371 241.359 175.176C241.037 175.658 241.359 176.463 242.002 176.946Z" fill="#CC8F00"/>
<path d="M236.691 169.865C236.691 169.705 236.37 169.383 236.209 169.544C235.888 169.705 235.727 169.705 235.888 170.026C235.888 170.187 236.209 170.508 236.37 170.348C236.531 170.348 236.691 170.026 236.691 169.865Z" fill="#CC8F00"/>
<path d="M60.6615 183.382C60.9833 184.026 61.9488 184.186 62.5924 183.543C63.236 183.221 63.3969 182.256 62.7533 181.612C62.4315 180.968 61.466 180.968 60.8224 181.451C60.1788 181.934 60.0179 182.899 60.6615 183.382Z" fill="#CC8F00"/>
<path d="M66.1323 168.418C66.615 168.257 66.615 167.613 66.4541 167.13C66.2932 166.648 65.6495 166.648 65.1668 166.809C64.6841 166.97 64.6841 167.613 64.845 168.096C65.0059 168.418 65.6495 168.579 66.1323 168.418Z" fill="#CC8F00"/>
<path d="M58.8915 153.293C59.3742 153.453 60.0178 153.293 60.1788 152.81C60.3397 152.327 60.1788 151.683 59.696 151.523C59.2133 151.201 58.5697 151.362 58.4088 152.005C58.2479 152.488 58.4088 153.132 58.8915 153.293Z" fill="#CC8F00"/>
<path d="M59.2133 178.233C59.3742 178.555 59.696 178.877 60.1787 178.877C60.6615 178.877 60.9833 178.394 60.8224 177.911C60.6614 177.589 60.3396 177.267 59.8569 177.267C59.5351 177.428 59.0524 177.911 59.2133 178.233Z" fill="#CC8F00"/>
<path d="M50.8453 178.714C51.1667 178.714 51.3274 178.232 51.3274 178.071C51.3274 177.911 51.006 177.589 50.5238 177.589C50.2024 177.589 50.0417 178.071 50.0417 178.232C50.0417 178.554 50.5238 178.714 50.8453 178.714Z" fill="#CC8F00"/>
<path d="M65.81 183.06C65.4886 183.221 65.3279 183.542 65.4886 183.864C65.6493 184.185 65.9707 184.346 66.2922 184.185C66.6136 184.024 66.7743 183.703 66.6136 183.381C66.4529 183.06 66.1314 182.899 65.81 183.06Z" fill="#CC8F00"/>
<path d="M55.1907 181.772C55.3514 182.254 55.6728 182.254 55.9942 182.254C56.4764 182.093 56.4764 181.772 56.4764 181.45C56.4764 181.129 55.9942 180.968 55.6728 180.968C55.1907 181.129 55.1907 181.29 55.1907 181.772Z" fill="#CC8F00"/>
<path d="M54.3861 152.005C54.7079 151.523 54.547 151.04 54.2252 150.718C53.9034 150.396 53.0989 150.718 52.938 150.879C52.6162 151.362 52.7771 151.844 53.0989 152.166C53.4207 152.488 54.0643 152.488 54.3861 152.005Z" fill="#CC8F00"/>
<path d="M53.4193 176.623C53.7408 176.301 53.58 175.98 53.4193 175.658C53.0979 175.498 52.7765 175.498 52.455 175.658C52.1336 175.98 52.2943 176.301 52.455 176.623C52.6158 176.944 53.0979 176.783 53.4193 176.623Z" fill="#CC8F00"/>
<path d="M51.6507 143.477C52.1335 143.316 52.2944 142.673 52.1335 142.19C51.9726 141.707 51.3289 141.546 50.8462 141.707C50.3635 141.868 50.2026 142.512 50.3635 142.995C50.5244 143.638 51.168 143.638 51.6507 143.477Z" fill="#CC8F00"/>
<path d="M71.2813 173.245C71.2813 173.567 71.764 173.888 72.0858 173.888C72.4076 173.888 72.7294 173.406 72.7294 173.084C72.7294 172.762 72.4076 172.44 71.9249 172.44C71.6031 172.601 71.1204 172.923 71.2813 173.245Z" fill="#CC8F00"/>
<path d="M58.5697 185.152C58.7306 185.152 58.7306 185.152 58.5697 185.152C59.2133 184.669 59.2133 183.865 58.7306 183.382C58.2479 182.899 57.4434 182.899 56.9607 183.221C56.478 183.704 56.317 184.347 56.7998 184.83C57.4434 184.991 58.087 184.991 58.5697 185.152Z" fill="#CC8F00"/>
<path d="M55.1907 156.993C55.6734 157.154 56.1561 156.993 56.1561 156.672C56.317 156.189 56.1561 155.706 55.8343 155.706C55.5125 155.545 55.0298 155.545 54.8688 156.028C54.7079 156.511 54.8689 156.993 55.1907 156.993Z" fill="#CC8F00"/>
<path d="M71.1204 161.177C71.6031 161.338 72.0858 161.016 72.2467 160.533C72.4076 160.051 72.0858 159.407 71.6031 159.407C71.1204 159.246 70.6376 159.568 70.4767 160.051C70.3158 160.533 70.6376 161.016 71.1204 161.177Z" fill="#CC8F00"/>
<path d="M131.299 180.807C131.782 180.646 131.943 180.325 131.782 179.842C131.621 179.359 131.299 179.198 130.816 179.359C130.495 179.52 130.334 179.842 130.334 180.325C130.495 180.647 130.816 180.968 131.299 180.807Z" fill="#CC8F00"/>
<path d="M123.737 177.428C124.219 177.589 124.702 177.267 124.863 176.785C125.024 176.302 124.702 175.819 124.219 175.658C123.576 175.498 123.093 175.98 123.093 176.302C122.932 176.785 123.254 177.267 123.737 177.428Z" fill="#CC8F00"/>
<path d="M123.897 173.567C124.38 173.728 125.024 173.567 125.185 173.084C125.346 172.44 125.185 171.958 124.702 171.797C124.219 171.636 123.576 171.797 123.415 172.279C123.254 172.762 123.415 173.406 123.897 173.567Z" fill="#CC8F00"/>
<path d="M127.759 168.096C128.403 168.257 128.886 167.774 128.886 167.291C129.046 166.648 128.564 166.165 128.081 166.165C127.598 166.165 126.955 166.648 126.955 166.97C126.794 167.613 127.116 168.096 127.759 168.096Z" fill="#CC8F00"/>
<path d="M138.862 191.588C139.184 191.105 139.184 190.623 138.862 190.301C138.54 189.979 137.896 189.979 137.574 190.301C137.253 190.784 137.253 191.266 137.574 191.588C137.896 191.91 138.54 191.91 138.862 191.588Z" fill="#CC8F00"/>
<path d="M140.31 197.863C140.953 198.346 141.758 198.024 142.241 197.381C142.402 197.059 142.402 196.898 142.402 196.576C142.723 196.576 143.206 196.576 143.528 196.415C144.172 196.093 144.333 195.128 143.85 194.484C143.367 193.841 142.563 193.68 141.919 194.163C141.597 194.484 141.436 194.967 141.436 195.45C140.793 195.289 140.149 195.45 139.827 196.093C139.344 196.737 139.666 197.381 140.31 197.863Z" fill="#CC8F00"/>
<path d="M79.8093 171.475C80.1311 170.992 80.1311 170.67 79.6484 170.349C79.1656 170.027 78.8438 170.188 78.522 170.509C78.2002 170.992 78.2002 171.314 78.6829 171.636C79.1656 171.958 79.4874 171.958 79.8093 171.475Z" fill="#CC8F00"/>
<path d="M78.3611 181.773C78.8438 181.451 78.8438 180.807 78.522 180.486C78.2002 180.003 77.5566 180.003 77.2348 180.325C76.9129 180.646 76.752 181.29 77.0739 181.612C77.3957 181.934 78.0393 182.095 78.3611 181.773Z" fill="#CC8F00"/>
<path d="M221.406 147.017C221.728 146.856 221.889 146.534 221.728 146.052C221.567 145.569 221.085 145.569 220.763 145.73C220.441 145.891 220.28 146.213 220.441 146.695C220.602 147.017 220.924 147.178 221.406 147.017Z" fill="#CC8F00"/>
<path d="M74.8212 173.728C75.3039 173.567 75.4648 172.923 75.3039 172.44C75.143 171.958 74.6603 171.797 74.0167 171.958C73.534 172.118 73.3731 172.762 73.534 173.245C73.8558 173.888 74.3385 173.888 74.8212 173.728Z" fill="#CC8F00"/>
<path d="M74.9821 185.152C75.4648 185.152 76.1085 184.991 76.5912 184.991C76.2694 184.508 75.7866 184.508 75.3039 184.669C75.143 184.83 74.9821 184.991 74.9821 185.152Z" fill="#CC8F00"/>
<path d="M94.7735 176.302C95.2563 176.302 95.5781 175.98 95.5781 175.337C95.5781 174.854 95.2563 174.532 94.6126 174.371C93.969 174.21 93.8081 174.693 93.8081 175.337C93.8081 175.98 94.2908 176.302 94.7735 176.302Z" fill="#CC8F00"/>
<path d="M73.8558 180.486C74.1776 180.486 74.6603 180.486 74.8212 180.164C74.8212 179.842 74.8212 179.359 74.4994 179.198C74.1776 179.037 73.6949 179.198 73.534 179.52C73.3731 179.842 73.3731 180.325 73.8558 180.486Z" fill="#CC8F00"/>
<path d="M139.023 181.612C139.505 181.29 139.344 180.807 139.023 180.325C138.701 179.842 138.218 180.003 137.735 180.325C137.253 180.647 137.414 181.129 137.735 181.612C138.057 181.934 138.701 181.934 139.023 181.612Z" fill="#CC8F00"/>
<path d="M26.5494 139.616C27.0321 139.776 27.5149 139.455 27.6758 138.972C27.8367 138.489 27.5149 137.846 27.0321 137.846C26.5494 137.685 26.0667 138.006 25.9058 138.489C25.7449 138.972 26.0667 139.455 26.5494 139.616Z" fill="#CC8F00"/>
<path d="M17.3778 118.698C17.6996 119.02 18.1824 118.859 18.5042 118.698C18.826 118.537 18.6651 117.893 18.5042 117.571C18.1824 117.25 17.6996 117.411 17.3778 117.571C17.056 117.732 17.056 118.376 17.3778 118.698Z" fill="#CC8F00"/>
<path d="M18.3432 141.707C18.9869 142.19 19.9523 142.19 20.435 141.546C20.9177 140.903 20.7568 139.937 20.2741 139.455C19.6305 138.972 18.665 138.972 18.1823 139.616C17.6996 140.42 17.8605 141.225 18.3432 141.707Z" fill="#CC8F00"/>
<path d="M49.2371 181.612C49.559 181.612 49.8808 181.451 50.0417 181.29C50.0417 181.612 50.0417 181.934 50.3635 182.095C50.8462 182.738 51.6507 182.899 52.1335 182.416C52.7771 182.095 52.938 181.29 52.6162 180.807C53.2598 180.968 53.9034 180.646 54.2252 180.003C54.2252 179.842 54.2252 179.842 54.2252 179.681C54.3861 179.842 54.547 179.842 54.8688 179.842C55.3516 179.842 55.8343 179.52 55.8343 178.877C55.8343 178.233 55.5125 177.911 55.0298 177.911C54.547 177.911 54.3861 178.233 54.2252 178.716C54.0643 178.555 53.9034 178.394 53.5816 178.233C52.938 178.072 52.2944 178.394 51.9725 179.037C51.8116 179.359 51.9725 179.52 51.9725 179.842C51.6507 179.681 51.168 179.842 50.8462 180.003L50.6853 180.164V180.003C50.6853 179.198 49.8808 178.716 49.2371 178.716C48.4326 178.716 47.9499 179.52 47.9499 180.164C47.789 181.129 48.5935 181.773 49.2371 181.612Z" fill="#CC8F00"/>
<path d="M25.2622 148.948C25.584 148.948 26.2276 148.626 26.2276 148.144C26.2276 147.822 25.9058 147.339 25.4231 147.178C24.7795 147.017 24.4576 147.339 24.4576 147.983C24.4576 148.465 24.9404 148.948 25.2622 148.948Z" fill="#CC8F00"/>
<path d="M24.2968 162.464C24.9404 162.303 25.4231 161.66 25.4231 161.016C25.4231 160.372 24.6186 159.89 23.975 159.89C23.3313 160.051 23.0095 160.855 22.8486 161.338C22.8486 162.142 23.4923 162.625 24.2968 162.464Z" fill="#CC8F00"/>
<path d="M19.9523 131.892C20.435 131.731 20.5959 131.248 20.435 130.927C20.2741 130.444 19.7914 130.283 19.4696 130.444C19.1478 130.605 18.9869 130.927 18.9869 131.409C19.3087 131.731 19.6305 131.892 19.9523 131.892Z" fill="#CC8F00"/>
<path d="M17.3778 102.446C17.8605 102.285 18.0214 101.642 17.6996 101.32C17.5387 100.837 17.056 100.837 16.5733 100.998C16.0905 101.159 15.7687 101.803 16.0905 102.124C16.2514 102.607 16.8951 102.768 17.3778 102.446Z" fill="#CC8F00"/>
<path d="M10.9416 110.813C11.2634 111.296 11.7461 111.457 12.0679 111.296C12.5506 111.135 12.7115 110.492 12.5506 110.17C12.5506 110.009 12.3897 110.009 12.3897 109.848C12.3897 109.687 12.5506 109.687 12.5506 109.526C12.7115 109.043 12.3897 108.561 11.907 108.4C11.4243 108.239 10.7807 108.4 10.7807 109.043C10.6197 109.365 10.7807 109.687 11.1025 110.009C10.9416 110.331 10.9416 110.652 10.9416 110.813Z" fill="#CC8F00"/>
<path d="M8.68893 143.155C8.52802 143.638 8.52802 144.121 8.84983 144.443C8.20621 144.443 7.56259 144.925 7.40168 145.569C7.24077 146.374 7.72349 146.856 8.52802 147.178C8.84983 147.339 9.01074 147.178 9.33255 147.178C9.49346 147.661 9.65436 147.822 10.1371 148.144C10.9416 148.304 11.5852 147.983 11.7461 147.339C11.907 146.534 11.5852 145.891 10.9416 145.73C10.6198 145.73 10.298 145.73 10.1371 145.891C10.1371 145.73 10.1371 145.408 9.97617 145.247C10.298 145.247 10.6198 145.086 10.9416 144.764C11.2634 145.247 11.7461 145.408 12.2289 145.086C12.8725 144.604 13.0334 143.96 12.8725 143.316C12.7116 142.673 12.0679 142.351 11.4243 142.673C11.2634 142.673 11.1025 142.834 10.9416 142.995C10.7807 142.834 10.6198 142.673 10.4589 142.512C9.81527 142.19 9.01074 142.512 8.68893 143.155Z" fill="#CC8F00"/>
<path d="M12.3897 136.88C12.7115 137.202 13.0333 137.363 13.516 137.041C13.8379 136.719 13.9988 136.397 13.677 135.915C13.3551 135.432 13.0333 135.432 12.5506 135.754C12.2288 136.076 12.0679 136.397 12.3897 136.88Z" fill="#CC8F00"/>
<path d="M16.8951 162.625C17.2169 162.464 17.3778 162.303 17.5387 162.142C17.6996 161.66 17.5387 161.016 17.056 160.855C16.5733 160.533 15.9296 160.694 15.7687 161.338C16.0905 161.821 16.5733 162.142 16.8951 162.625Z" fill="#CC8F00"/>
<path d="M14.8033 138.489C15.1251 138.328 15.286 138.006 15.1251 137.685C14.9642 137.363 14.6424 137.041 14.3206 137.202C13.9988 137.363 13.8379 137.524 13.9988 138.006C13.9988 138.328 14.4815 138.65 14.8033 138.489Z" fill="#CC8F00"/>
<path d="M22.6877 165.521C22.8486 166.004 23.4923 166.165 23.975 165.843C24.4577 165.682 24.6186 165.039 24.2968 164.556C24.1359 164.395 24.1359 164.234 23.975 164.234V164.073C23.6532 163.751 23.4923 163.59 23.3313 163.43C23.0095 163.43 22.6877 163.751 22.6877 164.073C22.6877 164.234 22.6877 164.234 22.8486 164.395C22.3659 164.717 22.3659 165.039 22.6877 165.521Z" fill="#CC8F00"/>
<path d="M40.0655 156.993C40.5482 157.154 40.87 156.993 41.0309 156.672C41.1918 156.35 41.0309 155.867 40.7091 155.706C40.2264 155.545 39.7437 155.706 39.7437 156.028C39.5828 156.511 39.5828 156.832 40.0655 156.993Z" fill="#CC8F00"/>
<path d="M43.7663 180.325C43.9273 180.647 44.0882 180.968 44.41 180.968C44.7318 180.968 45.3754 180.646 45.3754 180.164C45.3754 179.842 45.0536 179.198 44.5709 179.198C44.41 179.198 44.2491 179.198 44.0882 179.198C44.0882 179.037 43.9272 178.877 43.9272 178.716C43.4445 178.394 42.8009 178.233 42.4791 178.716C41.9964 179.037 42.1573 179.681 42.4791 180.164C42.8009 180.646 43.4445 180.647 43.7663 180.325Z" fill="#CC8F00"/>
<path d="M36.3647 136.88C36.5256 136.88 36.5256 136.719 36.5256 136.719C36.5256 137.041 36.5256 137.363 36.8474 137.685C37.0083 137.846 37.3301 137.846 37.652 137.846C37.9738 138.006 38.2956 137.846 38.6174 137.524C39.1001 137.202 38.7783 136.558 38.4565 136.236C38.1347 136.076 37.9738 136.076 37.652 136.076C37.3301 135.915 37.0083 135.915 36.6865 136.236C36.6865 136.076 36.6865 135.754 36.5256 135.593C36.3647 135.11 35.7211 134.949 35.3993 135.271C34.9166 135.593 34.7556 136.076 35.0775 136.397C35.5602 137.041 36.0429 137.202 36.3647 136.88Z" fill="#CC8F00"/>
<path d="M38.2955 178.232C38.4562 178.553 38.7776 178.714 39.099 178.553C39.4205 178.393 39.5812 178.071 39.4205 177.75C39.2598 177.428 38.9383 177.268 38.6169 177.428C38.2955 177.589 38.1348 177.91 38.2955 178.232Z" fill="#CC8F00"/>
<path d="M47.1448 169.221C47.4662 169.221 47.9484 169.06 47.9484 168.738C47.9484 168.417 47.7877 167.935 47.4662 167.935C46.9841 167.774 46.6627 168.096 46.6627 168.417C46.6627 168.738 46.8234 169.221 47.1448 169.221Z" fill="#CC8F00"/>
<path d="M43.6055 163.108C44.0882 163.269 44.41 163.108 44.5709 162.786C44.7318 162.464 44.5709 161.981 44.2491 161.821C43.9273 161.821 43.6055 161.981 43.2836 162.142C43.1227 162.625 43.2836 162.947 43.6055 163.108Z" fill="#CC8F00"/>
<path d="M30.2503 163.269C29.6067 163.43 29.4458 164.234 29.6067 164.878C29.7676 165.521 30.5721 165.682 31.2157 165.521C31.8594 165.36 32.0203 164.556 31.8594 163.912C31.5375 163.269 30.8939 162.947 30.2503 163.269Z" fill="#CC8F00"/>
<path d="M29.6067 150.074C29.4458 150.396 29.4458 150.879 29.9285 151.04C30.2503 151.201 30.733 151.201 30.8939 150.718C31.0548 150.396 31.0548 149.913 30.5721 149.753C30.0894 149.592 29.6067 149.753 29.6067 150.074Z" fill="#CC8F00"/>
<path d="M29.7676 124.49C30.2503 124.329 30.5721 123.847 30.4112 123.364C30.2503 122.881 29.7676 122.559 29.2848 122.72C28.8021 122.881 28.4803 123.364 28.6412 123.847C28.8021 124.329 29.2848 124.812 29.7676 124.49Z" fill="#CC8F00"/>
<path d="M34.4338 157.798C34.7556 157.798 35.2383 157.315 35.2383 156.993C35.2383 156.672 34.7556 156.35 34.4338 156.189C33.9511 156.189 33.6293 156.511 33.6293 156.993C33.6293 157.476 34.112 157.798 34.4338 157.798Z" fill="#CC8F00"/>
<path d="M33.7902 160.372C34.2729 160.211 34.4338 159.568 34.2729 159.085C34.112 158.602 33.4684 158.441 32.9857 158.602C32.503 158.763 32.3421 159.407 32.503 159.89C32.8248 160.533 33.3075 160.694 33.7902 160.372Z" fill="#CC8F00"/>
<path d="M32.0202 170.027C31.3766 169.866 30.733 170.509 30.733 171.153C30.733 171.797 31.2157 172.44 31.8593 172.44C32.5029 172.601 33.1466 171.958 33.1466 171.314C33.1466 171.153 33.1466 170.992 33.1466 170.831C33.4684 171.314 33.9511 171.636 34.4338 171.636C35.2383 171.475 35.882 170.831 35.882 170.027C35.721 169.383 35.3992 168.9 34.9165 168.739V168.579C34.9165 168.579 34.9165 168.579 35.0774 168.739C35.721 169.061 36.5256 169.061 37.0083 168.418C37.491 167.774 37.3301 166.969 36.6865 166.487C36.2038 166.165 35.882 166.165 35.3992 166.326C35.3992 166.004 35.3992 165.682 35.2383 165.36C34.7556 164.717 33.9511 164.395 33.4684 164.717C32.6638 165.2 32.5029 166.004 32.8247 166.487C33.3075 167.13 33.9511 167.291 34.4338 167.13V167.613C34.2729 167.452 33.9511 167.291 33.6293 167.291C32.8247 167.291 32.1811 167.774 32.1811 168.579C32.1811 169.222 32.5029 169.705 32.9857 169.866V170.188C32.9857 170.349 33.1466 170.509 33.1466 170.67C32.8247 170.349 32.5029 170.027 32.0202 170.027Z" fill="#CC8F00"/>
<path d="M114.242 184.669C114.082 184.508 113.76 184.347 113.599 184.508C113.76 184.508 113.921 184.669 114.242 184.669Z" fill="#CC8F00"/>
<path d="M191.478 196.898C191.317 197.381 191.317 197.863 191.8 198.185C192.282 198.346 192.765 198.346 193.087 197.863C193.248 197.381 193.248 196.898 192.765 196.576C192.282 196.254 191.961 196.415 191.478 196.898Z" fill="#CC8F00"/>
<path d="M204.511 163.912C204.833 163.912 205.316 163.59 205.316 163.269C205.316 162.947 204.994 162.464 204.672 162.464C204.189 162.464 203.868 162.786 203.868 163.108C203.868 163.59 204.189 163.912 204.511 163.912Z" fill="#CC8F00"/>
<path d="M201.937 199.151C201.776 198.507 201.293 197.863 200.489 197.863C199.523 197.863 198.88 198.346 198.719 199.312C198.558 200.277 199.201 201.082 200.167 201.082C200.971 201.242 201.615 200.921 201.776 200.277C201.937 200.76 202.098 201.242 202.58 201.564C203.385 201.886 204.672 201.725 204.994 200.76C205.316 199.955 205.155 198.668 204.19 198.346C203.385 197.863 202.259 198.346 201.937 199.151Z" fill="#CC8F00"/>
<path d="M205.316 205.265C205.155 205.104 204.994 204.943 204.833 204.943C204.672 204.621 204.189 204.461 203.868 204.621C203.385 204.782 203.063 205.265 203.224 205.748C203.385 206.231 203.868 206.552 204.35 206.391H204.511C204.672 206.391 204.672 206.552 204.833 206.552C205.155 206.552 205.638 206.231 205.638 205.909V205.748C205.798 206.07 206.442 206.231 206.764 206.07C207.247 205.909 207.408 205.265 207.247 204.782C207.086 204.3 206.442 204.139 205.959 204.3C205.316 204.3 205.155 204.782 205.316 205.265Z" fill="#CC8F00"/>
<path d="M206.925 200.438C207.247 200.921 208.051 201.242 208.534 200.921C208.373 201.082 208.373 201.403 208.373 201.564C208.534 202.208 209.017 202.691 209.66 202.691C210.304 202.53 210.787 202.047 210.787 201.403C210.787 200.76 210.143 200.277 209.499 200.277C209.338 200.277 209.178 200.277 209.178 200.438C209.338 200.116 209.338 199.633 209.178 199.151C209.017 198.829 208.695 198.668 208.373 198.668L208.534 198.507C208.695 198.185 208.534 197.703 208.212 197.703C207.89 197.542 207.408 197.703 207.408 198.024C207.247 198.346 207.408 198.668 207.729 198.829C206.764 199.151 206.442 199.955 206.925 200.438Z" fill="#CC8F00"/>
<path d="M202.58 187.083C202.098 186.761 201.293 187.244 200.971 187.726C200.65 188.209 200.971 189.014 201.615 189.335C201.776 189.335 201.776 189.496 201.937 189.496C201.776 189.657 201.776 189.979 201.937 190.14C202.098 190.623 202.58 190.462 202.902 190.462C203.224 190.462 203.224 189.818 203.224 189.496C203.063 189.335 203.063 189.174 202.902 189.014C203.063 188.853 203.224 188.692 203.224 188.692C203.546 188.209 203.224 187.405 202.58 187.083Z" fill="#CC8F00"/>
<path d="M197.914 161.66C198.397 161.338 198.397 161.016 198.075 160.533C197.753 160.211 197.431 160.051 196.949 160.372C196.466 160.694 196.466 161.016 196.788 161.499C197.11 161.981 197.592 161.981 197.914 161.66Z" fill="#CC8F00"/>
<path d="M210.304 184.669C210.465 185.152 210.948 185.635 211.43 185.474C211.913 185.313 212.235 184.83 212.235 184.347C212.074 183.865 211.591 183.543 211.108 183.543C210.948 183.543 210.948 183.543 210.948 183.543C210.948 183.382 210.787 183.382 210.787 183.221C210.465 182.899 209.982 183.06 209.821 183.382C209.66 183.865 209.821 184.186 209.982 184.347C209.982 184.669 210.143 184.669 210.304 184.669Z" fill="#CC8F00"/>
<path d="M198.558 180.164C199.201 179.842 199.201 178.877 198.719 178.233C198.236 177.75 197.431 177.589 196.788 178.072C196.144 178.394 196.144 179.359 196.627 180.003C197.11 180.646 197.914 180.646 198.558 180.164Z" fill="#CC8F00"/>
<path d="M194.857 191.588C195.501 191.91 196.305 191.588 196.627 190.944C196.949 190.301 196.627 189.496 195.983 189.175C195.34 188.853 194.535 189.014 194.213 189.818C193.891 190.623 194.213 191.427 194.857 191.588Z" fill="#CC8F00"/>
<path d="M200.328 176.302C200.81 176.463 201.454 176.463 201.615 175.98C201.776 175.498 201.776 174.854 201.293 174.693C200.81 174.532 200.328 174.532 200.006 175.015C199.845 175.498 199.845 176.141 200.328 176.302Z" fill="#CC8F00"/>
<path d="M201.293 182.577C201.132 183.06 201.293 183.704 201.776 183.865C202.259 184.026 202.902 183.865 203.063 183.382C203.224 182.899 203.063 182.256 202.58 182.095C201.937 181.934 201.454 182.095 201.293 182.577Z" fill="#CC8F00"/>
<path d="M197.914 190.462C197.592 190.944 197.753 191.427 198.075 191.749C198.558 192.071 199.041 191.91 199.362 191.588C199.684 191.105 199.523 190.623 199.201 190.301C198.88 189.818 198.236 189.979 197.914 190.462Z" fill="#CC8F00"/>
<path d="M205.477 151.201C205.96 151.04 206.281 150.557 206.12 150.074C205.96 149.592 205.477 149.27 204.994 149.431C204.511 149.431 204.19 150.074 204.35 150.557C204.511 150.879 204.994 151.362 205.477 151.201Z" fill="#CC8F00"/>
<path d="M218.026 171.153C218.026 170.992 217.705 170.67 217.383 170.831C217.062 170.992 216.901 171.153 217.062 171.474C217.062 171.635 217.544 171.795 217.705 171.795C217.865 171.795 218.026 171.474 218.026 171.153Z" fill="#CC8F00"/>
<path d="M217.867 175.015C218.349 175.498 219.154 175.498 219.637 174.854C220.119 174.371 220.119 173.567 219.476 173.084C218.993 172.762 218.188 172.601 217.706 173.245C217.223 173.888 217.384 174.532 217.867 175.015Z" fill="#CC8F00"/>
<path d="M217.706 163.269C218.188 163.108 218.349 162.464 218.188 161.981C218.027 161.338 217.384 161.177 216.901 161.499C216.418 161.66 216.257 162.303 216.418 162.786C216.579 163.269 217.223 163.43 217.706 163.269Z" fill="#CC8F00"/>
<path d="M222.855 190.623C223.498 189.979 223.659 188.853 223.015 188.209C222.372 187.565 221.406 187.405 220.602 188.048C219.958 188.692 219.797 189.818 220.441 190.462C221.085 191.105 222.211 191.105 222.855 190.623Z" fill="#CC8F00"/>
<path d="M215.613 183.22C215.774 183.059 215.773 182.577 215.452 182.577C215.131 182.256 214.809 182.416 214.809 182.738C214.809 183.059 214.649 183.381 214.97 183.381C215.291 183.381 215.452 183.541 215.613 183.22Z" fill="#CC8F00"/>
<path d="M220.601 172.278C220.923 172.278 221.244 172.117 221.405 171.796C221.405 171.474 221.244 171.153 220.923 170.992C220.601 170.992 220.119 171.153 220.119 171.474C219.958 171.796 220.119 172.117 220.601 172.278Z" fill="#CC8F00"/>
<path d="M212.878 208C212.718 208.161 212.557 208.322 212.396 208.483C211.591 208.161 210.626 208.322 210.304 209.127V209.288C212.074 208.644 213.844 208 215.453 207.357C215.614 206.874 215.614 206.391 215.131 205.909C214.97 205.748 214.809 205.587 214.648 205.587C215.131 205.909 215.614 205.587 215.936 205.104C216.097 204.782 216.097 204.461 215.936 204.3C216.097 203.978 216.257 203.656 216.418 203.334C216.418 202.369 215.775 201.564 214.809 201.564C213.844 201.564 213.039 202.208 213.039 203.173C213.039 203.817 213.522 204.461 214.005 204.782C214.005 205.104 214.327 205.426 214.488 205.587C214.005 205.426 213.361 205.426 212.878 205.748C212.396 206.391 212.235 207.357 212.878 208C212.878 208 212.718 208 212.878 208Z" fill="#CC8F00"/>
<path d="M211.429 196.414C211.751 196.414 212.072 196.253 212.072 195.771C212.072 195.449 211.912 195.128 211.429 195.128C210.947 195.128 210.787 195.289 210.787 195.771C210.787 196.253 211.108 196.414 211.429 196.414Z" fill="#CC8F00"/>
<path d="M215.131 189.496C215.453 190.301 216.579 190.944 217.384 190.623C218.188 190.301 218.832 189.335 218.51 188.37C218.349 187.726 217.706 187.244 216.901 187.083C216.74 186.922 216.579 186.761 216.418 186.6C215.775 186.278 215.131 186.6 214.809 187.083C214.487 187.565 214.648 188.209 215.131 188.531C214.97 189.014 214.97 189.174 215.131 189.496Z" fill="#CC8F00"/>
<path d="M209.821 194.645C209.982 194.967 210.143 195.289 210.626 195.289C210.947 195.128 211.269 194.806 211.269 194.484C211.269 194.323 211.108 194.323 211.108 194.163L211.269 194.002C211.43 193.68 211.269 193.197 210.948 193.197C210.626 193.036 210.143 193.197 210.143 193.519C210.143 193.68 210.143 194.002 210.304 194.163C209.821 194.163 209.821 194.484 209.821 194.645Z" fill="#CC8F00"/>
<path d="M213.844 189.657C214.326 189.335 214.326 189.014 214.005 188.531C213.683 188.048 213.2 188.209 212.878 188.37C212.396 188.692 212.396 189.014 212.717 189.496C213.039 189.979 213.522 189.979 213.844 189.657Z" fill="#CC8F00"/>
<path d="M210.465 158.281C210.948 158.441 211.591 158.441 211.752 157.959C211.913 157.476 211.913 156.832 211.43 156.672C210.948 156.511 210.304 156.511 210.143 156.993C209.982 157.476 209.982 158.12 210.465 158.281Z" fill="#CC8F00"/>
<path d="M188.421 185.795C189.064 185.635 189.547 184.83 189.225 184.186C189.064 183.543 188.26 183.06 187.616 183.382C186.973 183.704 186.651 184.347 186.812 184.991C187.133 185.635 187.777 186.117 188.421 185.795Z" fill="#CC8F00"/>
<path d="M171.525 205.425C171.686 205.585 172.168 205.264 172.168 204.942C172.329 204.782 172.007 204.3 171.686 204.3C171.525 204.139 171.043 204.46 171.043 204.782C171.043 204.942 171.204 205.425 171.525 205.425Z" fill="#CC8F00"/>
<path d="M163.48 175.98C163.802 175.658 163.963 175.337 163.641 174.854C163.319 174.371 162.998 174.371 162.515 174.693C162.193 175.015 162.032 175.337 162.354 175.819C162.515 176.141 163.159 176.141 163.48 175.98Z" fill="#CC8F00"/>
<path d="M167.02 181.612C167.503 181.934 168.147 181.773 168.307 181.29C168.629 180.807 168.468 180.164 167.986 180.003C167.503 179.842 167.02 179.842 166.698 180.325C166.377 180.807 166.538 181.451 167.02 181.612Z" fill="#CC8F00"/>
<path d="M190.834 180.164C190.834 180.486 190.995 180.968 191.478 181.129C191.8 181.129 192.443 180.968 192.443 180.486C192.443 180.164 192.283 179.681 191.8 179.52C191.317 179.359 190.995 179.681 190.834 180.164Z" fill="#CC8F00"/>
<path d="M167.503 198.024C167.02 198.346 167.02 198.99 167.342 199.312C167.664 199.794 168.308 199.794 168.629 199.472C169.112 199.151 169.112 198.507 168.79 198.185C168.468 197.703 167.825 197.542 167.503 198.024Z" fill="#CC8F00"/>
<path d="M167.503 201.725C167.503 201.403 167.342 201.082 166.859 200.921C166.216 200.599 165.411 200.921 165.25 201.403C165.089 201.564 165.089 201.886 165.089 202.208V202.369C165.089 202.53 165.25 202.691 165.411 202.852L165.733 203.173C166.216 203.495 166.859 203.334 167.181 202.852C167.181 203.334 167.664 203.978 168.147 204.139C168.79 204.3 169.756 203.817 169.917 203.173C170.077 202.53 169.756 201.564 168.951 201.403C168.468 200.921 167.825 201.242 167.503 201.725Z" fill="#CC8F00"/>
<path d="M166.377 190.301C167.02 190.14 167.342 189.175 167.181 188.531C167.02 187.887 166.055 187.565 165.411 187.726C164.768 187.887 164.285 188.692 164.607 189.496C164.768 190.14 165.733 190.462 166.377 190.301Z" fill="#CC8F00"/>
<path d="M149.16 197.381C148.999 198.024 149.642 198.507 150.125 198.668C150.608 198.829 151.251 198.185 151.412 197.703C151.573 197.22 150.93 196.576 150.447 196.415C149.642 196.415 149.321 196.898 149.16 197.381Z" fill="#CC8F00"/>
<path d="M148.838 178.072C149.321 178.072 149.803 177.589 149.642 176.946C149.642 176.624 148.999 176.141 148.516 176.141C148.033 176.141 147.551 176.624 147.712 177.267C147.712 177.911 148.355 178.233 148.838 178.072Z" fill="#CC8F00"/>
<path d="M159.779 208.483C159.94 208.483 160.101 208.322 160.262 208.161C160.584 208.322 161.067 208.483 161.549 208.322C162.515 208.161 163.158 207.196 162.837 206.231C162.676 205.265 161.71 204.621 160.745 204.943C159.779 205.104 159.297 205.909 159.458 206.874C159.297 206.874 159.136 206.874 158.975 206.874C158.492 207.035 158.331 207.679 158.492 208.161C158.653 208.483 159.297 208.644 159.779 208.483Z" fill="#CC8F00"/>
<path d="M144.976 197.863C144.815 198.345 144.976 198.667 145.137 198.827C145.619 198.988 145.94 198.827 146.101 198.667C146.262 198.185 146.101 197.863 145.94 197.702C145.78 197.542 145.458 197.542 144.976 197.863Z" fill="#CC8F00"/>
<path d="M152.861 167.452C153.343 167.291 153.665 166.809 153.504 166.326C153.504 166.004 153.021 165.682 152.378 165.682C151.895 165.843 151.573 166.326 151.734 166.809C151.895 167.291 152.378 167.613 152.861 167.452Z" fill="#CC8F00"/>
<path d="M152.7 183.543C153.182 183.382 153.343 182.738 153.182 182.256C153.021 181.773 152.378 181.612 151.895 181.773C151.412 181.934 151.251 182.416 151.412 183.06C151.734 183.543 152.378 183.704 152.7 183.543Z" fill="#CC8F00"/>
<path d="M163.319 204.782C163.48 205.265 164.124 205.265 164.607 205.104C165.089 204.943 165.089 204.3 164.928 203.817C164.768 203.334 164.124 203.173 163.641 203.495C163.319 203.656 163.159 204.3 163.319 204.782Z" fill="#CC8F00"/>
<path d="M185.203 200.277C185.685 200.438 186.168 200.116 186.329 199.633C186.49 199.151 186.168 198.668 185.685 198.507C185.203 198.346 184.72 198.668 184.559 199.151C184.237 199.633 184.72 200.116 185.203 200.277Z" fill="#CC8F00"/>
<path d="M186.49 204.943C187.133 204.3 187.294 203.334 186.651 202.691C186.007 202.047 185.042 201.886 184.398 202.53C183.754 203.173 183.594 204.139 184.237 204.782C184.881 205.426 185.846 205.587 186.49 204.943Z" fill="#CC8F00"/>
<path d="M145.459 190.784C145.942 190.944 146.263 190.784 146.424 190.301C146.424 189.979 146.263 189.496 145.942 189.335C145.459 189.175 145.137 189.335 144.976 189.818C144.654 190.301 144.976 190.623 145.459 190.784Z" fill="#CC8F00"/>
<path d="M191.639 175.98C191.961 175.658 192.122 175.337 191.8 175.015C191.639 174.532 191.317 174.532 190.834 174.854C190.513 175.176 190.352 175.497 190.673 175.819C190.834 176.141 191.317 176.302 191.639 175.98Z" fill="#CC8F00"/>
<path d="M190.191 194.645C190.834 194.806 191.156 194.484 191.317 193.841C191.478 193.197 191.156 192.875 190.513 192.714C190.03 192.714 189.547 193.036 189.386 193.519C189.225 194.163 189.547 194.484 190.191 194.645Z" fill="#CC8F00"/>
<path d="M181.341 205.748C180.697 205.909 180.054 206.713 180.375 207.357C180.536 208.001 181.341 208.483 181.984 208.322C182.145 208.322 182.306 208.161 182.467 208.001H182.628C183.433 208.001 184.076 207.518 184.076 206.713C184.076 205.909 183.594 205.265 182.789 205.265C182.306 205.265 181.984 205.426 181.663 205.748C181.663 205.748 181.502 205.748 181.341 205.748Z" fill="#CC8F00"/>
<path d="M177.157 202.369C177.962 202.369 178.445 201.725 178.605 200.921C178.766 200.116 177.962 199.633 177.157 199.472C176.353 199.472 175.87 200.116 175.709 200.921C175.87 201.725 176.353 202.208 177.157 202.369Z" fill="#CC8F00"/>
<path d="M175.226 178.232C175.547 178.232 175.868 177.91 175.708 177.589C175.708 177.267 175.386 176.946 175.065 177.107C174.744 177.107 174.422 177.428 174.583 177.749C174.422 178.232 174.904 178.232 175.226 178.232Z" fill="#CC8F00"/>
<path d="M181.824 166.326C182.306 166.326 182.789 166.004 182.789 165.36C182.789 164.717 182.467 164.395 181.824 164.395C181.18 164.395 180.858 164.717 180.858 165.36C181.019 166.004 181.341 166.326 181.824 166.326Z" fill="#CC8F00"/>
<path d="M172.008 188.37C172.008 189.175 172.33 189.818 173.135 189.979C173.939 190.14 174.583 189.657 174.744 188.853C174.744 188.048 174.422 187.405 173.617 187.244C172.974 187.244 172.169 187.726 172.008 188.37Z" fill="#CC8F00"/>
<path d="M179.732 205.426C180.697 205.587 181.502 204.782 181.502 203.817C181.663 202.851 180.858 202.047 179.893 202.047C178.927 202.047 178.284 202.691 178.123 203.656C177.962 204.621 178.927 205.426 179.732 205.426Z" fill="#CC8F00"/>
<path d="M172.169 185.474C172.652 185.635 173.135 185.635 173.296 185.152C173.456 184.669 173.456 184.186 172.974 184.026C172.491 183.865 172.008 183.865 171.847 184.347C171.687 184.83 171.847 185.313 172.169 185.474Z" fill="#CC8F00"/>
</svg>
